G75*
G70*
%OFA0B0*%
%FSLAX25Y25*%
%IPPOS*%
%LPD*%
%AMOC8*
5,1,8,0,0,1.08239X$1,22.5*
%
%AMM208*
21,1,0.025590,0.026380,0.000000,-0.000000,180.000000*
21,1,0.020470,0.031500,0.000000,-0.000000,180.000000*
1,1,0.005120,-0.010240,0.013190*
1,1,0.005120,0.010240,0.013190*
1,1,0.005120,0.010240,-0.013190*
1,1,0.005120,-0.010240,-0.013190*
%
%AMM209*
21,1,0.017720,0.027950,0.000000,-0.000000,180.000000*
21,1,0.014170,0.031500,0.000000,-0.000000,180.000000*
1,1,0.003540,-0.007090,0.013980*
1,1,0.003540,0.007090,0.013980*
1,1,0.003540,0.007090,-0.013980*
1,1,0.003540,-0.007090,-0.013980*
%
%AMM210*
21,1,0.012600,0.028980,0.000000,-0.000000,0.000000*
21,1,0.010080,0.031500,0.000000,-0.000000,0.000000*
1,1,0.002520,0.005040,-0.014490*
1,1,0.002520,-0.005040,-0.014490*
1,1,0.002520,-0.005040,0.014490*
1,1,0.002520,0.005040,0.014490*
%
%AMM211*
21,1,0.023620,0.030710,0.000000,-0.000000,90.000000*
21,1,0.018900,0.035430,0.000000,-0.000000,90.000000*
1,1,0.004720,0.015350,0.009450*
1,1,0.004720,0.015350,-0.009450*
1,1,0.004720,-0.015350,-0.009450*
1,1,0.004720,-0.015350,0.009450*
%
%AMM212*
21,1,0.027560,0.018900,0.000000,-0.000000,0.000000*
21,1,0.022840,0.023620,0.000000,-0.000000,0.000000*
1,1,0.004720,0.011420,-0.009450*
1,1,0.004720,-0.011420,-0.009450*
1,1,0.004720,-0.011420,0.009450*
1,1,0.004720,0.011420,0.009450*
%
%AMM213*
21,1,0.031500,0.072440,0.000000,-0.000000,0.000000*
21,1,0.025200,0.078740,0.000000,-0.000000,0.000000*
1,1,0.006300,0.012600,-0.036220*
1,1,0.006300,-0.012600,-0.036220*
1,1,0.006300,-0.012600,0.036220*
1,1,0.006300,0.012600,0.036220*
%
%AMM214*
21,1,0.027560,0.018900,0.000000,-0.000000,90.000000*
21,1,0.022840,0.023620,0.000000,-0.000000,90.000000*
1,1,0.004720,0.009450,0.011420*
1,1,0.004720,0.009450,-0.011420*
1,1,0.004720,-0.009450,-0.011420*
1,1,0.004720,-0.009450,0.011420*
%
%AMM215*
21,1,0.023620,0.030710,0.000000,-0.000000,180.000000*
21,1,0.018900,0.035430,0.000000,-0.000000,180.000000*
1,1,0.004720,-0.009450,0.015350*
1,1,0.004720,0.009450,0.015350*
1,1,0.004720,0.009450,-0.015350*
1,1,0.004720,-0.009450,-0.015350*
%
%AMM216*
21,1,0.035430,0.030320,0.000000,-0.000000,180.000000*
21,1,0.028350,0.037400,0.000000,-0.000000,180.000000*
1,1,0.007090,-0.014170,0.015160*
1,1,0.007090,0.014170,0.015160*
1,1,0.007090,0.014170,-0.015160*
1,1,0.007090,-0.014170,-0.015160*
%
%AMM217*
21,1,0.043310,0.075980,0.000000,-0.000000,270.000000*
21,1,0.034650,0.084650,0.000000,-0.000000,270.000000*
1,1,0.008660,-0.037990,-0.017320*
1,1,0.008660,-0.037990,0.017320*
1,1,0.008660,0.037990,0.017320*
1,1,0.008660,0.037990,-0.017320*
%
%AMM218*
21,1,0.039370,0.035430,0.000000,-0.000000,270.000000*
21,1,0.031500,0.043310,0.000000,-0.000000,270.000000*
1,1,0.007870,-0.017720,-0.015750*
1,1,0.007870,-0.017720,0.015750*
1,1,0.007870,0.017720,0.015750*
1,1,0.007870,0.017720,-0.015750*
%
%AMM219*
21,1,0.027560,0.030710,0.000000,-0.000000,270.000000*
21,1,0.022050,0.036220,0.000000,-0.000000,270.000000*
1,1,0.005510,-0.015350,-0.011020*
1,1,0.005510,-0.015350,0.011020*
1,1,0.005510,0.015350,0.011020*
1,1,0.005510,0.015350,-0.011020*
%
%AMM220*
21,1,0.031500,0.072440,0.000000,-0.000000,270.000000*
21,1,0.025200,0.078740,0.000000,-0.000000,270.000000*
1,1,0.006300,-0.036220,-0.012600*
1,1,0.006300,-0.036220,0.012600*
1,1,0.006300,0.036220,0.012600*
1,1,0.006300,0.036220,-0.012600*
%
%AMM221*
21,1,0.137800,0.067720,0.000000,-0.000000,270.000000*
21,1,0.120870,0.084650,0.000000,-0.000000,270.000000*
1,1,0.016930,-0.033860,-0.060430*
1,1,0.016930,-0.033860,0.060430*
1,1,0.016930,0.033860,0.060430*
1,1,0.016930,0.033860,-0.060430*
%
%AMM222*
21,1,0.043310,0.075990,0.000000,-0.000000,270.000000*
21,1,0.034650,0.084650,0.000000,-0.000000,270.000000*
1,1,0.008660,-0.037990,-0.017320*
1,1,0.008660,-0.037990,0.017320*
1,1,0.008660,0.037990,0.017320*
1,1,0.008660,0.037990,-0.017320*
%
%AMM223*
21,1,0.086610,0.073230,0.000000,-0.000000,0.000000*
21,1,0.069290,0.090550,0.000000,-0.000000,0.000000*
1,1,0.017320,0.034650,-0.036610*
1,1,0.017320,-0.034650,-0.036610*
1,1,0.017320,-0.034650,0.036610*
1,1,0.017320,0.034650,0.036610*
%
%AMM36*
21,1,0.033470,0.026770,0.000000,0.000000,0.000000*
21,1,0.026770,0.033470,0.000000,0.000000,0.000000*
1,1,0.006690,0.013390,-0.013390*
1,1,0.006690,-0.013390,-0.013390*
1,1,0.006690,-0.013390,0.013390*
1,1,0.006690,0.013390,0.013390*
%
%AMM42*
21,1,0.035830,0.026770,0.000000,0.000000,0.000000*
21,1,0.029130,0.033470,0.000000,0.000000,0.000000*
1,1,0.006690,0.014570,-0.013390*
1,1,0.006690,-0.014570,-0.013390*
1,1,0.006690,-0.014570,0.013390*
1,1,0.006690,0.014570,0.013390*
%
%AMM44*
21,1,0.070870,0.036220,0.000000,0.000000,90.000000*
21,1,0.061810,0.045280,0.000000,0.000000,90.000000*
1,1,0.009060,0.018110,0.030910*
1,1,0.009060,0.018110,-0.030910*
1,1,0.009060,-0.018110,-0.030910*
1,1,0.009060,-0.018110,0.030910*
%
%AMM59*
21,1,0.086610,0.073230,0.000000,0.000000,270.000000*
21,1,0.069290,0.090550,0.000000,0.000000,270.000000*
1,1,0.017320,-0.036610,-0.034650*
1,1,0.017320,-0.036610,0.034650*
1,1,0.017320,0.036610,0.034650*
1,1,0.017320,0.036610,-0.034650*
%
%AMM60*
21,1,0.094490,0.111020,0.000000,0.000000,0.000000*
21,1,0.075590,0.129920,0.000000,0.000000,0.000000*
1,1,0.018900,0.037800,-0.055510*
1,1,0.018900,-0.037800,-0.055510*
1,1,0.018900,-0.037800,0.055510*
1,1,0.018900,0.037800,0.055510*
%
%AMM61*
21,1,0.074800,0.083460,0.000000,0.000000,0.000000*
21,1,0.059840,0.098430,0.000000,0.000000,0.000000*
1,1,0.014960,0.029920,-0.041730*
1,1,0.014960,-0.029920,-0.041730*
1,1,0.014960,-0.029920,0.041730*
1,1,0.014960,0.029920,0.041730*
%
%AMM62*
21,1,0.078740,0.053540,0.000000,0.000000,180.000000*
21,1,0.065350,0.066930,0.000000,0.000000,180.000000*
1,1,0.013390,-0.032680,0.026770*
1,1,0.013390,0.032680,0.026770*
1,1,0.013390,0.032680,-0.026770*
1,1,0.013390,-0.032680,-0.026770*
%
%AMM63*
21,1,0.035430,0.030320,0.000000,0.000000,90.000000*
21,1,0.028350,0.037400,0.000000,0.000000,90.000000*
1,1,0.007090,0.015160,0.014170*
1,1,0.007090,0.015160,-0.014170*
1,1,0.007090,-0.015160,-0.014170*
1,1,0.007090,-0.015160,0.014170*
%
%AMM64*
21,1,0.021650,0.052760,0.000000,0.000000,270.000000*
21,1,0.017320,0.057090,0.000000,0.000000,270.000000*
1,1,0.004330,-0.026380,-0.008660*
1,1,0.004330,-0.026380,0.008660*
1,1,0.004330,0.026380,0.008660*
1,1,0.004330,0.026380,-0.008660*
%
%AMM65*
21,1,0.015750,0.016540,0.000000,0.000000,270.000000*
21,1,0.012600,0.019680,0.000000,0.000000,270.000000*
1,1,0.003150,-0.008270,-0.006300*
1,1,0.003150,-0.008270,0.006300*
1,1,0.003150,0.008270,0.006300*
1,1,0.003150,0.008270,-0.006300*
%
%AMM66*
21,1,0.023620,0.018900,0.000000,0.000000,90.000000*
21,1,0.018900,0.023620,0.000000,0.000000,90.000000*
1,1,0.004720,0.009450,0.009450*
1,1,0.004720,0.009450,-0.009450*
1,1,0.004720,-0.009450,-0.009450*
1,1,0.004720,-0.009450,0.009450*
%
%AMM67*
21,1,0.019680,0.019680,0.000000,0.000000,0.000000*
21,1,0.015750,0.023620,0.000000,0.000000,0.000000*
1,1,0.003940,0.007870,-0.009840*
1,1,0.003940,-0.007870,-0.009840*
1,1,0.003940,-0.007870,0.009840*
1,1,0.003940,0.007870,0.009840*
%
%AMM68*
21,1,0.019680,0.019680,0.000000,0.000000,270.000000*
21,1,0.015750,0.023620,0.000000,0.000000,270.000000*
1,1,0.003940,-0.009840,-0.007870*
1,1,0.003940,-0.009840,0.007870*
1,1,0.003940,0.009840,0.007870*
1,1,0.003940,0.009840,-0.007870*
%
%ADD131M36*%
%ADD140M42*%
%ADD145M44*%
%ADD166M59*%
%ADD167M60*%
%ADD168M61*%
%ADD169M62*%
%ADD170M63*%
%ADD171M64*%
%ADD172M65*%
%ADD173M66*%
%ADD174M67*%
%ADD175M68*%
%ADD215O,0.01181X0.04331*%
%ADD222O,0.02362X0.08661*%
%ADD32R,0.14567X0.00787*%
%ADD33R,0.01575X0.00787*%
%ADD338M208*%
%ADD339M209*%
%ADD34R,0.06299X0.00787*%
%ADD340M210*%
%ADD341M211*%
%ADD342M212*%
%ADD343M213*%
%ADD344M214*%
%ADD345M215*%
%ADD346M216*%
%ADD347M217*%
%ADD348M218*%
%ADD349M219*%
%ADD35R,0.38189X0.00787*%
%ADD350M220*%
%ADD351M221*%
%ADD352M222*%
%ADD353M223*%
%ADD36R,0.09055X0.00787*%
%ADD37R,0.00787X0.05512*%
%ADD38R,0.00787X0.25197*%
%ADD39R,0.00787X0.06693*%
%ADD396R,0.01181X0.05512*%
%ADD40R,0.00787X0.12992*%
%ADD41R,0.27559X0.00787*%
%ADD42R,0.12992X0.00787*%
%ADD43R,0.24803X0.00787*%
%ADD45C,0.03150*%
%ADD74O,0.04724X0.00866*%
%ADD75O,0.00866X0.04724*%
%ADD79R,0.01378X0.00984*%
%ADD80R,0.00984X0.01378*%
X0000000Y0000000D02*
%LPD*%
G01*
G36*
G01*
X0125610Y0138386D02*
X0128681Y0138386D01*
G75*
G02*
X0128957Y0138110I0000000J-000276D01*
G01*
X0128957Y0135906D01*
G75*
G02*
X0128681Y0135630I-000276J0000000D01*
G01*
X0125610Y0135630D01*
G75*
G02*
X0125335Y0135906I0000000J0000276D01*
G01*
X0125335Y0138110D01*
G75*
G02*
X0125610Y0138386I0000276J0000000D01*
G01*
G37*
G36*
G01*
X0125610Y0132087D02*
X0128681Y0132087D01*
G75*
G02*
X0128957Y0131811I0000000J-000276D01*
G01*
X0128957Y0129606D01*
G75*
G02*
X0128681Y0129331I-000276J0000000D01*
G01*
X0125610Y0129331D01*
G75*
G02*
X0125335Y0129606I0000000J0000276D01*
G01*
X0125335Y0131811D01*
G75*
G02*
X0125610Y0132087I0000276J0000000D01*
G01*
G37*
G36*
G01*
X0227913Y0129921D02*
X0224843Y0129921D01*
G75*
G02*
X0224567Y0130197I0000000J0000276D01*
G01*
X0224567Y0132402D01*
G75*
G02*
X0224843Y0132677I0000276J0000000D01*
G01*
X0227913Y0132677D01*
G75*
G02*
X0228189Y0132402I0000000J-000276D01*
G01*
X0228189Y0130197D01*
G75*
G02*
X0227913Y0129921I-000276J0000000D01*
G01*
G37*
G36*
G01*
X0227913Y0136220D02*
X0224843Y0136220D01*
G75*
G02*
X0224567Y0136496I0000000J0000276D01*
G01*
X0224567Y0138701D01*
G75*
G02*
X0224843Y0138976I0000276J0000000D01*
G01*
X0227913Y0138976D01*
G75*
G02*
X0228189Y0138701I0000000J-000276D01*
G01*
X0228189Y0136496D01*
G75*
G02*
X0227913Y0136220I-000276J0000000D01*
G01*
G37*
G36*
G01*
X0063031Y0192692D02*
X0063031Y0190694D01*
G75*
G02*
X0062869Y0190531I-000163J0000000D01*
G01*
X0055241Y0190531D01*
G75*
G02*
X0055079Y0190694I0000000J0000163D01*
G01*
X0055079Y0192692D01*
G75*
G02*
X0055241Y0192854I0000163J0000000D01*
G01*
X0062869Y0192854D01*
G75*
G02*
X0063031Y0192692I0000000J-000163D01*
G01*
G37*
G36*
G01*
X0063031Y0197692D02*
X0063031Y0195694D01*
G75*
G02*
X0062869Y0195531I-000163J0000000D01*
G01*
X0055241Y0195531D01*
G75*
G02*
X0055079Y0195694I0000000J0000163D01*
G01*
X0055079Y0197692D01*
G75*
G02*
X0055241Y0197854I0000163J0000000D01*
G01*
X0062869Y0197854D01*
G75*
G02*
X0063031Y0197692I0000000J-000163D01*
G01*
G37*
G36*
G01*
X0063031Y0202692D02*
X0063031Y0200694D01*
G75*
G02*
X0062869Y0200531I-000163J0000000D01*
G01*
X0055241Y0200531D01*
G75*
G02*
X0055079Y0200694I0000000J0000163D01*
G01*
X0055079Y0202692D01*
G75*
G02*
X0055241Y0202854I0000163J0000000D01*
G01*
X0062869Y0202854D01*
G75*
G02*
X0063031Y0202692I0000000J-000163D01*
G01*
G37*
G36*
G01*
X0063031Y0207692D02*
X0063031Y0205694D01*
G75*
G02*
X0062869Y0205531I-000163J0000000D01*
G01*
X0055241Y0205531D01*
G75*
G02*
X0055079Y0205694I0000000J0000163D01*
G01*
X0055079Y0207692D01*
G75*
G02*
X0055241Y0207854I0000163J0000000D01*
G01*
X0062869Y0207854D01*
G75*
G02*
X0063031Y0207692I0000000J-000163D01*
G01*
G37*
G36*
G01*
X0026181Y0207692D02*
X0026181Y0205694D01*
G75*
G02*
X0026019Y0205531I-000163J0000000D01*
G01*
X0018391Y0205531D01*
G75*
G02*
X0018228Y0205694I0000000J0000163D01*
G01*
X0018228Y0207692D01*
G75*
G02*
X0018391Y0207854I0000163J0000000D01*
G01*
X0026019Y0207854D01*
G75*
G02*
X0026181Y0207692I0000000J-000163D01*
G01*
G37*
G36*
G01*
X0026181Y0202692D02*
X0026181Y0200694D01*
G75*
G02*
X0026019Y0200531I-000163J0000000D01*
G01*
X0018391Y0200531D01*
G75*
G02*
X0018228Y0200694I0000000J0000163D01*
G01*
X0018228Y0202692D01*
G75*
G02*
X0018391Y0202854I0000163J0000000D01*
G01*
X0026019Y0202854D01*
G75*
G02*
X0026181Y0202692I0000000J-000163D01*
G01*
G37*
G36*
G01*
X0026181Y0197692D02*
X0026181Y0195694D01*
G75*
G02*
X0026019Y0195531I-000163J0000000D01*
G01*
X0018391Y0195531D01*
G75*
G02*
X0018228Y0195694I0000000J0000163D01*
G01*
X0018228Y0197692D01*
G75*
G02*
X0018391Y0197854I0000163J0000000D01*
G01*
X0026019Y0197854D01*
G75*
G02*
X0026181Y0197692I0000000J-000163D01*
G01*
G37*
G36*
G01*
X0026181Y0192692D02*
X0026181Y0190694D01*
G75*
G02*
X0026019Y0190531I-000163J0000000D01*
G01*
X0018391Y0190531D01*
G75*
G02*
X0018228Y0190694I0000000J0000163D01*
G01*
X0018228Y0192692D01*
G75*
G02*
X0018391Y0192854I0000163J0000000D01*
G01*
X0026019Y0192854D01*
G75*
G02*
X0026181Y0192692I0000000J-000163D01*
G01*
G37*
G36*
G01*
X0061417Y0145177D02*
X0061417Y0150098D01*
G75*
G02*
X0061811Y0150492I0000394J0000000D01*
G01*
X0064961Y0150492D01*
G75*
G02*
X0065354Y0150098I0000000J-000394D01*
G01*
X0065354Y0145177D01*
G75*
G02*
X0064961Y0144783I-000394J0000000D01*
G01*
X0061811Y0144783D01*
G75*
G02*
X0061417Y0145177I0000000J0000394D01*
G01*
G37*
G36*
G01*
X0068898Y0145177D02*
X0068898Y0150098D01*
G75*
G02*
X0069291Y0150492I0000394J0000000D01*
G01*
X0072441Y0150492D01*
G75*
G02*
X0072835Y0150098I0000000J-000394D01*
G01*
X0072835Y0145177D01*
G75*
G02*
X0072441Y0144783I-000394J0000000D01*
G01*
X0069291Y0144783D01*
G75*
G02*
X0068898Y0145177I0000000J0000394D01*
G01*
G37*
G36*
G01*
X0162953Y0078150D02*
X0159882Y0078150D01*
G75*
G02*
X0159606Y0078425I0000000J0000276D01*
G01*
X0159606Y0080630D01*
G75*
G02*
X0159882Y0080906I0000276J0000000D01*
G01*
X0162953Y0080906D01*
G75*
G02*
X0163228Y0080630I0000000J-000276D01*
G01*
X0163228Y0078425D01*
G75*
G02*
X0162953Y0078150I-000276J0000000D01*
G01*
G37*
G36*
G01*
X0162953Y0084449D02*
X0159882Y0084449D01*
G75*
G02*
X0159606Y0084724I0000000J0000276D01*
G01*
X0159606Y0086929D01*
G75*
G02*
X0159882Y0087205I0000276J0000000D01*
G01*
X0162953Y0087205D01*
G75*
G02*
X0163228Y0086929I0000000J-000276D01*
G01*
X0163228Y0084724D01*
G75*
G02*
X0162953Y0084449I-000276J0000000D01*
G01*
G37*
G36*
G01*
X0200354Y0078150D02*
X0197283Y0078150D01*
G75*
G02*
X0197008Y0078425I0000000J0000276D01*
G01*
X0197008Y0080630D01*
G75*
G02*
X0197283Y0080906I0000276J0000000D01*
G01*
X0200354Y0080906D01*
G75*
G02*
X0200630Y0080630I0000000J-000276D01*
G01*
X0200630Y0078425D01*
G75*
G02*
X0200354Y0078150I-000276J0000000D01*
G01*
G37*
G36*
G01*
X0200354Y0084449D02*
X0197283Y0084449D01*
G75*
G02*
X0197008Y0084724I0000000J0000276D01*
G01*
X0197008Y0086929D01*
G75*
G02*
X0197283Y0087205I0000276J0000000D01*
G01*
X0200354Y0087205D01*
G75*
G02*
X0200630Y0086929I0000000J-000276D01*
G01*
X0200630Y0084724D01*
G75*
G02*
X0200354Y0084449I-000276J0000000D01*
G01*
G37*
G36*
G01*
X0162308Y0092766D02*
X0160290Y0092766D01*
G75*
G02*
X0159429Y0093627I0000000J0000861D01*
G01*
X0159429Y0095349D01*
G75*
G02*
X0160290Y0096211I0000861J0000000D01*
G01*
X0162308Y0096211D01*
G75*
G02*
X0163169Y0095349I0000000J-000861D01*
G01*
X0163169Y0093627D01*
G75*
G02*
X0162308Y0092766I-000861J0000000D01*
G01*
G37*
G36*
G01*
X0162308Y0098967D02*
X0160290Y0098967D01*
G75*
G02*
X0159429Y0099828I0000000J0000861D01*
G01*
X0159429Y0101550D01*
G75*
G02*
X0160290Y0102411I0000861J0000000D01*
G01*
X0162308Y0102411D01*
G75*
G02*
X0163169Y0101550I0000000J-000861D01*
G01*
X0163169Y0099828D01*
G75*
G02*
X0162308Y0098967I-000861J0000000D01*
G01*
G37*
G36*
G01*
X0157224Y0155610D02*
X0156043Y0155610D01*
G75*
G02*
X0155453Y0156201I0000000J0000591D01*
G01*
X0155453Y0162697D01*
G75*
G02*
X0156043Y0163287I0000591J0000000D01*
G01*
X0157224Y0163287D01*
G75*
G02*
X0157815Y0162697I0000000J-000591D01*
G01*
X0157815Y0156201D01*
G75*
G02*
X0157224Y0155610I-000591J0000000D01*
G01*
G37*
G36*
G01*
X0162224Y0155610D02*
X0161043Y0155610D01*
G75*
G02*
X0160453Y0156201I0000000J0000591D01*
G01*
X0160453Y0162697D01*
G75*
G02*
X0161043Y0163287I0000591J0000000D01*
G01*
X0162224Y0163287D01*
G75*
G02*
X0162815Y0162697I0000000J-000591D01*
G01*
X0162815Y0156201D01*
G75*
G02*
X0162224Y0155610I-000591J0000000D01*
G01*
G37*
G36*
G01*
X0167224Y0155610D02*
X0166043Y0155610D01*
G75*
G02*
X0165453Y0156201I0000000J0000591D01*
G01*
X0165453Y0162697D01*
G75*
G02*
X0166043Y0163287I0000591J0000000D01*
G01*
X0167224Y0163287D01*
G75*
G02*
X0167815Y0162697I0000000J-000591D01*
G01*
X0167815Y0156201D01*
G75*
G02*
X0167224Y0155610I-000591J0000000D01*
G01*
G37*
G36*
G01*
X0172224Y0155610D02*
X0171043Y0155610D01*
G75*
G02*
X0170453Y0156201I0000000J0000591D01*
G01*
X0170453Y0162697D01*
G75*
G02*
X0171043Y0163287I0000591J0000000D01*
G01*
X0172224Y0163287D01*
G75*
G02*
X0172815Y0162697I0000000J-000591D01*
G01*
X0172815Y0156201D01*
G75*
G02*
X0172224Y0155610I-000591J0000000D01*
G01*
G37*
G36*
G01*
X0172224Y0175098D02*
X0171043Y0175098D01*
G75*
G02*
X0170453Y0175689I0000000J0000591D01*
G01*
X0170453Y0182185D01*
G75*
G02*
X0171043Y0182776I0000591J0000000D01*
G01*
X0172224Y0182776D01*
G75*
G02*
X0172815Y0182185I0000000J-000591D01*
G01*
X0172815Y0175689D01*
G75*
G02*
X0172224Y0175098I-000591J0000000D01*
G01*
G37*
G36*
G01*
X0167224Y0175098D02*
X0166043Y0175098D01*
G75*
G02*
X0165453Y0175689I0000000J0000591D01*
G01*
X0165453Y0182185D01*
G75*
G02*
X0166043Y0182776I0000591J0000000D01*
G01*
X0167224Y0182776D01*
G75*
G02*
X0167815Y0182185I0000000J-000591D01*
G01*
X0167815Y0175689D01*
G75*
G02*
X0167224Y0175098I-000591J0000000D01*
G01*
G37*
G36*
G01*
X0162224Y0175098D02*
X0161043Y0175098D01*
G75*
G02*
X0160453Y0175689I0000000J0000591D01*
G01*
X0160453Y0182185D01*
G75*
G02*
X0161043Y0182776I0000591J0000000D01*
G01*
X0162224Y0182776D01*
G75*
G02*
X0162815Y0182185I0000000J-000591D01*
G01*
X0162815Y0175689D01*
G75*
G02*
X0162224Y0175098I-000591J0000000D01*
G01*
G37*
G36*
G01*
X0157224Y0175098D02*
X0156043Y0175098D01*
G75*
G02*
X0155453Y0175689I0000000J0000591D01*
G01*
X0155453Y0182185D01*
G75*
G02*
X0156043Y0182776I0000591J0000000D01*
G01*
X0157224Y0182776D01*
G75*
G02*
X0157815Y0182185I0000000J-000591D01*
G01*
X0157815Y0175689D01*
G75*
G02*
X0157224Y0175098I-000591J0000000D01*
G01*
G37*
G36*
G01*
X0105807Y0381890D02*
X0110728Y0381890D01*
G75*
G02*
X0111122Y0381496I0000000J-000394D01*
G01*
X0111122Y0378346D01*
G75*
G02*
X0110728Y0377953I-000394J0000000D01*
G01*
X0105807Y0377953D01*
G75*
G02*
X0105413Y0378346I0000000J0000394D01*
G01*
X0105413Y0381496D01*
G75*
G02*
X0105807Y0381890I0000394J0000000D01*
G01*
G37*
G36*
G01*
X0105807Y0374409D02*
X0110728Y0374409D01*
G75*
G02*
X0111122Y0374016I0000000J-000394D01*
G01*
X0111122Y0370866D01*
G75*
G02*
X0110728Y0370472I-000394J0000000D01*
G01*
X0105807Y0370472D01*
G75*
G02*
X0105413Y0370866I0000000J0000394D01*
G01*
X0105413Y0374016D01*
G75*
G02*
X0105807Y0374409I0000394J0000000D01*
G01*
G37*
G36*
G01*
X0168917Y0138386D02*
X0171988Y0138386D01*
G75*
G02*
X0172264Y0138110I0000000J-000276D01*
G01*
X0172264Y0135906D01*
G75*
G02*
X0171988Y0135630I-000276J0000000D01*
G01*
X0168917Y0135630D01*
G75*
G02*
X0168642Y0135906I0000000J0000276D01*
G01*
X0168642Y0138110D01*
G75*
G02*
X0168917Y0138386I0000276J0000000D01*
G01*
G37*
G36*
G01*
X0168917Y0132087D02*
X0171988Y0132087D01*
G75*
G02*
X0172264Y0131811I0000000J-000276D01*
G01*
X0172264Y0129606D01*
G75*
G02*
X0171988Y0129331I-000276J0000000D01*
G01*
X0168917Y0129331D01*
G75*
G02*
X0168642Y0129606I0000000J0000276D01*
G01*
X0168642Y0131811D01*
G75*
G02*
X0168917Y0132087I0000276J0000000D01*
G01*
G37*
G36*
G01*
X0194449Y0130118D02*
X0191378Y0130118D01*
G75*
G02*
X0191102Y0130394I0000000J0000276D01*
G01*
X0191102Y0132598D01*
G75*
G02*
X0191378Y0132874I0000276J0000000D01*
G01*
X0194449Y0132874D01*
G75*
G02*
X0194724Y0132598I0000000J-000276D01*
G01*
X0194724Y0130394D01*
G75*
G02*
X0194449Y0130118I-000276J0000000D01*
G01*
G37*
G36*
G01*
X0194449Y0136417D02*
X0191378Y0136417D01*
G75*
G02*
X0191102Y0136693I0000000J0000276D01*
G01*
X0191102Y0138898D01*
G75*
G02*
X0191378Y0139173I0000276J0000000D01*
G01*
X0194449Y0139173D01*
G75*
G02*
X0194724Y0138898I0000000J-000276D01*
G01*
X0194724Y0136693D01*
G75*
G02*
X0194449Y0136417I-000276J0000000D01*
G01*
G37*
G36*
G01*
X0159075Y0138386D02*
X0162146Y0138386D01*
G75*
G02*
X0162421Y0138110I0000000J-000276D01*
G01*
X0162421Y0135906D01*
G75*
G02*
X0162146Y0135630I-000276J0000000D01*
G01*
X0159075Y0135630D01*
G75*
G02*
X0158799Y0135906I0000000J0000276D01*
G01*
X0158799Y0138110D01*
G75*
G02*
X0159075Y0138386I0000276J0000000D01*
G01*
G37*
G36*
G01*
X0159075Y0132087D02*
X0162146Y0132087D01*
G75*
G02*
X0162421Y0131811I0000000J-000276D01*
G01*
X0162421Y0129606D01*
G75*
G02*
X0162146Y0129331I-000276J0000000D01*
G01*
X0159075Y0129331D01*
G75*
G02*
X0158799Y0129606I0000000J0000276D01*
G01*
X0158799Y0131811D01*
G75*
G02*
X0159075Y0132087I0000276J0000000D01*
G01*
G37*
G36*
G01*
X0266181Y0139173D02*
X0269252Y0139173D01*
G75*
G02*
X0269528Y0138898I0000000J-000276D01*
G01*
X0269528Y0136693D01*
G75*
G02*
X0269252Y0136417I-000276J0000000D01*
G01*
X0266181Y0136417D01*
G75*
G02*
X0265906Y0136693I0000000J0000276D01*
G01*
X0265906Y0138898D01*
G75*
G02*
X0266181Y0139173I0000276J0000000D01*
G01*
G37*
G36*
G01*
X0266181Y0132874D02*
X0269252Y0132874D01*
G75*
G02*
X0269528Y0132598I0000000J-000276D01*
G01*
X0269528Y0130394D01*
G75*
G02*
X0269252Y0130118I-000276J0000000D01*
G01*
X0266181Y0130118D01*
G75*
G02*
X0265906Y0130394I0000000J0000276D01*
G01*
X0265906Y0132598D01*
G75*
G02*
X0266181Y0132874I0000276J0000000D01*
G01*
G37*
G36*
G01*
X0093996Y0381890D02*
X0098917Y0381890D01*
G75*
G02*
X0099311Y0381496I0000000J-000394D01*
G01*
X0099311Y0378346D01*
G75*
G02*
X0098917Y0377953I-000394J0000000D01*
G01*
X0093996Y0377953D01*
G75*
G02*
X0093602Y0378346I0000000J0000394D01*
G01*
X0093602Y0381496D01*
G75*
G02*
X0093996Y0381890I0000394J0000000D01*
G01*
G37*
G36*
G01*
X0093996Y0374409D02*
X0098917Y0374409D01*
G75*
G02*
X0099311Y0374016I0000000J-000394D01*
G01*
X0099311Y0370866D01*
G75*
G02*
X0098917Y0370472I-000394J0000000D01*
G01*
X0093996Y0370472D01*
G75*
G02*
X0093602Y0370866I0000000J0000394D01*
G01*
X0093602Y0374016D01*
G75*
G02*
X0093996Y0374409I0000394J0000000D01*
G01*
G37*
G36*
G01*
X0100787Y0318406D02*
X0100787Y0323327D01*
G75*
G02*
X0101181Y0323720I0000394J0000000D01*
G01*
X0104331Y0323720D01*
G75*
G02*
X0104724Y0323327I0000000J-000394D01*
G01*
X0104724Y0318406D01*
G75*
G02*
X0104331Y0318012I-000394J0000000D01*
G01*
X0101181Y0318012D01*
G75*
G02*
X0100787Y0318406I0000000J0000394D01*
G01*
G37*
G36*
G01*
X0108268Y0318406D02*
X0108268Y0323327D01*
G75*
G02*
X0108661Y0323720I0000394J0000000D01*
G01*
X0111811Y0323720D01*
G75*
G02*
X0112205Y0323327I0000000J-000394D01*
G01*
X0112205Y0318406D01*
G75*
G02*
X0111811Y0318012I-000394J0000000D01*
G01*
X0108661Y0318012D01*
G75*
G02*
X0108268Y0318406I0000000J0000394D01*
G01*
G37*
G36*
G01*
X0174764Y0078150D02*
X0171693Y0078150D01*
G75*
G02*
X0171417Y0078425I0000000J0000276D01*
G01*
X0171417Y0080630D01*
G75*
G02*
X0171693Y0080906I0000276J0000000D01*
G01*
X0174764Y0080906D01*
G75*
G02*
X0175039Y0080630I0000000J-000276D01*
G01*
X0175039Y0078425D01*
G75*
G02*
X0174764Y0078150I-000276J0000000D01*
G01*
G37*
G36*
G01*
X0174764Y0084449D02*
X0171693Y0084449D01*
G75*
G02*
X0171417Y0084724I0000000J0000276D01*
G01*
X0171417Y0086929D01*
G75*
G02*
X0171693Y0087205I0000276J0000000D01*
G01*
X0174764Y0087205D01*
G75*
G02*
X0175039Y0086929I0000000J-000276D01*
G01*
X0175039Y0084724D01*
G75*
G02*
X0174764Y0084449I-000276J0000000D01*
G01*
G37*
G36*
G01*
X0100787Y0330217D02*
X0100787Y0335138D01*
G75*
G02*
X0101181Y0335531I0000394J0000000D01*
G01*
X0104331Y0335531D01*
G75*
G02*
X0104724Y0335138I0000000J-000394D01*
G01*
X0104724Y0330217D01*
G75*
G02*
X0104331Y0329823I-000394J0000000D01*
G01*
X0101181Y0329823D01*
G75*
G02*
X0100787Y0330217I0000000J0000394D01*
G01*
G37*
G36*
G01*
X0108268Y0330217D02*
X0108268Y0335138D01*
G75*
G02*
X0108661Y0335531I0000394J0000000D01*
G01*
X0111811Y0335531D01*
G75*
G02*
X0112205Y0335138I0000000J-000394D01*
G01*
X0112205Y0330217D01*
G75*
G02*
X0111811Y0329823I-000394J0000000D01*
G01*
X0108661Y0329823D01*
G75*
G02*
X0108268Y0330217I0000000J0000394D01*
G01*
G37*
G36*
G01*
X0223780Y0155610D02*
X0222598Y0155610D01*
G75*
G02*
X0222008Y0156201I0000000J0000591D01*
G01*
X0222008Y0162697D01*
G75*
G02*
X0222598Y0163287I0000591J0000000D01*
G01*
X0223780Y0163287D01*
G75*
G02*
X0224370Y0162697I0000000J-000591D01*
G01*
X0224370Y0156201D01*
G75*
G02*
X0223780Y0155610I-000591J0000000D01*
G01*
G37*
G36*
G01*
X0228780Y0155610D02*
X0227598Y0155610D01*
G75*
G02*
X0227008Y0156201I0000000J0000591D01*
G01*
X0227008Y0162697D01*
G75*
G02*
X0227598Y0163287I0000591J0000000D01*
G01*
X0228780Y0163287D01*
G75*
G02*
X0229370Y0162697I0000000J-000591D01*
G01*
X0229370Y0156201D01*
G75*
G02*
X0228780Y0155610I-000591J0000000D01*
G01*
G37*
G36*
G01*
X0233780Y0155610D02*
X0232598Y0155610D01*
G75*
G02*
X0232008Y0156201I0000000J0000591D01*
G01*
X0232008Y0162697D01*
G75*
G02*
X0232598Y0163287I0000591J0000000D01*
G01*
X0233780Y0163287D01*
G75*
G02*
X0234370Y0162697I0000000J-000591D01*
G01*
X0234370Y0156201D01*
G75*
G02*
X0233780Y0155610I-000591J0000000D01*
G01*
G37*
G36*
G01*
X0238780Y0155610D02*
X0237598Y0155610D01*
G75*
G02*
X0237008Y0156201I0000000J0000591D01*
G01*
X0237008Y0162697D01*
G75*
G02*
X0237598Y0163287I0000591J0000000D01*
G01*
X0238780Y0163287D01*
G75*
G02*
X0239370Y0162697I0000000J-000591D01*
G01*
X0239370Y0156201D01*
G75*
G02*
X0238780Y0155610I-000591J0000000D01*
G01*
G37*
G36*
G01*
X0238780Y0175098D02*
X0237598Y0175098D01*
G75*
G02*
X0237008Y0175689I0000000J0000591D01*
G01*
X0237008Y0182185D01*
G75*
G02*
X0237598Y0182776I0000591J0000000D01*
G01*
X0238780Y0182776D01*
G75*
G02*
X0239370Y0182185I0000000J-000591D01*
G01*
X0239370Y0175689D01*
G75*
G02*
X0238780Y0175098I-000591J0000000D01*
G01*
G37*
G36*
G01*
X0233780Y0175098D02*
X0232598Y0175098D01*
G75*
G02*
X0232008Y0175689I0000000J0000591D01*
G01*
X0232008Y0182185D01*
G75*
G02*
X0232598Y0182776I0000591J0000000D01*
G01*
X0233780Y0182776D01*
G75*
G02*
X0234370Y0182185I0000000J-000591D01*
G01*
X0234370Y0175689D01*
G75*
G02*
X0233780Y0175098I-000591J0000000D01*
G01*
G37*
G36*
G01*
X0228780Y0175098D02*
X0227598Y0175098D01*
G75*
G02*
X0227008Y0175689I0000000J0000591D01*
G01*
X0227008Y0182185D01*
G75*
G02*
X0227598Y0182776I0000591J0000000D01*
G01*
X0228780Y0182776D01*
G75*
G02*
X0229370Y0182185I0000000J-000591D01*
G01*
X0229370Y0175689D01*
G75*
G02*
X0228780Y0175098I-000591J0000000D01*
G01*
G37*
G36*
G01*
X0223780Y0175098D02*
X0222598Y0175098D01*
G75*
G02*
X0222008Y0175689I0000000J0000591D01*
G01*
X0222008Y0182185D01*
G75*
G02*
X0222598Y0182776I0000591J0000000D01*
G01*
X0223780Y0182776D01*
G75*
G02*
X0224370Y0182185I0000000J-000591D01*
G01*
X0224370Y0175689D01*
G75*
G02*
X0223780Y0175098I-000591J0000000D01*
G01*
G37*
G36*
G01*
X0061417Y0129429D02*
X0061417Y0134350D01*
G75*
G02*
X0061811Y0134744I0000394J0000000D01*
G01*
X0064961Y0134744D01*
G75*
G02*
X0065354Y0134350I0000000J-000394D01*
G01*
X0065354Y0129429D01*
G75*
G02*
X0064961Y0129035I-000394J0000000D01*
G01*
X0061811Y0129035D01*
G75*
G02*
X0061417Y0129429I0000000J0000394D01*
G01*
G37*
G36*
G01*
X0068898Y0129429D02*
X0068898Y0134350D01*
G75*
G02*
X0069291Y0134744I0000394J0000000D01*
G01*
X0072441Y0134744D01*
G75*
G02*
X0072835Y0134350I0000000J-000394D01*
G01*
X0072835Y0129429D01*
G75*
G02*
X0072441Y0129035I-000394J0000000D01*
G01*
X0069291Y0129035D01*
G75*
G02*
X0068898Y0129429I0000000J0000394D01*
G01*
G37*
G36*
G01*
X0199828Y0092766D02*
X0197810Y0092766D01*
G75*
G02*
X0196949Y0093627I0000000J0000861D01*
G01*
X0196949Y0095349D01*
G75*
G02*
X0197810Y0096211I0000861J0000000D01*
G01*
X0199828Y0096211D01*
G75*
G02*
X0200689Y0095349I0000000J-000861D01*
G01*
X0200689Y0093627D01*
G75*
G02*
X0199828Y0092766I-000861J0000000D01*
G01*
G37*
G36*
G01*
X0199828Y0098967D02*
X0197810Y0098967D01*
G75*
G02*
X0196949Y0099828I0000000J0000861D01*
G01*
X0196949Y0101550D01*
G75*
G02*
X0197810Y0102411I0000861J0000000D01*
G01*
X0199828Y0102411D01*
G75*
G02*
X0200689Y0101550I0000000J-000861D01*
G01*
X0200689Y0099828D01*
G75*
G02*
X0199828Y0098967I-000861J0000000D01*
G01*
G37*
G36*
G01*
X0037815Y0121654D02*
X0040532Y0121654D01*
G75*
G02*
X0041437Y0120748I0000000J-000906D01*
G01*
X0041437Y0115472D01*
G75*
G02*
X0040532Y0114567I-000906J0000000D01*
G01*
X0037815Y0114567D01*
G75*
G02*
X0036909Y0115472I0000000J0000906D01*
G01*
X0036909Y0120748D01*
G75*
G02*
X0037815Y0121654I0000906J0000000D01*
G01*
G37*
G36*
G01*
X0026398Y0121654D02*
X0029114Y0121654D01*
G75*
G02*
X0030020Y0120748I0000000J-000906D01*
G01*
X0030020Y0115472D01*
G75*
G02*
X0029114Y0114567I-000906J0000000D01*
G01*
X0026398Y0114567D01*
G75*
G02*
X0025492Y0115472I0000000J0000906D01*
G01*
X0025492Y0120748D01*
G75*
G02*
X0026398Y0121654I0000906J0000000D01*
G01*
G37*
G36*
G01*
X0206260Y0130118D02*
X0203189Y0130118D01*
G75*
G02*
X0202913Y0130394I0000000J0000276D01*
G01*
X0202913Y0132598D01*
G75*
G02*
X0203189Y0132874I0000276J0000000D01*
G01*
X0206260Y0132874D01*
G75*
G02*
X0206535Y0132598I0000000J-000276D01*
G01*
X0206535Y0130394D01*
G75*
G02*
X0206260Y0130118I-000276J0000000D01*
G01*
G37*
G36*
G01*
X0206260Y0136417D02*
X0203189Y0136417D01*
G75*
G02*
X0202913Y0136693I0000000J0000276D01*
G01*
X0202913Y0138898D01*
G75*
G02*
X0203189Y0139173I0000276J0000000D01*
G01*
X0206260Y0139173D01*
G75*
G02*
X0206535Y0138898I0000000J-000276D01*
G01*
X0206535Y0136693D01*
G75*
G02*
X0206260Y0136417I-000276J0000000D01*
G01*
G37*
G36*
G01*
X0062402Y0119646D02*
X0062402Y0116575D01*
G75*
G02*
X0062126Y0116299I-000276J0000000D01*
G01*
X0059921Y0116299D01*
G75*
G02*
X0059646Y0116575I0000000J0000276D01*
G01*
X0059646Y0119646D01*
G75*
G02*
X0059921Y0119921I0000276J0000000D01*
G01*
X0062126Y0119921D01*
G75*
G02*
X0062402Y0119646I0000000J-000276D01*
G01*
G37*
G36*
G01*
X0056102Y0119646D02*
X0056102Y0116575D01*
G75*
G02*
X0055827Y0116299I-000276J0000000D01*
G01*
X0053622Y0116299D01*
G75*
G02*
X0053346Y0116575I0000000J0000276D01*
G01*
X0053346Y0119646D01*
G75*
G02*
X0053622Y0119921I0000276J0000000D01*
G01*
X0055827Y0119921D01*
G75*
G02*
X0056102Y0119646I0000000J-000276D01*
G01*
G37*
G36*
G01*
X0117618Y0381890D02*
X0122539Y0381890D01*
G75*
G02*
X0122933Y0381496I0000000J-000394D01*
G01*
X0122933Y0378346D01*
G75*
G02*
X0122539Y0377953I-000394J0000000D01*
G01*
X0117618Y0377953D01*
G75*
G02*
X0117224Y0378346I0000000J0000394D01*
G01*
X0117224Y0381496D01*
G75*
G02*
X0117618Y0381890I0000394J0000000D01*
G01*
G37*
G36*
G01*
X0117618Y0374409D02*
X0122539Y0374409D01*
G75*
G02*
X0122933Y0374016I0000000J-000394D01*
G01*
X0122933Y0370866D01*
G75*
G02*
X0122539Y0370472I-000394J0000000D01*
G01*
X0117618Y0370472D01*
G75*
G02*
X0117224Y0370866I0000000J0000394D01*
G01*
X0117224Y0374016D01*
G75*
G02*
X0117618Y0374409I0000394J0000000D01*
G01*
G37*
G36*
G01*
X0124547Y0155118D02*
X0123366Y0155118D01*
G75*
G02*
X0122776Y0155709I0000000J0000591D01*
G01*
X0122776Y0162205D01*
G75*
G02*
X0123366Y0162795I0000591J0000000D01*
G01*
X0124547Y0162795D01*
G75*
G02*
X0125138Y0162205I0000000J-000591D01*
G01*
X0125138Y0155709D01*
G75*
G02*
X0124547Y0155118I-000591J0000000D01*
G01*
G37*
G36*
G01*
X0129547Y0155118D02*
X0128366Y0155118D01*
G75*
G02*
X0127776Y0155709I0000000J0000591D01*
G01*
X0127776Y0162205D01*
G75*
G02*
X0128366Y0162795I0000591J0000000D01*
G01*
X0129547Y0162795D01*
G75*
G02*
X0130138Y0162205I0000000J-000591D01*
G01*
X0130138Y0155709D01*
G75*
G02*
X0129547Y0155118I-000591J0000000D01*
G01*
G37*
G36*
G01*
X0134547Y0155118D02*
X0133366Y0155118D01*
G75*
G02*
X0132776Y0155709I0000000J0000591D01*
G01*
X0132776Y0162205D01*
G75*
G02*
X0133366Y0162795I0000591J0000000D01*
G01*
X0134547Y0162795D01*
G75*
G02*
X0135138Y0162205I0000000J-000591D01*
G01*
X0135138Y0155709D01*
G75*
G02*
X0134547Y0155118I-000591J0000000D01*
G01*
G37*
G36*
G01*
X0139547Y0155118D02*
X0138366Y0155118D01*
G75*
G02*
X0137776Y0155709I0000000J0000591D01*
G01*
X0137776Y0162205D01*
G75*
G02*
X0138366Y0162795I0000591J0000000D01*
G01*
X0139547Y0162795D01*
G75*
G02*
X0140138Y0162205I0000000J-000591D01*
G01*
X0140138Y0155709D01*
G75*
G02*
X0139547Y0155118I-000591J0000000D01*
G01*
G37*
G36*
G01*
X0139547Y0174606D02*
X0138366Y0174606D01*
G75*
G02*
X0137776Y0175197I0000000J0000591D01*
G01*
X0137776Y0181693D01*
G75*
G02*
X0138366Y0182283I0000591J0000000D01*
G01*
X0139547Y0182283D01*
G75*
G02*
X0140138Y0181693I0000000J-000591D01*
G01*
X0140138Y0175197D01*
G75*
G02*
X0139547Y0174606I-000591J0000000D01*
G01*
G37*
G36*
G01*
X0134547Y0174606D02*
X0133366Y0174606D01*
G75*
G02*
X0132776Y0175197I0000000J0000591D01*
G01*
X0132776Y0181693D01*
G75*
G02*
X0133366Y0182283I0000591J0000000D01*
G01*
X0134547Y0182283D01*
G75*
G02*
X0135138Y0181693I0000000J-000591D01*
G01*
X0135138Y0175197D01*
G75*
G02*
X0134547Y0174606I-000591J0000000D01*
G01*
G37*
G36*
G01*
X0129547Y0174606D02*
X0128366Y0174606D01*
G75*
G02*
X0127776Y0175197I0000000J0000591D01*
G01*
X0127776Y0181693D01*
G75*
G02*
X0128366Y0182283I0000591J0000000D01*
G01*
X0129547Y0182283D01*
G75*
G02*
X0130138Y0181693I0000000J-000591D01*
G01*
X0130138Y0175197D01*
G75*
G02*
X0129547Y0174606I-000591J0000000D01*
G01*
G37*
G36*
G01*
X0124547Y0174606D02*
X0123366Y0174606D01*
G75*
G02*
X0122776Y0175197I0000000J0000591D01*
G01*
X0122776Y0181693D01*
G75*
G02*
X0123366Y0182283I0000591J0000000D01*
G01*
X0124547Y0182283D01*
G75*
G02*
X0125138Y0181693I0000000J-000591D01*
G01*
X0125138Y0175197D01*
G75*
G02*
X0124547Y0174606I-000591J0000000D01*
G01*
G37*
G36*
G01*
X0188543Y0078150D02*
X0185472Y0078150D01*
G75*
G02*
X0185197Y0078425I0000000J0000276D01*
G01*
X0185197Y0080630D01*
G75*
G02*
X0185472Y0080906I0000276J0000000D01*
G01*
X0188543Y0080906D01*
G75*
G02*
X0188819Y0080630I0000000J-000276D01*
G01*
X0188819Y0078425D01*
G75*
G02*
X0188543Y0078150I-000276J0000000D01*
G01*
G37*
G36*
G01*
X0188543Y0084449D02*
X0185472Y0084449D01*
G75*
G02*
X0185197Y0084724I0000000J0000276D01*
G01*
X0185197Y0086929D01*
G75*
G02*
X0185472Y0087205I0000276J0000000D01*
G01*
X0188543Y0087205D01*
G75*
G02*
X0188819Y0086929I0000000J-000276D01*
G01*
X0188819Y0084724D01*
G75*
G02*
X0188543Y0084449I-000276J0000000D01*
G01*
G37*
G36*
G01*
X0078150Y0119646D02*
X0078150Y0116575D01*
G75*
G02*
X0077874Y0116299I-000276J0000000D01*
G01*
X0075669Y0116299D01*
G75*
G02*
X0075394Y0116575I0000000J0000276D01*
G01*
X0075394Y0119646D01*
G75*
G02*
X0075669Y0119921I0000276J0000000D01*
G01*
X0077874Y0119921D01*
G75*
G02*
X0078150Y0119646I0000000J-000276D01*
G01*
G37*
G36*
G01*
X0071850Y0119646D02*
X0071850Y0116575D01*
G75*
G02*
X0071575Y0116299I-000276J0000000D01*
G01*
X0069370Y0116299D01*
G75*
G02*
X0069094Y0116575I0000000J0000276D01*
G01*
X0069094Y0119646D01*
G75*
G02*
X0069370Y0119921I0000276J0000000D01*
G01*
X0071575Y0119921D01*
G75*
G02*
X0071850Y0119646I0000000J-000276D01*
G01*
G37*
G36*
G01*
X0237756Y0129921D02*
X0234685Y0129921D01*
G75*
G02*
X0234409Y0130197I0000000J0000276D01*
G01*
X0234409Y0132402D01*
G75*
G02*
X0234685Y0132677I0000276J0000000D01*
G01*
X0237756Y0132677D01*
G75*
G02*
X0238031Y0132402I0000000J-000276D01*
G01*
X0238031Y0130197D01*
G75*
G02*
X0237756Y0129921I-000276J0000000D01*
G01*
G37*
G36*
G01*
X0237756Y0136220D02*
X0234685Y0136220D01*
G75*
G02*
X0234409Y0136496I0000000J0000276D01*
G01*
X0234409Y0138701D01*
G75*
G02*
X0234685Y0138976I0000276J0000000D01*
G01*
X0237756Y0138976D01*
G75*
G02*
X0238031Y0138701I0000000J-000276D01*
G01*
X0238031Y0136496D01*
G75*
G02*
X0237756Y0136220I-000276J0000000D01*
G01*
G37*
G36*
G01*
X0174237Y0092766D02*
X0172219Y0092766D01*
G75*
G02*
X0171358Y0093627I0000000J0000861D01*
G01*
X0171358Y0095349D01*
G75*
G02*
X0172219Y0096211I0000861J0000000D01*
G01*
X0174237Y0096211D01*
G75*
G02*
X0175098Y0095349I0000000J-000861D01*
G01*
X0175098Y0093627D01*
G75*
G02*
X0174237Y0092766I-000861J0000000D01*
G01*
G37*
G36*
G01*
X0174237Y0098967D02*
X0172219Y0098967D01*
G75*
G02*
X0171358Y0099828I0000000J0000861D01*
G01*
X0171358Y0101550D01*
G75*
G02*
X0172219Y0102411I0000861J0000000D01*
G01*
X0174237Y0102411D01*
G75*
G02*
X0175098Y0101550I0000000J-000861D01*
G01*
X0175098Y0099828D01*
G75*
G02*
X0174237Y0098967I-000861J0000000D01*
G01*
G37*
G36*
G01*
X0256339Y0139173D02*
X0259409Y0139173D01*
G75*
G02*
X0259685Y0138898I0000000J-000276D01*
G01*
X0259685Y0136693D01*
G75*
G02*
X0259409Y0136417I-000276J0000000D01*
G01*
X0256339Y0136417D01*
G75*
G02*
X0256063Y0136693I0000000J0000276D01*
G01*
X0256063Y0138898D01*
G75*
G02*
X0256339Y0139173I0000276J0000000D01*
G01*
G37*
G36*
G01*
X0256339Y0132874D02*
X0259409Y0132874D01*
G75*
G02*
X0259685Y0132598I0000000J-000276D01*
G01*
X0259685Y0130394D01*
G75*
G02*
X0259409Y0130118I-000276J0000000D01*
G01*
X0256339Y0130118D01*
G75*
G02*
X0256063Y0130394I0000000J0000276D01*
G01*
X0256063Y0132598D01*
G75*
G02*
X0256339Y0132874I0000276J0000000D01*
G01*
G37*
G36*
G01*
X0255276Y0155610D02*
X0254094Y0155610D01*
G75*
G02*
X0253504Y0156201I0000000J0000591D01*
G01*
X0253504Y0162697D01*
G75*
G02*
X0254094Y0163287I0000591J0000000D01*
G01*
X0255276Y0163287D01*
G75*
G02*
X0255866Y0162697I0000000J-000591D01*
G01*
X0255866Y0156201D01*
G75*
G02*
X0255276Y0155610I-000591J0000000D01*
G01*
G37*
G36*
G01*
X0260276Y0155610D02*
X0259094Y0155610D01*
G75*
G02*
X0258504Y0156201I0000000J0000591D01*
G01*
X0258504Y0162697D01*
G75*
G02*
X0259094Y0163287I0000591J0000000D01*
G01*
X0260276Y0163287D01*
G75*
G02*
X0260866Y0162697I0000000J-000591D01*
G01*
X0260866Y0156201D01*
G75*
G02*
X0260276Y0155610I-000591J0000000D01*
G01*
G37*
G36*
G01*
X0265276Y0155610D02*
X0264094Y0155610D01*
G75*
G02*
X0263504Y0156201I0000000J0000591D01*
G01*
X0263504Y0162697D01*
G75*
G02*
X0264094Y0163287I0000591J0000000D01*
G01*
X0265276Y0163287D01*
G75*
G02*
X0265866Y0162697I0000000J-000591D01*
G01*
X0265866Y0156201D01*
G75*
G02*
X0265276Y0155610I-000591J0000000D01*
G01*
G37*
G36*
G01*
X0270276Y0155610D02*
X0269094Y0155610D01*
G75*
G02*
X0268504Y0156201I0000000J0000591D01*
G01*
X0268504Y0162697D01*
G75*
G02*
X0269094Y0163287I0000591J0000000D01*
G01*
X0270276Y0163287D01*
G75*
G02*
X0270866Y0162697I0000000J-000591D01*
G01*
X0270866Y0156201D01*
G75*
G02*
X0270276Y0155610I-000591J0000000D01*
G01*
G37*
G36*
G01*
X0270276Y0175098D02*
X0269094Y0175098D01*
G75*
G02*
X0268504Y0175689I0000000J0000591D01*
G01*
X0268504Y0182185D01*
G75*
G02*
X0269094Y0182776I0000591J0000000D01*
G01*
X0270276Y0182776D01*
G75*
G02*
X0270866Y0182185I0000000J-000591D01*
G01*
X0270866Y0175689D01*
G75*
G02*
X0270276Y0175098I-000591J0000000D01*
G01*
G37*
G36*
G01*
X0265276Y0175098D02*
X0264094Y0175098D01*
G75*
G02*
X0263504Y0175689I0000000J0000591D01*
G01*
X0263504Y0182185D01*
G75*
G02*
X0264094Y0182776I0000591J0000000D01*
G01*
X0265276Y0182776D01*
G75*
G02*
X0265866Y0182185I0000000J-000591D01*
G01*
X0265866Y0175689D01*
G75*
G02*
X0265276Y0175098I-000591J0000000D01*
G01*
G37*
G36*
G01*
X0260276Y0175098D02*
X0259094Y0175098D01*
G75*
G02*
X0258504Y0175689I0000000J0000591D01*
G01*
X0258504Y0182185D01*
G75*
G02*
X0259094Y0182776I0000591J0000000D01*
G01*
X0260276Y0182776D01*
G75*
G02*
X0260866Y0182185I0000000J-000591D01*
G01*
X0260866Y0175689D01*
G75*
G02*
X0260276Y0175098I-000591J0000000D01*
G01*
G37*
G36*
G01*
X0255276Y0175098D02*
X0254094Y0175098D01*
G75*
G02*
X0253504Y0175689I0000000J0000591D01*
G01*
X0253504Y0182185D01*
G75*
G02*
X0254094Y0182776I0000591J0000000D01*
G01*
X0255276Y0182776D01*
G75*
G02*
X0255866Y0182185I0000000J-000591D01*
G01*
X0255866Y0175689D01*
G75*
G02*
X0255276Y0175098I-000591J0000000D01*
G01*
G37*
G36*
G01*
X0188017Y0092766D02*
X0185999Y0092766D01*
G75*
G02*
X0185138Y0093627I0000000J0000861D01*
G01*
X0185138Y0095349D01*
G75*
G02*
X0185999Y0096211I0000861J0000000D01*
G01*
X0188017Y0096211D01*
G75*
G02*
X0188878Y0095349I0000000J-000861D01*
G01*
X0188878Y0093627D01*
G75*
G02*
X0188017Y0092766I-000861J0000000D01*
G01*
G37*
G36*
G01*
X0188017Y0098967D02*
X0185999Y0098967D01*
G75*
G02*
X0185138Y0099828I0000000J0000861D01*
G01*
X0185138Y0101550D01*
G75*
G02*
X0185999Y0102411I0000861J0000000D01*
G01*
X0188017Y0102411D01*
G75*
G02*
X0188878Y0101550I0000000J-000861D01*
G01*
X0188878Y0099828D01*
G75*
G02*
X0188017Y0098967I-000861J0000000D01*
G01*
G37*
G36*
G01*
X0190315Y0155610D02*
X0189134Y0155610D01*
G75*
G02*
X0188543Y0156201I0000000J0000591D01*
G01*
X0188543Y0162697D01*
G75*
G02*
X0189134Y0163287I0000591J0000000D01*
G01*
X0190315Y0163287D01*
G75*
G02*
X0190906Y0162697I0000000J-000591D01*
G01*
X0190906Y0156201D01*
G75*
G02*
X0190315Y0155610I-000591J0000000D01*
G01*
G37*
G36*
G01*
X0195315Y0155610D02*
X0194134Y0155610D01*
G75*
G02*
X0193543Y0156201I0000000J0000591D01*
G01*
X0193543Y0162697D01*
G75*
G02*
X0194134Y0163287I0000591J0000000D01*
G01*
X0195315Y0163287D01*
G75*
G02*
X0195906Y0162697I0000000J-000591D01*
G01*
X0195906Y0156201D01*
G75*
G02*
X0195315Y0155610I-000591J0000000D01*
G01*
G37*
G36*
G01*
X0200315Y0155610D02*
X0199134Y0155610D01*
G75*
G02*
X0198543Y0156201I0000000J0000591D01*
G01*
X0198543Y0162697D01*
G75*
G02*
X0199134Y0163287I0000591J0000000D01*
G01*
X0200315Y0163287D01*
G75*
G02*
X0200906Y0162697I0000000J-000591D01*
G01*
X0200906Y0156201D01*
G75*
G02*
X0200315Y0155610I-000591J0000000D01*
G01*
G37*
G36*
G01*
X0205315Y0155610D02*
X0204134Y0155610D01*
G75*
G02*
X0203543Y0156201I0000000J0000591D01*
G01*
X0203543Y0162697D01*
G75*
G02*
X0204134Y0163287I0000591J0000000D01*
G01*
X0205315Y0163287D01*
G75*
G02*
X0205906Y0162697I0000000J-000591D01*
G01*
X0205906Y0156201D01*
G75*
G02*
X0205315Y0155610I-000591J0000000D01*
G01*
G37*
G36*
G01*
X0205315Y0175098D02*
X0204134Y0175098D01*
G75*
G02*
X0203543Y0175689I0000000J0000591D01*
G01*
X0203543Y0182185D01*
G75*
G02*
X0204134Y0182776I0000591J0000000D01*
G01*
X0205315Y0182776D01*
G75*
G02*
X0205906Y0182185I0000000J-000591D01*
G01*
X0205906Y0175689D01*
G75*
G02*
X0205315Y0175098I-000591J0000000D01*
G01*
G37*
G36*
G01*
X0200315Y0175098D02*
X0199134Y0175098D01*
G75*
G02*
X0198543Y0175689I0000000J0000591D01*
G01*
X0198543Y0182185D01*
G75*
G02*
X0199134Y0182776I0000591J0000000D01*
G01*
X0200315Y0182776D01*
G75*
G02*
X0200906Y0182185I0000000J-000591D01*
G01*
X0200906Y0175689D01*
G75*
G02*
X0200315Y0175098I-000591J0000000D01*
G01*
G37*
G36*
G01*
X0195315Y0175098D02*
X0194134Y0175098D01*
G75*
G02*
X0193543Y0175689I0000000J0000591D01*
G01*
X0193543Y0182185D01*
G75*
G02*
X0194134Y0182776I0000591J0000000D01*
G01*
X0195315Y0182776D01*
G75*
G02*
X0195906Y0182185I0000000J-000591D01*
G01*
X0195906Y0175689D01*
G75*
G02*
X0195315Y0175098I-000591J0000000D01*
G01*
G37*
G36*
G01*
X0190315Y0175098D02*
X0189134Y0175098D01*
G75*
G02*
X0188543Y0175689I0000000J0000591D01*
G01*
X0188543Y0182185D01*
G75*
G02*
X0189134Y0182776I0000591J0000000D01*
G01*
X0190315Y0182776D01*
G75*
G02*
X0190906Y0182185I0000000J-000591D01*
G01*
X0190906Y0175689D01*
G75*
G02*
X0190315Y0175098I-000591J0000000D01*
G01*
G37*
G36*
G01*
X0035413Y0171890D02*
X0035413Y0174567D01*
G75*
G02*
X0035748Y0174902I0000335J0000000D01*
G01*
X0038425Y0174902D01*
G75*
G02*
X0038760Y0174567I0000000J-000335D01*
G01*
X0038760Y0171890D01*
G75*
G02*
X0038425Y0171555I-000335J0000000D01*
G01*
X0035748Y0171555D01*
G75*
G02*
X0035413Y0171890I0000000J0000335D01*
G01*
G37*
G36*
G01*
X0041634Y0171890D02*
X0041634Y0174567D01*
G75*
G02*
X0041969Y0174902I0000335J0000000D01*
G01*
X0044646Y0174902D01*
G75*
G02*
X0044980Y0174567I0000000J-000335D01*
G01*
X0044980Y0171890D01*
G75*
G02*
X0044646Y0171555I-000335J0000000D01*
G01*
X0041969Y0171555D01*
G75*
G02*
X0041634Y0171890I0000000J0000335D01*
G01*
G37*
G36*
G01*
X0136240Y0138386D02*
X0139311Y0138386D01*
G75*
G02*
X0139587Y0138110I0000000J-000276D01*
G01*
X0139587Y0135906D01*
G75*
G02*
X0139311Y0135630I-000276J0000000D01*
G01*
X0136240Y0135630D01*
G75*
G02*
X0135965Y0135906I0000000J0000276D01*
G01*
X0135965Y0138110D01*
G75*
G02*
X0136240Y0138386I0000276J0000000D01*
G01*
G37*
G36*
G01*
X0136240Y0132087D02*
X0139311Y0132087D01*
G75*
G02*
X0139587Y0131811I0000000J-000276D01*
G01*
X0139587Y0129606D01*
G75*
G02*
X0139311Y0129331I-000276J0000000D01*
G01*
X0136240Y0129331D01*
G75*
G02*
X0135965Y0129606I0000000J0000276D01*
G01*
X0135965Y0131811D01*
G75*
G02*
X0136240Y0132087I0000276J0000000D01*
G01*
G37*
X0125197Y0340157D02*
G01*
G75*
D40*
X0266536Y0286810D02*
D03*
D39*
X0266536Y0300590D02*
D03*
D42*
X0160433Y0206692D02*
D03*
D37*
X0266536Y0248425D02*
D03*
X0125591Y0332677D02*
D03*
D38*
X0125591Y0218897D02*
D03*
X0266536Y0324409D02*
D03*
D35*
X0161221Y0339763D02*
D03*
D36*
X0129725Y0339763D02*
D03*
D34*
X0214961Y0339763D02*
D03*
D43*
X0137599Y0206692D02*
D03*
D41*
X0253150Y0206692D02*
D03*
D32*
X0232480Y0339763D02*
D03*
X0256496Y0339763D02*
D03*
D33*
X0244488Y0339763D02*
D03*
X0218898Y0206692D02*
D03*
D338*
X0143287Y0216535D02*
D03*
X0143287Y0209448D02*
D03*
X0133248Y0209448D02*
D03*
X0133248Y0216535D02*
D03*
X0192028Y0328346D02*
D03*
X0192028Y0335433D02*
D03*
X0181988Y0335433D02*
D03*
X0181988Y0328346D02*
D03*
X0198130Y0328346D02*
D03*
X0198130Y0335433D02*
D03*
X0208170Y0335433D02*
D03*
X0208170Y0328346D02*
D03*
D339*
X0139843Y0216535D02*
D03*
X0136693Y0216535D02*
D03*
X0136693Y0209448D02*
D03*
X0139843Y0209448D02*
D03*
X0185433Y0335433D02*
D03*
X0188583Y0335433D02*
D03*
X0188583Y0328346D02*
D03*
X0185433Y0328346D02*
D03*
X0201575Y0328346D02*
D03*
X0204725Y0328346D02*
D03*
X0204725Y0335433D02*
D03*
X0201575Y0335433D02*
D03*
D340*
X0140291Y0220747D02*
D03*
X0142850Y0220747D02*
D03*
X0145410Y0220747D02*
D03*
X0140291Y0228227D02*
D03*
X0145410Y0228227D02*
D03*
X0142850Y0228227D02*
D03*
X0135666Y0228227D02*
D03*
X0130547Y0228227D02*
D03*
X0135666Y0220747D02*
D03*
X0133106Y0220747D02*
D03*
X0130547Y0220747D02*
D03*
X0133106Y0228227D02*
D03*
D75*
X0239567Y0287955D02*
D03*
X0237599Y0287955D02*
D03*
X0235630Y0287955D02*
D03*
X0233662Y0287955D02*
D03*
X0231693Y0287955D02*
D03*
X0229725Y0287955D02*
D03*
X0227756Y0287955D02*
D03*
X0225788Y0287955D02*
D03*
X0223819Y0287955D02*
D03*
X0219882Y0287955D02*
D03*
X0217913Y0287955D02*
D03*
X0215945Y0287955D02*
D03*
X0213976Y0287955D02*
D03*
X0212008Y0287955D02*
D03*
X0210039Y0287955D02*
D03*
X0208071Y0287955D02*
D03*
X0206102Y0287955D02*
D03*
X0204134Y0287955D02*
D03*
X0202165Y0287955D02*
D03*
X0200197Y0287955D02*
D03*
X0198229Y0287955D02*
D03*
X0196260Y0287955D02*
D03*
X0194292Y0287955D02*
D03*
X0192323Y0287955D02*
D03*
X0192323Y0226931D02*
D03*
X0194292Y0226931D02*
D03*
X0196260Y0226931D02*
D03*
X0198229Y0226931D02*
D03*
X0200197Y0226931D02*
D03*
X0202165Y0226931D02*
D03*
X0204134Y0226931D02*
D03*
X0206102Y0226931D02*
D03*
X0208071Y0226931D02*
D03*
X0210039Y0226931D02*
D03*
X0212008Y0226931D02*
D03*
X0213976Y0226931D02*
D03*
X0215945Y0226931D02*
D03*
X0217913Y0226931D02*
D03*
X0219882Y0226931D02*
D03*
X0221850Y0226931D02*
D03*
X0223819Y0226931D02*
D03*
X0225788Y0226931D02*
D03*
X0227756Y0226931D02*
D03*
X0229725Y0226931D02*
D03*
X0231693Y0226931D02*
D03*
X0233662Y0226931D02*
D03*
X0235630Y0226931D02*
D03*
X0239567Y0226931D02*
D03*
X0221850Y0287955D02*
D03*
X0237599Y0226931D02*
D03*
D74*
X0185433Y0281065D02*
D03*
X0185433Y0277128D02*
D03*
X0185433Y0275159D02*
D03*
X0185433Y0273191D02*
D03*
X0185433Y0271222D02*
D03*
X0185433Y0269254D02*
D03*
X0185433Y0267285D02*
D03*
X0185433Y0265317D02*
D03*
X0185433Y0263348D02*
D03*
X0185433Y0261380D02*
D03*
X0185433Y0259411D02*
D03*
X0185433Y0257443D02*
D03*
X0185433Y0255474D02*
D03*
X0185433Y0253506D02*
D03*
X0185433Y0251537D02*
D03*
X0185433Y0249569D02*
D03*
X0185433Y0247600D02*
D03*
X0185433Y0245632D02*
D03*
X0185433Y0243663D02*
D03*
X0185433Y0241695D02*
D03*
X0185433Y0239726D02*
D03*
X0185433Y0237758D02*
D03*
X0185433Y0235789D02*
D03*
X0185433Y0233821D02*
D03*
X0246457Y0233821D02*
D03*
X0246457Y0235789D02*
D03*
X0246457Y0237758D02*
D03*
X0246457Y0239726D02*
D03*
X0246457Y0241695D02*
D03*
X0246457Y0243663D02*
D03*
X0246457Y0245632D02*
D03*
X0246457Y0247600D02*
D03*
X0246457Y0249569D02*
D03*
X0246457Y0251537D02*
D03*
X0246457Y0253506D02*
D03*
X0246457Y0255474D02*
D03*
X0246457Y0257443D02*
D03*
X0246457Y0259411D02*
D03*
X0246457Y0261380D02*
D03*
X0246457Y0263348D02*
D03*
X0246457Y0265317D02*
D03*
X0246457Y0267285D02*
D03*
X0246457Y0269254D02*
D03*
X0246457Y0271222D02*
D03*
X0246457Y0273191D02*
D03*
X0246457Y0275159D02*
D03*
X0246457Y0277128D02*
D03*
X0246457Y0279096D02*
D03*
X0246457Y0281065D02*
D03*
X0185433Y0279096D02*
D03*
D215*
X0168504Y0284448D02*
D03*
X0168504Y0256496D02*
D03*
X0168504Y0312401D02*
D03*
X0163386Y0306889D02*
D03*
X0173622Y0278936D02*
D03*
X0171063Y0278936D02*
D03*
X0168504Y0278936D02*
D03*
X0165945Y0278936D02*
D03*
X0163386Y0278936D02*
D03*
X0160827Y0278936D02*
D03*
X0158268Y0278936D02*
D03*
X0173622Y0256496D02*
D03*
X0171063Y0256496D02*
D03*
X0165945Y0256496D02*
D03*
X0163386Y0256496D02*
D03*
X0160827Y0256496D02*
D03*
X0158268Y0256496D02*
D03*
X0173622Y0334842D02*
D03*
X0171063Y0334842D02*
D03*
X0168504Y0334842D02*
D03*
X0165945Y0334842D02*
D03*
X0163386Y0334842D02*
D03*
X0160827Y0334842D02*
D03*
X0158268Y0334842D02*
D03*
X0173622Y0312401D02*
D03*
X0171063Y0312401D02*
D03*
X0165945Y0312401D02*
D03*
X0163386Y0312401D02*
D03*
X0160827Y0312401D02*
D03*
X0158268Y0312401D02*
D03*
X0173622Y0306889D02*
D03*
X0171063Y0306889D02*
D03*
X0168504Y0306889D02*
D03*
X0165945Y0306889D02*
D03*
X0160827Y0306889D02*
D03*
X0158268Y0306889D02*
D03*
X0173622Y0284448D02*
D03*
X0171063Y0284448D02*
D03*
X0165945Y0284448D02*
D03*
X0163386Y0284448D02*
D03*
X0160827Y0284448D02*
D03*
X0158268Y0284448D02*
D03*
X0158268Y0228543D02*
D03*
X0160827Y0228543D02*
D03*
X0163386Y0228543D02*
D03*
X0165945Y0228543D02*
D03*
X0168504Y0228543D02*
D03*
X0171063Y0228543D02*
D03*
X0173622Y0228543D02*
D03*
X0158268Y0250984D02*
D03*
X0160827Y0250984D02*
D03*
X0163386Y0250984D02*
D03*
X0165945Y0250984D02*
D03*
X0168504Y0250984D02*
D03*
X0171063Y0250984D02*
D03*
X0173622Y0250984D02*
D03*
D341*
X0260630Y0215748D02*
D03*
X0260630Y0212007D02*
D03*
X0260630Y0219488D02*
D03*
X0251181Y0219488D02*
D03*
X0251181Y0215748D02*
D03*
X0251181Y0212007D02*
D03*
D342*
X0239370Y0214298D02*
D03*
X0244095Y0214298D02*
D03*
X0229823Y0215767D02*
D03*
X0256608Y0302307D02*
D03*
X0180742Y0288995D02*
D03*
X0239370Y0218234D02*
D03*
X0229823Y0211829D02*
D03*
X0192839Y0217129D02*
D03*
X0192839Y0213192D02*
D03*
X0183784Y0217129D02*
D03*
X0183784Y0213192D02*
D03*
X0244095Y0218234D02*
D03*
X0256608Y0298370D02*
D03*
X0239893Y0305447D02*
D03*
X0239893Y0301510D02*
D03*
X0180742Y0285058D02*
D03*
X0185038Y0285039D02*
D03*
X0185038Y0288976D02*
D03*
D80*
X0221188Y0211841D02*
D03*
X0219220Y0211841D02*
D03*
X0223157Y0218140D02*
D03*
X0221188Y0218140D02*
D03*
X0225125Y0218140D02*
D03*
X0219220Y0218140D02*
D03*
X0225125Y0211841D02*
D03*
X0223157Y0211841D02*
D03*
D79*
X0219023Y0214006D02*
D03*
X0219023Y0215975D02*
D03*
X0225322Y0215975D02*
D03*
X0225322Y0214006D02*
D03*
D343*
X0214173Y0216746D02*
D03*
X0197638Y0216746D02*
D03*
D344*
X0141732Y0245275D02*
D03*
X0141732Y0235826D02*
D03*
X0141732Y0240551D02*
D03*
X0141732Y0249999D02*
D03*
X0130315Y0235826D02*
D03*
X0130315Y0245275D02*
D03*
X0130315Y0240551D02*
D03*
X0130315Y0249999D02*
D03*
X0148712Y0256209D02*
D03*
X0152649Y0256209D02*
D03*
X0134252Y0249999D02*
D03*
D03*
X0138189Y0249999D02*
D03*
X0134252Y0245275D02*
D03*
X0138189Y0245275D02*
D03*
X0145669Y0249999D02*
D03*
X0134252Y0240551D02*
D03*
X0138189Y0240551D02*
D03*
X0145669Y0245275D02*
D03*
X0145669Y0240551D02*
D03*
X0134252Y0235826D02*
D03*
X0138189Y0235826D02*
D03*
X0134252Y0235826D02*
D03*
X0145669Y0235826D02*
D03*
X0134252Y0245275D02*
D03*
X0134252Y0240551D02*
D03*
X0136614Y0336023D02*
D03*
X0132677Y0336023D02*
D03*
X0134252Y0311417D02*
D03*
X0130315Y0311417D02*
D03*
X0134252Y0297244D02*
D03*
X0130315Y0297244D02*
D03*
X0138189Y0278346D02*
D03*
X0134252Y0278346D02*
D03*
X0130315Y0278346D02*
D03*
X0134252Y0278346D02*
D03*
X0138189Y0264173D02*
D03*
X0134252Y0264173D02*
D03*
X0153347Y0336023D02*
D03*
X0149410Y0336023D02*
D03*
X0134252Y0330314D02*
D03*
X0138189Y0330314D02*
D03*
X0134252Y0325590D02*
D03*
X0138189Y0325590D02*
D03*
X0134252Y0320866D02*
D03*
X0138189Y0320866D02*
D03*
X0134252Y0316141D02*
D03*
X0138189Y0316141D02*
D03*
X0134252Y0330314D02*
D03*
X0130315Y0330314D02*
D03*
X0134252Y0325590D02*
D03*
X0130315Y0325590D02*
D03*
X0134252Y0320866D02*
D03*
X0130315Y0320866D02*
D03*
X0134252Y0316141D02*
D03*
X0130315Y0316141D02*
D03*
X0134252Y0311417D02*
D03*
X0138189Y0311417D02*
D03*
X0134252Y0306692D02*
D03*
X0138189Y0306692D02*
D03*
X0134252Y0301968D02*
D03*
X0138189Y0301968D02*
D03*
X0134252Y0297244D02*
D03*
X0138189Y0297244D02*
D03*
X0134252Y0306692D02*
D03*
X0130315Y0306692D02*
D03*
X0134252Y0301968D02*
D03*
X0130315Y0301968D02*
D03*
X0138189Y0292519D02*
D03*
X0134252Y0292519D02*
D03*
X0138189Y0287795D02*
D03*
X0134252Y0287795D02*
D03*
X0138189Y0283070D02*
D03*
X0134252Y0283070D02*
D03*
X0130315Y0292519D02*
D03*
X0134252Y0292519D02*
D03*
X0130315Y0287795D02*
D03*
X0134252Y0287795D02*
D03*
X0130315Y0283070D02*
D03*
X0134252Y0283070D02*
D03*
X0138189Y0273621D02*
D03*
X0134252Y0273621D02*
D03*
X0138189Y0268897D02*
D03*
X0134252Y0268897D02*
D03*
X0138189Y0259448D02*
D03*
X0134252Y0259448D02*
D03*
X0130315Y0273621D02*
D03*
X0134252Y0273621D02*
D03*
X0130315Y0268897D02*
D03*
X0134252Y0268897D02*
D03*
X0130315Y0264173D02*
D03*
X0134252Y0264173D02*
D03*
X0130315Y0259448D02*
D03*
X0134252Y0259448D02*
D03*
X0144291Y0336023D02*
D03*
X0140354Y0336023D02*
D03*
D345*
X0147244Y0271259D02*
D03*
X0147244Y0290157D02*
D03*
X0147244Y0309055D02*
D03*
X0147244Y0327952D02*
D03*
X0150984Y0299606D02*
D03*
X0147244Y0299606D02*
D03*
X0143504Y0299606D02*
D03*
X0143504Y0309055D02*
D03*
X0150984Y0309055D02*
D03*
X0150984Y0318503D02*
D03*
X0147244Y0318503D02*
D03*
X0143504Y0318503D02*
D03*
X0143504Y0327952D02*
D03*
X0150984Y0327952D02*
D03*
X0150984Y0280708D02*
D03*
X0147244Y0280708D02*
D03*
X0143504Y0280708D02*
D03*
X0143504Y0290157D02*
D03*
X0150984Y0290157D02*
D03*
X0150984Y0261810D02*
D03*
X0147244Y0261810D02*
D03*
X0143504Y0261810D02*
D03*
X0143504Y0271259D02*
D03*
X0150984Y0271259D02*
D03*
D346*
X0244279Y0305244D02*
D03*
X0254528Y0287322D02*
D03*
D222*
X0219156Y0314566D02*
D03*
X0214156Y0333464D02*
D03*
X0229156Y0333464D02*
D03*
X0224156Y0333464D02*
D03*
X0219156Y0333464D02*
D03*
X0229156Y0314566D02*
D03*
X0224156Y0314566D02*
D03*
X0214156Y0314566D02*
D03*
D347*
X0236797Y0332874D02*
D03*
X0236797Y0314763D02*
D03*
D348*
X0205271Y0298412D02*
D03*
X0204723Y0314621D02*
D03*
X0197111Y0297935D02*
D03*
X0189500Y0297935D02*
D03*
X0197111Y0314621D02*
D03*
X0189500Y0314621D02*
D03*
X0181888Y0297935D02*
D03*
X0181888Y0314621D02*
D03*
X0205271Y0305105D02*
D03*
X0197111Y0304628D02*
D03*
X0189500Y0304628D02*
D03*
X0181888Y0304628D02*
D03*
X0197111Y0321314D02*
D03*
X0204723Y0321314D02*
D03*
X0213248Y0305105D02*
D03*
X0213248Y0298412D02*
D03*
X0220335Y0298412D02*
D03*
X0220335Y0305105D02*
D03*
X0227421Y0305105D02*
D03*
X0227421Y0298412D02*
D03*
X0234508Y0298412D02*
D03*
X0234508Y0305105D02*
D03*
X0189500Y0321314D02*
D03*
X0181888Y0321314D02*
D03*
X0262008Y0298412D02*
D03*
X0262008Y0305105D02*
D03*
D349*
X0234595Y0211738D02*
D03*
X0234595Y0218038D02*
D03*
X0188154Y0219098D02*
D03*
X0188154Y0212798D02*
D03*
D350*
X0257537Y0252363D02*
D03*
X0257537Y0268898D02*
D03*
D346*
X0262008Y0287322D02*
D03*
X0258268Y0278070D02*
D03*
X0251759Y0305244D02*
D03*
X0248019Y0295992D02*
D03*
D351*
X0261207Y0323818D02*
D03*
D352*
X0236797Y0323818D02*
D03*
D45*
X0134252Y0254527D02*
D03*
X0128347Y0335433D02*
D03*
D353*
X0151994Y0217336D02*
D03*
X0169710Y0217336D02*
D03*
X0022146Y0024508D02*
G01*
G75*
D166*
X0067225Y0048875D02*
D03*
X0067225Y0031158D02*
D03*
D167*
X0063898Y0073327D02*
D03*
X0036536Y0073327D02*
D03*
D168*
X0052658Y0050099D02*
D03*
X0036516Y0050099D02*
D03*
D169*
X0054429Y0031988D02*
D03*
X0038681Y0031988D02*
D03*
D170*
X0031490Y0093766D02*
D03*
X0040742Y0090026D02*
D03*
D170*
X0040742Y0097506D02*
D03*
D171*
X0063577Y0103445D02*
D03*
D171*
X0063577Y0099705D02*
D03*
X0063577Y0095965D02*
D03*
X0072041Y0095965D02*
D03*
X0072041Y0103445D02*
D03*
D140*
X0075893Y0089444D02*
D03*
X0062901Y0089444D02*
D03*
D145*
X0057607Y0089732D02*
D03*
X0046189Y0089732D02*
D03*
D131*
X0076792Y0057185D02*
D03*
X0070571Y0057185D02*
D03*
X0066201Y0057185D02*
D03*
X0059981Y0057185D02*
D03*
D172*
X0026115Y0034296D02*
D03*
X0026115Y0038430D02*
D03*
X0076670Y0076170D02*
D03*
X0076670Y0080304D02*
D03*
X0076670Y0071457D02*
D03*
X0076670Y0067323D02*
D03*
X0077562Y0051808D02*
D03*
X0077562Y0047674D02*
D03*
D173*
X0058459Y0096015D02*
D03*
X0058459Y0099952D02*
D03*
X0044784Y0096917D02*
D03*
X0053445Y0096917D02*
D03*
X0044784Y0103314D02*
D03*
X0053445Y0103314D02*
D03*
D174*
X0036411Y0103445D02*
D03*
X0039955Y0103445D02*
D03*
D175*
X0072412Y0080107D02*
D03*
X0072412Y0076563D02*
D03*
X0072412Y0071063D02*
D03*
X0072412Y0067520D02*
D03*
X0077562Y0039507D02*
D03*
X0077562Y0043051D02*
D03*
X0339665Y0019783D02*
%LPD*%
G01*
D396*
X0326673Y0053641D03*
X0328641Y0053641D03*
X0330610Y0053641D03*
X0332578Y0053641D03*
X0334547Y0053641D03*
X0334547Y0070964D03*
X0332578Y0070964D03*
X0330610Y0070964D03*
X0328641Y0070964D03*
X0326673Y0070964D03*
G36*
G01*
X0313484Y0061161D02*
X0313484Y0064232D01*
G75*
G02*
X0313759Y0064507I0000276J0000000D01*
G01*
X0315964Y0064507D01*
G75*
G02*
X0316240Y0064232I0000000J-000276D01*
G01*
X0316240Y0061161D01*
G75*
G02*
X0315964Y0060885I-000276J0000000D01*
G01*
X0313759Y0060885D01*
G75*
G02*
X0313484Y0061161I0000000J0000276D01*
G01*
G37*
G36*
G01*
X0319783Y0061161D02*
X0319783Y0064232D01*
G75*
G02*
X0320059Y0064507I0000276J0000000D01*
G01*
X0322263Y0064507D01*
G75*
G02*
X0322539Y0064232I0000000J-000276D01*
G01*
X0322539Y0061161D01*
G75*
G02*
X0322263Y0060885I-000276J0000000D01*
G01*
X0320059Y0060885D01*
G75*
G02*
X0319783Y0061161I0000000J0000276D01*
G01*
G37*
G36*
G01*
X0306830Y0075492D02*
X0309901Y0075492D01*
G75*
G02*
X0310177Y0075216I0000000J-000276D01*
G01*
X0310177Y0073011D01*
G75*
G02*
X0309901Y0072736I-000276J0000000D01*
G01*
X0306830Y0072736D01*
G75*
G02*
X0306555Y0073011I0000000J0000276D01*
G01*
X0306555Y0075216D01*
G75*
G02*
X0306830Y0075492I0000276J0000000D01*
G01*
G37*
G36*
G01*
X0306830Y0069192D02*
X0309901Y0069192D01*
G75*
G02*
X0310177Y0068917I0000000J-000276D01*
G01*
X0310177Y0066712D01*
G75*
G02*
X0309901Y0066437I-000276J0000000D01*
G01*
X0306830Y0066437D01*
G75*
G02*
X0306555Y0066712I0000000J0000276D01*
G01*
X0306555Y0068917D01*
G75*
G02*
X0306830Y0069192I0000276J0000000D01*
G01*
G37*
G36*
G01*
X0313484Y0055255D02*
X0313484Y0058326D01*
G75*
G02*
X0313759Y0058602I0000276J0000000D01*
G01*
X0315964Y0058602D01*
G75*
G02*
X0316240Y0058326I0000000J-000276D01*
G01*
X0316240Y0055255D01*
G75*
G02*
X0315964Y0054980I-000276J0000000D01*
G01*
X0313759Y0054980D01*
G75*
G02*
X0313484Y0055255I0000000J0000276D01*
G01*
G37*
G36*
G01*
X0319783Y0055255D02*
X0319783Y0058326D01*
G75*
G02*
X0320059Y0058602I0000276J0000000D01*
G01*
X0322263Y0058602D01*
G75*
G02*
X0322539Y0058326I0000000J-000276D01*
G01*
X0322539Y0055255D01*
G75*
G02*
X0322263Y0054980I-000276J0000000D01*
G01*
X0320059Y0054980D01*
G75*
G02*
X0319783Y0055255I0000000J0000276D01*
G01*
G37*
G36*
G01*
X0307160Y0063582D02*
X0309178Y0063582D01*
G75*
G02*
X0310039Y0062721I0000000J-000861D01*
G01*
X0310039Y0060999D01*
G75*
G02*
X0309178Y0060137I-000861J0000000D01*
G01*
X0307160Y0060137D01*
G75*
G02*
X0306299Y0060999I0000000J0000861D01*
G01*
X0306299Y0062721D01*
G75*
G02*
X0307160Y0063582I0000861J0000000D01*
G01*
G37*
G36*
G01*
X0307160Y0057381D02*
X0309178Y0057381D01*
G75*
G02*
X0310039Y0056520I0000000J-000861D01*
G01*
X0310039Y0054798D01*
G75*
G02*
X0309178Y0053937I-000861J0000000D01*
G01*
X0307160Y0053937D01*
G75*
G02*
X0306299Y0054798I0000000J0000861D01*
G01*
X0306299Y0056520D01*
G75*
G02*
X0307160Y0057381I0000861J0000000D01*
G01*
G37*
G36*
G01*
X0314122Y0069527D02*
X0316799Y0069527D01*
G75*
G02*
X0317134Y0069192I0000000J-000335D01*
G01*
X0317134Y0066515D01*
G75*
G02*
X0316799Y0066181I-000335J0000000D01*
G01*
X0314122Y0066181D01*
G75*
G02*
X0313787Y0066515I0000000J0000335D01*
G01*
X0313787Y0069192D01*
G75*
G02*
X0314122Y0069527I0000335J0000000D01*
G01*
G37*
G36*
G01*
X0314122Y0075748D02*
X0316799Y0075748D01*
G75*
G02*
X0317134Y0075413I0000000J-000335D01*
G01*
X0317134Y0072736D01*
G75*
G02*
X0316799Y0072401I-000335J0000000D01*
G01*
X0314122Y0072401D01*
G75*
G02*
X0313787Y0072736I0000000J0000335D01*
G01*
X0313787Y0075413D01*
G75*
G02*
X0314122Y0075748I0000335J0000000D01*
G01*
G37*
G36*
G01*
X0319429Y0075748D02*
X0322106Y0075748D01*
G75*
G02*
X0322441Y0075413I0000000J-000335D01*
G01*
X0322441Y0072736D01*
G75*
G02*
X0322106Y0072401I-000335J0000000D01*
G01*
X0319429Y0072401D01*
G75*
G02*
X0319094Y0072736I0000000J0000335D01*
G01*
X0319094Y0075413D01*
G75*
G02*
X0319429Y0075748I0000335J0000000D01*
G01*
G37*
G36*
G01*
X0319429Y0069527D02*
X0322106Y0069527D01*
G75*
G02*
X0322441Y0069192I0000000J-000335D01*
G01*
X0322441Y0066515D01*
G75*
G02*
X0322106Y0066181I-000335J0000000D01*
G01*
X0319429Y0066181D01*
G75*
G02*
X0319094Y0066515I0000000J0000335D01*
G01*
X0319094Y0069192D01*
G75*
G02*
X0319429Y0069527I0000335J0000000D01*
G01*
G37*
G36*
G01*
X0313228Y0050334D02*
X0313228Y0053011D01*
G75*
G02*
X0313563Y0053346I0000335J0000000D01*
G01*
X0316240Y0053346D01*
G75*
G02*
X0316574Y0053011I0000000J-000335D01*
G01*
X0316574Y0050334D01*
G75*
G02*
X0316240Y0050000I-000335J0000000D01*
G01*
X0313563Y0050000D01*
G75*
G02*
X0313228Y0050334I0000000J0000335D01*
G01*
G37*
G36*
G01*
X0319448Y0050334D02*
X0319448Y0053011D01*
G75*
G02*
X0319783Y0053346I0000335J0000000D01*
G01*
X0322460Y0053346D01*
G75*
G02*
X0322795Y0053011I0000000J-000335D01*
G01*
X0322795Y0050334D01*
G75*
G02*
X0322460Y0050000I-000335J0000000D01*
G01*
X0319783Y0050000D01*
G75*
G02*
X0319448Y0050334I0000000J0000335D01*
G01*
G37*
M02*
