M48
INCH,TZ
T01C0.013750
T02C0.030750
T03C0.039200
T04C0.057100
%
T01
X8789Y4262
X8789Y3868
X12638Y33740
X12638Y32795
X12638Y32323
X12638Y31850
X12638Y31378
X12638Y30906
X12638Y30433
X12638Y29961
X12638Y29488
X12638Y29016
X12638Y28543
X12638Y28071
X12638Y27598
X12638Y27126
X12638Y26654
X12638Y26181
X12638Y25709
X12638Y25236
X12638Y24764
X12638Y24291
X12638Y23819
X12638Y23346
X13622Y33898
X14016Y33898
X15197Y20748
X16890Y20748
X17205Y20748
X17520Y20748
X17835Y20748
X18150Y20748
X18228Y33898
X18465Y20748
X18622Y33898
X18780Y20748
X19016Y33898
X19094Y20748
X19409Y33898
X19409Y20748
X19724Y20748
X19803Y33898
X20039Y20748
X20197Y33898
X20354Y20748
X20591Y33898
X20669Y20748
X20984Y33898
X20984Y20748
X21299Y20748
X21614Y20748
X22008Y33898
X22165Y20748
X22323Y33898
X22480Y20748
X22795Y20748
X23110Y20748
X23425Y20748
X23740Y20748
X24173Y33898
X24724Y33898
X26575Y33898
X26575Y30984
X26575Y30591
X26575Y29528
X26575Y27835
X26575Y27520
X26575Y25630
X26575Y25315
X26575Y24370
X26575Y24055
X26575Y23740
X26575Y23425
X26575Y27205
X26575Y26890
X26575Y26575
X26575Y26260
X26575Y25945
X26575Y23110
X26575Y22795
X26575Y22480
X26575Y22165
X26575Y21850
X26575Y21535
X26575Y21220
X26575Y20906
X30305Y7805
X30778Y7805
X31250Y7805
X31722Y7805
X32848Y2126
X33242Y2126
X591Y42323
X984Y41929
X1378Y41535
X1575Y8661
X4331Y37402
X4724Y37402
X5118Y37402
X5512Y37402
X5906Y38386
X5906Y37402
X5906Y19669
X6299Y37402
X6693Y37402
X7087Y37402
X7087Y29921
X7087Y28543
X7087Y20472
X7087Y13189
X7480Y37402
X7480Y29921
X7480Y20472
X7874Y37402
X7874Y29921
X7874Y20472
X8268Y37402
X8268Y20472
X9449Y4724
X9843Y33661
X10236Y34055
X10276Y33268
X10276Y32087
X11220Y25197
X11220Y19488
X11417Y13189
X11614Y25197
X12008Y37244
X12008Y25197
X12008Y22835
X12008Y22441
X12008Y22047
X12008Y21654
X12008Y21260
X12008Y20866
X12205Y33465
X12402Y18701
X12598Y12008
X12598Y11614
X12598Y11220
X12598Y10827
X12598Y10433
X12598Y10039
X12795Y18701
X13189Y18701
X13583Y18701
X13976Y18701
X14370Y34646
X14567Y11417
X15945Y20079
X16142Y40945
X16142Y34843
X16339Y20079
X16535Y34843
X16732Y20079
X16732Y9055
X16732Y7283
X16929Y34843
X17717Y9055
X17717Y7283
X18307Y9055
X18307Y7283
X19291Y18898
X20079Y18898
X20472Y12402
X20472Y9449
X20669Y8465
X20866Y11949
X20866Y9449
X21457Y9449
X21998Y8415
X22047Y19488
X22441Y19488
X22441Y18898
X23228Y34646
X23228Y18898
X24409Y17717
X24409Y17323
X24409Y16929
X26378Y35236
X26575Y18898
X26969Y24803
X26969Y18898
X27362Y29134
X27362Y28740
X27362Y28346
X27362Y26772
X27362Y26378
X27362Y25984
X27362Y24803
X27362Y18898
X28740Y41142
X30315Y41142
X30512Y1772
X30880Y27782
X30906Y1772
X31496Y1772
X31890Y1772
X32874Y866
X33858Y28740
X34055Y28346
X34252Y28740
X34252Y27953
X34449Y27559
X34646Y30118
X34646Y28740
X34646Y27165
X34843Y27559
X34843Y26772
X35039Y29921
X35039Y28740
X35039Y27165
X35039Y26378
X35236Y29528
X35236Y29134
X35236Y27559
X35236Y26772
X35236Y25984
X35433Y28740
X35433Y27165
X35433Y26378
X35630Y27559
X35630Y26772
X35827Y28740
X35827Y27165
X36024Y27559
X36220Y28740
X36220Y27953
X36417Y41732
X36417Y28346
X36614Y28740
X36614Y1378
X36811Y41929
X36811Y41535
X37008Y1575
X37008Y1181
X37205Y42126
X37205Y41732
X37205Y41339
X37402Y1772
X37402Y1378
X37402Y984
X37598Y42323
X37598Y41929
X37598Y41535
X37598Y41142
X37795Y1969
X37795Y1575
X37795Y1181
X37795Y787
X37992Y42520
X37992Y42126
X37992Y41732
X37992Y41339
X37992Y40945
X38189Y2165
X38189Y1772
X38189Y1378
X38189Y984
X38189Y591
X12638Y33740
X12669Y33264
X12859Y33032
X12638Y32796
X12839Y32559
X12638Y32323
X12839Y32087
X12638Y31851
X12839Y31614
X12638Y31378
X12839Y31142
X12638Y30906
X12839Y30670
X12638Y30433
X12839Y30197
X12638Y29961
X12839Y29725
X12638Y29488
X12839Y29252
X12638Y29016
X12839Y28780
X12638Y28544
X12839Y28307
X12638Y28071
X12839Y27835
X12638Y27599
X12839Y27362
X12638Y27126
X12839Y26890
X12638Y26654
X12839Y26418
X12638Y26181
X12839Y25945
X12638Y25709
X12839Y25473
X12638Y25236
X12839Y25000
X12638Y24764
X12839Y24528
X12638Y24292
X12839Y24055
X12638Y23819
X12839Y23583
X12638Y23347
X12796Y23032
X13331Y23039
X13525Y23466
X13535Y23917
X13542Y24359
X13540Y24832
X14587Y25337
X14587Y25647
X14114Y25894
X14317Y26492
X14326Y26788
X14597Y26631
X15279Y26514
X15547Y26769
X16088Y26866
X16088Y26427
X15968Y25967
X16300Y25967
X16595Y25967
X16886Y25973
X17570Y25643
X17566Y25098
X18150Y25236
X18071Y25866
X18903Y25936
X19289Y25951
X19095Y26299
X18895Y26533
X19328Y26790
X19629Y27483
X19646Y28081
X19350Y28428
X19525Y29203
X18970Y29185
X18423Y29195
X18550Y29903
X19349Y29858
X20114Y29884
X20924Y29906
X20964Y29203
X20679Y29203
X20394Y29203
X21265Y29203
X21581Y28415
X21866Y28428
X22164Y28460
X22646Y28410
X22697Y28006
X23175Y27376
X23163Y26999
X23307Y26063
X22707Y25738
X22910Y25530
X22383Y25548
X22336Y25190
X22152Y25741
X21009Y25947
X20780Y26170
X20097Y26216
X20086Y26507
X19878Y26020
X19878Y25351
X19689Y24485
X19475Y24291
X19271Y24087
X19069Y23885
X19882Y23888
X20347Y24335
X21048Y24348
X20950Y23972
X21418Y24095
X21955Y24297
X22181Y24057
X22579Y23863
X22835Y24055
X23218Y24156
X23524Y24196
X23426Y23898
X23224Y23394
X22923Y23338
X22361Y23394
X22116Y23247
X21733Y23504
X21242Y23522
X20850Y22294
X20536Y21984
X20315Y22166
X19795Y22201
X19725Y20748
X20040Y20748
X20355Y20748
X20670Y20748
X20985Y20748
X21300Y20748
X21614Y20748
X21892Y20887
X22166Y20748
X22481Y20748
X22796Y20748
X23111Y20748
X23426Y20748
X23740Y20748
X23828Y21105
X24072Y20888
X24774Y21197
X25709Y21201
X25753Y21574
X25468Y21576
X25709Y21949
X26575Y21851
X26575Y22166
X26575Y22481
X26575Y22796
X26575Y23110
X26575Y23425
X26575Y23740
X26575Y24055
X26575Y24370
X26378Y24961
X26575Y25315
X26575Y25630
X26575Y25945
X26575Y26260
X26575Y26575
X26575Y26890
X26575Y27205
X26575Y27520
X26575Y27835
X26536Y28347
X25881Y28253
X25845Y28651
X25890Y28996
X25588Y29275
X26343Y29217
X26575Y29528
X26575Y30591
X26575Y30985
X26551Y31346
X26088Y31338
X25643Y31568
X24770Y31649
X24993Y32089
X25305Y30903
X25624Y30440
X24773Y30483
X24725Y30040
X24297Y29555
X24012Y29547
X23652Y29479
X23356Y29476
X23455Y30206
X23071Y30197
X22746Y30206
X22418Y29867
X22038Y30206
X21686Y30190
X21391Y30210
X21709Y29893
X22137Y30888
X22581Y30891
X22437Y32067
X21916Y32047
X21527Y32048
X21062Y31223
X21101Y30923
X20648Y30900
X20361Y30900
X20074Y30900
X19658Y30900
X19372Y30900
X18948Y30882
X18640Y30882
X18351Y30882
X17611Y30658
X17516Y30378
X17121Y30066
X16801Y30364
X16235Y30364
X15949Y30371
X15288Y30280
X14543Y30483
X14311Y30315
X14276Y30615
X14112Y31240
X14112Y31536
X14317Y32162
X14317Y32448
X14600Y32284
X15276Y32180
X15545Y32339
X16122Y32519
X16122Y32043
X15968Y31557
X16300Y31557
X16595Y31557
X16886Y31564
X17108Y32327
X17485Y32323
X17493Y33126
X17159Y33099
X17591Y33394
X17634Y33873
X18229Y33898
X18622Y33898
X19016Y33898
X19410Y33898
X19803Y33898
X20197Y33898
X20591Y33898
X20985Y33898
X21614Y33859
X22008Y33898
X22323Y33898
X22697Y33898
X23180Y33770
X23544Y33859
X24174Y33898
X24284Y33614
X24725Y33898
X25887Y33877
X26575Y33898
X23307Y32874
X23012Y32748
X23497Y31879
X23789Y29887
X24237Y29010
X24626Y28878
X24555Y28540
X24233Y28117
X24134Y27677
X24212Y26936
X25148Y26408
X25427Y26268
X25734Y26197
X25044Y25935
X25073Y25104
X25398Y24912
X25052Y24168
X24204Y24242
X24204Y23948
X24204Y23657
X24262Y22471
X24725Y22441
X25256Y22716
X26160Y22742
X26287Y23852
X26575Y21536
X26575Y21221
X26575Y20906
X23671Y22100
X23432Y22256
X23140Y22028
X22713Y21811
X22715Y22252
X22031Y22350
X21742Y21834
X22296Y21558
X21087Y21547
X19410Y20748
X19095Y20748
X18780Y20748
X18465Y20748
X18150Y20748
X17835Y20748
X17520Y20748
X17205Y20748
X16890Y20748
X16276Y21267
X15670Y20827
X15197Y20748
X14599Y21319
X14280Y21319
X13962Y21319
X13644Y21319
X13325Y21319
X12999Y21683
X12956Y20965
X13787Y22561
X14366Y22428
X15276Y22992
X15980Y23225
X16300Y23211
X16588Y23216
X16886Y23217
X17108Y24004
X17521Y24013
X17136Y24523
X16920Y24813
X16347Y24813
X15961Y24776
X16095Y24172
X16088Y23672
X15542Y24012
X14876Y23891
X14876Y24208
X14876Y24554
X14865Y23544
X15276Y25355
X15961Y27571
X16360Y27569
X16799Y27569
X17183Y27487
X17161Y26760
X17443Y26811
X17575Y27953
X17583Y28277
X18075Y28299
X17795Y28709
X16966Y28780
X16595Y28757
X16300Y28770
X15800Y28780
X16063Y29075
X16108Y29744
X15566Y29544
X14690Y29615
X14110Y29384
X14317Y28674
X14317Y28382
X14607Y28524
X15276Y28401
X14156Y27755
X14105Y27427
X17114Y29422
X17520Y29621
X17570Y31234
X18189Y31768
X18950Y31768
X19711Y31768
X20473Y31767
X20420Y28084
X20745Y28288
X21633Y28126
X22733Y29205
X25356Y28406
X25260Y27962
X24990Y27869
X25353Y27666
X24011Y25160
X23728Y25102
X18195Y23529
X18544Y23150
X18399Y22063
X17670Y22112
X17702Y22424
X17570Y22887
X17877Y21352
X18932Y27674
X16388Y33160
X15923Y33122
X15601Y33404
X15562Y33895
X15010Y33297
X14698Y33563
X14016Y33898
X13622Y33898
X13037Y33878
X13229Y33307
X14112Y33110
X16920Y33770
X3308Y2634
X3036Y3270
X3250Y3655
X2609Y4084
X2569Y4420
X2766Y5010
X3042Y5266
X3160Y5797
X2766Y6093
X2569Y5601
X2569Y6782
X2569Y8357
X3042Y8337
X4153Y8629
X5200Y8604
X5522Y8316
X6575Y8241
X7687Y8357
X8475Y8357
X8002Y7353
X7357Y7347
X7417Y6101
X7884Y6191
X8052Y5711
X8475Y5994
X8053Y4826
X8749Y4654
X8790Y4262
X8790Y3868
X8108Y3962
X7798Y3473
X8185Y3156
X7788Y2726
X7399Y3105
X7324Y3829
X7372Y4262
X6056Y3277
X6056Y2648
X5137Y2634
X4282Y2634
X4505Y3276
X5089Y4301
X5482Y5748
X4735Y5797
X5168Y6307
X5757Y7305
X6703Y9262
X7635Y9329
X7687Y9734
X8475Y9538
X8081Y8947
X5607Y10087
X5649Y10493
X4820Y10077
X4555Y9674
X3118Y9751
X3527Y9116
X2687Y8883
X31742Y2254
X33710Y2254
X30403Y2293
X31820Y3120
X32883Y3277
X33710Y3395
X30403Y3632
X31309Y4025
X32293Y4065
X32923Y4616
X33710Y4655
X30403Y5049
X31112Y5285
X33710Y5364
X31803Y5450
X33356Y5876
X32490Y6387
X33435Y6624
X30403Y6781
X33710Y7096
X31228Y7414
X32096Y7687
X33435Y7687
X32848Y2126
X33242Y2126
X30305Y7805
X30777Y7805
X31249Y7805
X31722Y7805
T02
X33661Y35827
X34449Y35827
X35236Y35827
X36024Y35827
X2382Y11811
X4311Y11811
X5963Y14764
X7463Y14764
X17933Y27803
X17933Y26225
X17933Y24803
T03
X2510Y10344
X2510Y9616
X2510Y7667
X2510Y2923
X8612Y10167
X8612Y7648
X8612Y6900
X8612Y5207
X8612Y2746
X33417Y32480
X34417Y32480
X35417Y32480
X36417Y32480
X26260Y33583
X25289Y24504
X26089Y24504
X25689Y22504
X2510Y2923
X2510Y7668
X8613Y7648
X8613Y6900
X8613Y5207
X8613Y2746
X8613Y10168
X2510Y10345
X2510Y9616
T04
X4551Y40157
X6110Y40157
X7669Y40157
X9228Y40157
X10787Y40157
X12346Y40157
X13906Y40157
X15465Y40157
X16088Y6154
X16088Y2754
X16090Y4464
X17024Y40157
X17388Y6154
X17388Y2754
X17390Y4464
X18583Y40157
X18688Y6154
X18688Y2754
X18690Y4464
X19988Y6154
X19988Y2754
X19990Y4464
X20142Y40157
X21288Y6154
X21288Y2754
X21290Y4464
X21701Y40157
X22588Y6154
X22588Y2754
X22590Y4464
X23260Y40157
X24819Y40157
X26378Y40157
X27937Y40157
X29496Y40157
X31055Y40157
X32614Y40157
X34173Y40157
X14488Y6154
X14488Y2754
X14490Y4464
X24188Y6154
X24190Y4464
X24227Y2754
M30
