G04 #@! TF.GenerationSoftware,KiCad,Pcbnew,8.0.9-8.0.9-0~ubuntu24.04.1*
G04 #@! TF.CreationDate,2025-04-19T19:35:51+00:00*
G04 #@! TF.ProjectId,stabiljr,73746162-696c-46a7-922e-6b696361645f,V1*
G04 #@! TF.SameCoordinates,PX3a2c940PY8e93060*
G04 #@! TF.FileFunction,Soldermask,Bot*
G04 #@! TF.FilePolarity,Negative*
%FSLAX46Y46*%
G04 Gerber Fmt 4.6, Leading zero omitted, Abs format (unit mm)*
G04 Created by KiCad (PCBNEW 8.0.9-8.0.9-0~ubuntu24.04.1) date 2025-04-19 19:35:51*
%MOMM*%
%LPD*%
G01*
G04 APERTURE LIST*
%ADD10C,1.524000*%
%ADD11C,0.600000*%
%ADD12O,1.200000X1.750000*%
%ADD13C,1.500000*%
%ADD14R,1.700000X1.700000*%
%ADD15O,1.700000X1.700000*%
%ADD16O,2.703200X2.703200*%
%ADD17O,2.403200X2.403200*%
%ADD18C,2.400000*%
G04 APERTURE END LIST*
D10*
G04 #@! TO.C,R9*
X15144979Y37500000D03*
X18954979Y37500000D03*
G04 #@! TD*
D11*
G04 #@! TO.C,M4*
X79375000Y19825000D03*
X80575000Y19825000D03*
X78175000Y19825000D03*
X76975000Y19825000D03*
X83435000Y5400000D03*
X84435000Y5400000D03*
G04 #@! TD*
G04 #@! TO.C,USB1*
G36*
G01*
X84900000Y90375000D02*
X84900000Y91625000D01*
G75*
G02*
X85150000Y91875000I250000J0D01*
G01*
X85850000Y91875000D01*
G75*
G02*
X86100000Y91625000I0J-250000D01*
G01*
X86100000Y90375000D01*
G75*
G02*
X85850000Y90125000I-250000J0D01*
G01*
X85150000Y90125000D01*
G75*
G02*
X84900000Y90375000I0J250000D01*
G01*
G37*
D12*
X87500000Y91000000D03*
X89500000Y91000000D03*
X91500000Y91000000D03*
G04 #@! TD*
D10*
G04 #@! TO.C,F2*
X10950000Y30000000D03*
X6050000Y30000000D03*
G04 #@! TD*
D13*
G04 #@! TO.C,M1*
X21874995Y25824999D03*
X21874995Y19425002D03*
X21874995Y17524999D03*
X21874995Y13224999D03*
D11*
X22324994Y10825002D03*
X22324994Y9825001D03*
D13*
X21874995Y6974999D03*
X6374998Y26275001D03*
X6374998Y24425002D03*
X6374998Y19474999D03*
X6374998Y7425001D03*
G04 #@! TD*
D14*
G04 #@! TO.C,BLUETOOTH1*
X84880000Y82500000D03*
D15*
X87420000Y82500000D03*
X89960000Y82500000D03*
X92500000Y82500000D03*
G04 #@! TD*
D16*
G04 #@! TO.C,J1*
X36800500Y15631000D03*
D17*
X40864500Y15631000D03*
X44166500Y15631000D03*
X47468500Y15631000D03*
X50770500Y15631000D03*
X54072500Y15631000D03*
X57374500Y15631000D03*
D16*
X61438500Y15631000D03*
X36804600Y11339400D03*
D17*
X40868600Y11339400D03*
X44170600Y11339400D03*
X47472600Y11339400D03*
X50774600Y11339400D03*
X54076600Y11339400D03*
X57378600Y11339400D03*
D16*
X61442600Y11339400D03*
X36800500Y6995000D03*
D17*
X40864500Y6995000D03*
X44166500Y6995000D03*
X47468500Y6995000D03*
X50770500Y6995000D03*
X54072500Y6995000D03*
X57374500Y6995000D03*
D16*
X61535800Y6995000D03*
G04 #@! TD*
G04 #@! TO.C,J2*
G36*
G01*
X10360000Y101050001D02*
X10360000Y102949999D01*
G75*
G02*
X10610001Y103200000I250001J0D01*
G01*
X12509999Y103200000D01*
G75*
G02*
X12760000Y102949999I0J-250001D01*
G01*
X12760000Y101050001D01*
G75*
G02*
X12509999Y100800000I-250001J0D01*
G01*
X10610001Y100800000D01*
G75*
G02*
X10360000Y101050001I0J250001D01*
G01*
G37*
D18*
X15520000Y102000000D03*
X19480000Y102000000D03*
X23440000Y102000000D03*
X27400000Y102000000D03*
X31360000Y102000000D03*
X35320000Y102000000D03*
X39280000Y102000000D03*
X43240000Y102000000D03*
X47200000Y102000000D03*
X51160000Y102000000D03*
X55120000Y102000000D03*
X59080000Y102000000D03*
X63040000Y102000000D03*
X67000000Y102000000D03*
X70960000Y102000000D03*
X74920000Y102000000D03*
X78880000Y102000000D03*
X82840000Y102000000D03*
X86800000Y102000000D03*
G04 #@! TD*
M02*
