G04 #@! TF.GenerationSoftware,KiCad,Pcbnew,8.0.7*
G04 #@! TF.CreationDate,2025-04-19T22:30:47+03:00*
G04 #@! TF.ProjectId,stabiljr,73746162-696c-46a7-922e-6b696361645f,V1*
G04 #@! TF.SameCoordinates,PX3a2c940PY8e93060*
G04 #@! TF.FileFunction,Legend,Top*
G04 #@! TF.FilePolarity,Positive*
%FSLAX46Y46*%
G04 Gerber Fmt 4.6, Leading zero omitted, Abs format (unit mm)*
G04 Created by KiCad (PCBNEW 8.0.7) date 2025-04-19 22:30:47*
%MOMM*%
%LPD*%
G01*
G04 APERTURE LIST*
%ADD10C,0.170000*%
%ADD11C,0.150000*%
%ADD12C,0.127000*%
%ADD13C,0.200000*%
%ADD14C,0.203200*%
%ADD15C,0.099060*%
%ADD16C,0.120000*%
G04 APERTURE END LIST*
D10*
X31385808Y33775652D02*
X30995332Y33502319D01*
X31385808Y33307081D02*
X30565808Y33307081D01*
X30565808Y33307081D02*
X30565808Y33619462D01*
X30565808Y33619462D02*
X30604856Y33697557D01*
X30604856Y33697557D02*
X30643903Y33736604D01*
X30643903Y33736604D02*
X30721999Y33775652D01*
X30721999Y33775652D02*
X30839141Y33775652D01*
X30839141Y33775652D02*
X30917237Y33736604D01*
X30917237Y33736604D02*
X30956284Y33697557D01*
X30956284Y33697557D02*
X30995332Y33619462D01*
X30995332Y33619462D02*
X30995332Y33307081D01*
X31385808Y34556604D02*
X31385808Y34088033D01*
X31385808Y34322319D02*
X30565808Y34322319D01*
X30565808Y34322319D02*
X30682951Y34244223D01*
X30682951Y34244223D02*
X30761046Y34166128D01*
X30761046Y34166128D02*
X30800094Y34088033D01*
X56736985Y33690093D02*
X56346509Y33416760D01*
X56736985Y33221522D02*
X55916985Y33221522D01*
X55916985Y33221522D02*
X55916985Y33533903D01*
X55916985Y33533903D02*
X55956033Y33611998D01*
X55956033Y33611998D02*
X55995080Y33651045D01*
X55995080Y33651045D02*
X56073176Y33690093D01*
X56073176Y33690093D02*
X56190318Y33690093D01*
X56190318Y33690093D02*
X56268414Y33651045D01*
X56268414Y33651045D02*
X56307461Y33611998D01*
X56307461Y33611998D02*
X56346509Y33533903D01*
X56346509Y33533903D02*
X56346509Y33221522D01*
X55995080Y34002474D02*
X55956033Y34041522D01*
X55956033Y34041522D02*
X55916985Y34119617D01*
X55916985Y34119617D02*
X55916985Y34314855D01*
X55916985Y34314855D02*
X55956033Y34392950D01*
X55956033Y34392950D02*
X55995080Y34431998D01*
X55995080Y34431998D02*
X56073176Y34471045D01*
X56073176Y34471045D02*
X56151271Y34471045D01*
X56151271Y34471045D02*
X56268414Y34431998D01*
X56268414Y34431998D02*
X56736985Y33963426D01*
X56736985Y33963426D02*
X56736985Y34471045D01*
X55995080Y34783426D02*
X55956033Y34822474D01*
X55956033Y34822474D02*
X55916985Y34900569D01*
X55916985Y34900569D02*
X55916985Y35095807D01*
X55916985Y35095807D02*
X55956033Y35173902D01*
X55956033Y35173902D02*
X55995080Y35212950D01*
X55995080Y35212950D02*
X56073176Y35251997D01*
X56073176Y35251997D02*
X56151271Y35251997D01*
X56151271Y35251997D02*
X56268414Y35212950D01*
X56268414Y35212950D02*
X56736985Y34744378D01*
X56736985Y34744378D02*
X56736985Y35251997D01*
D11*
X8761905Y56045181D02*
X8761905Y57045181D01*
X8761905Y57045181D02*
X9095238Y56330896D01*
X9095238Y56330896D02*
X9428571Y57045181D01*
X9428571Y57045181D02*
X9428571Y56045181D01*
X9857143Y56330896D02*
X10333333Y56330896D01*
X9761905Y56045181D02*
X10095238Y57045181D01*
X10095238Y57045181D02*
X10428571Y56045181D01*
X10761905Y56045181D02*
X10761905Y57045181D01*
X10761905Y57045181D02*
X11142857Y57045181D01*
X11142857Y57045181D02*
X11238095Y56997562D01*
X11238095Y56997562D02*
X11285714Y56949943D01*
X11285714Y56949943D02*
X11333333Y56854705D01*
X11333333Y56854705D02*
X11333333Y56711848D01*
X11333333Y56711848D02*
X11285714Y56616610D01*
X11285714Y56616610D02*
X11238095Y56568991D01*
X11238095Y56568991D02*
X11142857Y56521372D01*
X11142857Y56521372D02*
X10761905Y56521372D01*
X12285714Y56045181D02*
X11714286Y56045181D01*
X12000000Y56045181D02*
X12000000Y57045181D01*
X12000000Y57045181D02*
X11904762Y56902324D01*
X11904762Y56902324D02*
X11809524Y56807086D01*
X11809524Y56807086D02*
X11714286Y56759467D01*
D12*
X13395890Y37373001D02*
X13033033Y37119001D01*
X13395890Y36937572D02*
X12633890Y36937572D01*
X12633890Y36937572D02*
X12633890Y37227858D01*
X12633890Y37227858D02*
X12670176Y37300429D01*
X12670176Y37300429D02*
X12706462Y37336715D01*
X12706462Y37336715D02*
X12779033Y37373001D01*
X12779033Y37373001D02*
X12887890Y37373001D01*
X12887890Y37373001D02*
X12960462Y37336715D01*
X12960462Y37336715D02*
X12996747Y37300429D01*
X12996747Y37300429D02*
X13033033Y37227858D01*
X13033033Y37227858D02*
X13033033Y36937572D01*
X13395890Y37735858D02*
X13395890Y37881001D01*
X13395890Y37881001D02*
X13359605Y37953572D01*
X13359605Y37953572D02*
X13323319Y37989858D01*
X13323319Y37989858D02*
X13214462Y38062429D01*
X13214462Y38062429D02*
X13069319Y38098715D01*
X13069319Y38098715D02*
X12779033Y38098715D01*
X12779033Y38098715D02*
X12706462Y38062429D01*
X12706462Y38062429D02*
X12670176Y38026143D01*
X12670176Y38026143D02*
X12633890Y37953572D01*
X12633890Y37953572D02*
X12633890Y37808429D01*
X12633890Y37808429D02*
X12670176Y37735858D01*
X12670176Y37735858D02*
X12706462Y37699572D01*
X12706462Y37699572D02*
X12779033Y37663286D01*
X12779033Y37663286D02*
X12960462Y37663286D01*
X12960462Y37663286D02*
X13033033Y37699572D01*
X13033033Y37699572D02*
X13069319Y37735858D01*
X13069319Y37735858D02*
X13105605Y37808429D01*
X13105605Y37808429D02*
X13105605Y37953572D01*
X13105605Y37953572D02*
X13069319Y38026143D01*
X13069319Y38026143D02*
X13033033Y38062429D01*
X13033033Y38062429D02*
X12960462Y38098715D01*
D10*
X40236985Y20540093D02*
X39846509Y20266760D01*
X40236985Y20071522D02*
X39416985Y20071522D01*
X39416985Y20071522D02*
X39416985Y20383903D01*
X39416985Y20383903D02*
X39456033Y20461998D01*
X39456033Y20461998D02*
X39495080Y20501045D01*
X39495080Y20501045D02*
X39573176Y20540093D01*
X39573176Y20540093D02*
X39690318Y20540093D01*
X39690318Y20540093D02*
X39768414Y20501045D01*
X39768414Y20501045D02*
X39807461Y20461998D01*
X39807461Y20461998D02*
X39846509Y20383903D01*
X39846509Y20383903D02*
X39846509Y20071522D01*
X40236985Y21321045D02*
X40236985Y20852474D01*
X40236985Y21086760D02*
X39416985Y21086760D01*
X39416985Y21086760D02*
X39534128Y21008664D01*
X39534128Y21008664D02*
X39612223Y20930569D01*
X39612223Y20930569D02*
X39651271Y20852474D01*
X40236985Y22101997D02*
X40236985Y21633426D01*
X40236985Y21867712D02*
X39416985Y21867712D01*
X39416985Y21867712D02*
X39534128Y21789616D01*
X39534128Y21789616D02*
X39612223Y21711521D01*
X39612223Y21711521D02*
X39651271Y21633426D01*
X49736985Y20540093D02*
X49346509Y20266760D01*
X49736985Y20071522D02*
X48916985Y20071522D01*
X48916985Y20071522D02*
X48916985Y20383903D01*
X48916985Y20383903D02*
X48956033Y20461998D01*
X48956033Y20461998D02*
X48995080Y20501045D01*
X48995080Y20501045D02*
X49073176Y20540093D01*
X49073176Y20540093D02*
X49190318Y20540093D01*
X49190318Y20540093D02*
X49268414Y20501045D01*
X49268414Y20501045D02*
X49307461Y20461998D01*
X49307461Y20461998D02*
X49346509Y20383903D01*
X49346509Y20383903D02*
X49346509Y20071522D01*
X49736985Y21321045D02*
X49736985Y20852474D01*
X49736985Y21086760D02*
X48916985Y21086760D01*
X48916985Y21086760D02*
X49034128Y21008664D01*
X49034128Y21008664D02*
X49112223Y20930569D01*
X49112223Y20930569D02*
X49151271Y20852474D01*
X49190318Y22023902D02*
X49736985Y22023902D01*
X48877938Y21828664D02*
X49463652Y21633426D01*
X49463652Y21633426D02*
X49463652Y22141045D01*
D11*
X39471009Y23977977D02*
X39471009Y23644644D01*
X39994819Y23644644D02*
X38994819Y23644644D01*
X38994819Y23644644D02*
X38994819Y24120834D01*
X39994819Y25025596D02*
X39994819Y24454168D01*
X39994819Y24739882D02*
X38994819Y24739882D01*
X38994819Y24739882D02*
X39137676Y24644644D01*
X39137676Y24644644D02*
X39232914Y24549406D01*
X39232914Y24549406D02*
X39280533Y24454168D01*
X39994819Y25977977D02*
X39994819Y25406549D01*
X39994819Y25692263D02*
X38994819Y25692263D01*
X38994819Y25692263D02*
X39137676Y25597025D01*
X39137676Y25597025D02*
X39232914Y25501787D01*
X39232914Y25501787D02*
X39280533Y25406549D01*
X37049819Y42213096D02*
X37859342Y42213096D01*
X37859342Y42213096D02*
X37954580Y42260715D01*
X37954580Y42260715D02*
X38002200Y42308334D01*
X38002200Y42308334D02*
X38049819Y42403572D01*
X38049819Y42403572D02*
X38049819Y42594048D01*
X38049819Y42594048D02*
X38002200Y42689286D01*
X38002200Y42689286D02*
X37954580Y42736905D01*
X37954580Y42736905D02*
X37859342Y42784524D01*
X37859342Y42784524D02*
X37049819Y42784524D01*
X37145057Y43213096D02*
X37097438Y43260715D01*
X37097438Y43260715D02*
X37049819Y43355953D01*
X37049819Y43355953D02*
X37049819Y43594048D01*
X37049819Y43594048D02*
X37097438Y43689286D01*
X37097438Y43689286D02*
X37145057Y43736905D01*
X37145057Y43736905D02*
X37240295Y43784524D01*
X37240295Y43784524D02*
X37335533Y43784524D01*
X37335533Y43784524D02*
X37478390Y43736905D01*
X37478390Y43736905D02*
X38049819Y43165477D01*
X38049819Y43165477D02*
X38049819Y43784524D01*
D10*
X26390807Y94775653D02*
X26000331Y94502319D01*
X26390807Y94307081D02*
X25570806Y94307081D01*
X25570806Y94307081D02*
X25570806Y94619462D01*
X25570806Y94619462D02*
X25609854Y94697557D01*
X25609854Y94697557D02*
X25648902Y94736605D01*
X25648902Y94736605D02*
X25726997Y94775653D01*
X25726997Y94775653D02*
X25844140Y94775653D01*
X25844140Y94775653D02*
X25922235Y94736605D01*
X25922235Y94736605D02*
X25961283Y94697557D01*
X25961283Y94697557D02*
X26000331Y94619462D01*
X26000331Y94619462D02*
X26000331Y94307081D01*
X25570806Y95048986D02*
X25570806Y95556606D01*
X25570806Y95556606D02*
X25883188Y95283272D01*
X25883188Y95283272D02*
X25883188Y95400415D01*
X25883188Y95400415D02*
X25922235Y95478511D01*
X25922235Y95478511D02*
X25961283Y95517558D01*
X25961283Y95517558D02*
X26039378Y95556606D01*
X26039378Y95556606D02*
X26234617Y95556606D01*
X26234617Y95556606D02*
X26312712Y95517558D01*
X26312712Y95517558D02*
X26351760Y95478511D01*
X26351760Y95478511D02*
X26390807Y95400415D01*
X26390807Y95400415D02*
X26390807Y95166129D01*
X26390807Y95166129D02*
X26351760Y95088034D01*
X26351760Y95088034D02*
X26312712Y95048986D01*
X25648902Y95868987D02*
X25609854Y95908035D01*
X25609854Y95908035D02*
X25570806Y95986130D01*
X25570806Y95986130D02*
X25570806Y96181368D01*
X25570806Y96181368D02*
X25609854Y96259464D01*
X25609854Y96259464D02*
X25648902Y96298511D01*
X25648902Y96298511D02*
X25726997Y96337559D01*
X25726997Y96337559D02*
X25805092Y96337559D01*
X25805092Y96337559D02*
X25922235Y96298511D01*
X25922235Y96298511D02*
X26390807Y95829939D01*
X26390807Y95829939D02*
X26390807Y96337559D01*
X42685808Y34275652D02*
X42295332Y34002319D01*
X42685808Y33807081D02*
X41865808Y33807081D01*
X41865808Y33807081D02*
X41865808Y34119462D01*
X41865808Y34119462D02*
X41904856Y34197557D01*
X41904856Y34197557D02*
X41943903Y34236604D01*
X41943903Y34236604D02*
X42021999Y34275652D01*
X42021999Y34275652D02*
X42139141Y34275652D01*
X42139141Y34275652D02*
X42217237Y34236604D01*
X42217237Y34236604D02*
X42256284Y34197557D01*
X42256284Y34197557D02*
X42295332Y34119462D01*
X42295332Y34119462D02*
X42295332Y33807081D01*
X42139141Y34978509D02*
X42685808Y34978509D01*
X41826761Y34783271D02*
X42412475Y34588033D01*
X42412475Y34588033D02*
X42412475Y35095652D01*
X48236985Y33740093D02*
X47846509Y33466760D01*
X48236985Y33271522D02*
X47416985Y33271522D01*
X47416985Y33271522D02*
X47416985Y33583903D01*
X47416985Y33583903D02*
X47456033Y33661998D01*
X47456033Y33661998D02*
X47495080Y33701045D01*
X47495080Y33701045D02*
X47573176Y33740093D01*
X47573176Y33740093D02*
X47690318Y33740093D01*
X47690318Y33740093D02*
X47768414Y33701045D01*
X47768414Y33701045D02*
X47807461Y33661998D01*
X47807461Y33661998D02*
X47846509Y33583903D01*
X47846509Y33583903D02*
X47846509Y33271522D01*
X47495080Y34052474D02*
X47456033Y34091522D01*
X47456033Y34091522D02*
X47416985Y34169617D01*
X47416985Y34169617D02*
X47416985Y34364855D01*
X47416985Y34364855D02*
X47456033Y34442950D01*
X47456033Y34442950D02*
X47495080Y34481998D01*
X47495080Y34481998D02*
X47573176Y34521045D01*
X47573176Y34521045D02*
X47651271Y34521045D01*
X47651271Y34521045D02*
X47768414Y34481998D01*
X47768414Y34481998D02*
X48236985Y34013426D01*
X48236985Y34013426D02*
X48236985Y34521045D01*
X47690318Y35223902D02*
X48236985Y35223902D01*
X47377938Y35028664D02*
X47963652Y34833426D01*
X47963652Y34833426D02*
X47963652Y35341045D01*
D11*
X86761905Y94445181D02*
X86761905Y93635658D01*
X86761905Y93635658D02*
X86809524Y93540420D01*
X86809524Y93540420D02*
X86857143Y93492800D01*
X86857143Y93492800D02*
X86952381Y93445181D01*
X86952381Y93445181D02*
X87142857Y93445181D01*
X87142857Y93445181D02*
X87238095Y93492800D01*
X87238095Y93492800D02*
X87285714Y93540420D01*
X87285714Y93540420D02*
X87333333Y93635658D01*
X87333333Y93635658D02*
X87333333Y94445181D01*
X87761905Y93492800D02*
X87904762Y93445181D01*
X87904762Y93445181D02*
X88142857Y93445181D01*
X88142857Y93445181D02*
X88238095Y93492800D01*
X88238095Y93492800D02*
X88285714Y93540420D01*
X88285714Y93540420D02*
X88333333Y93635658D01*
X88333333Y93635658D02*
X88333333Y93730896D01*
X88333333Y93730896D02*
X88285714Y93826134D01*
X88285714Y93826134D02*
X88238095Y93873753D01*
X88238095Y93873753D02*
X88142857Y93921372D01*
X88142857Y93921372D02*
X87952381Y93968991D01*
X87952381Y93968991D02*
X87857143Y94016610D01*
X87857143Y94016610D02*
X87809524Y94064229D01*
X87809524Y94064229D02*
X87761905Y94159467D01*
X87761905Y94159467D02*
X87761905Y94254705D01*
X87761905Y94254705D02*
X87809524Y94349943D01*
X87809524Y94349943D02*
X87857143Y94397562D01*
X87857143Y94397562D02*
X87952381Y94445181D01*
X87952381Y94445181D02*
X88190476Y94445181D01*
X88190476Y94445181D02*
X88333333Y94397562D01*
X89095238Y93968991D02*
X89238095Y93921372D01*
X89238095Y93921372D02*
X89285714Y93873753D01*
X89285714Y93873753D02*
X89333333Y93778515D01*
X89333333Y93778515D02*
X89333333Y93635658D01*
X89333333Y93635658D02*
X89285714Y93540420D01*
X89285714Y93540420D02*
X89238095Y93492800D01*
X89238095Y93492800D02*
X89142857Y93445181D01*
X89142857Y93445181D02*
X88761905Y93445181D01*
X88761905Y93445181D02*
X88761905Y94445181D01*
X88761905Y94445181D02*
X89095238Y94445181D01*
X89095238Y94445181D02*
X89190476Y94397562D01*
X89190476Y94397562D02*
X89238095Y94349943D01*
X89238095Y94349943D02*
X89285714Y94254705D01*
X89285714Y94254705D02*
X89285714Y94159467D01*
X89285714Y94159467D02*
X89238095Y94064229D01*
X89238095Y94064229D02*
X89190476Y94016610D01*
X89190476Y94016610D02*
X89095238Y93968991D01*
X89095238Y93968991D02*
X88761905Y93968991D01*
X90285714Y93445181D02*
X89714286Y93445181D01*
X90000000Y93445181D02*
X90000000Y94445181D01*
X90000000Y94445181D02*
X89904762Y94302324D01*
X89904762Y94302324D02*
X89809524Y94207086D01*
X89809524Y94207086D02*
X89714286Y94159467D01*
D10*
X40060808Y34077247D02*
X39670332Y33803914D01*
X40060808Y33608676D02*
X39240808Y33608676D01*
X39240808Y33608676D02*
X39240808Y33921057D01*
X39240808Y33921057D02*
X39279856Y33999152D01*
X39279856Y33999152D02*
X39318903Y34038199D01*
X39318903Y34038199D02*
X39396999Y34077247D01*
X39396999Y34077247D02*
X39514141Y34077247D01*
X39514141Y34077247D02*
X39592237Y34038199D01*
X39592237Y34038199D02*
X39631284Y33999152D01*
X39631284Y33999152D02*
X39670332Y33921057D01*
X39670332Y33921057D02*
X39670332Y33608676D01*
X39240808Y34350580D02*
X39240808Y34858199D01*
X39240808Y34858199D02*
X39553189Y34584866D01*
X39553189Y34584866D02*
X39553189Y34702009D01*
X39553189Y34702009D02*
X39592237Y34780104D01*
X39592237Y34780104D02*
X39631284Y34819152D01*
X39631284Y34819152D02*
X39709380Y34858199D01*
X39709380Y34858199D02*
X39904618Y34858199D01*
X39904618Y34858199D02*
X39982713Y34819152D01*
X39982713Y34819152D02*
X40021761Y34780104D01*
X40021761Y34780104D02*
X40060808Y34702009D01*
X40060808Y34702009D02*
X40060808Y34467723D01*
X40060808Y34467723D02*
X40021761Y34389628D01*
X40021761Y34389628D02*
X39982713Y34350580D01*
X67390808Y34175652D02*
X67000332Y33902319D01*
X67390808Y33707081D02*
X66570808Y33707081D01*
X66570808Y33707081D02*
X66570808Y34019462D01*
X66570808Y34019462D02*
X66609856Y34097557D01*
X66609856Y34097557D02*
X66648903Y34136604D01*
X66648903Y34136604D02*
X66726999Y34175652D01*
X66726999Y34175652D02*
X66844141Y34175652D01*
X66844141Y34175652D02*
X66922237Y34136604D01*
X66922237Y34136604D02*
X66961284Y34097557D01*
X66961284Y34097557D02*
X67000332Y34019462D01*
X67000332Y34019462D02*
X67000332Y33707081D01*
X66570808Y34917557D02*
X66570808Y34527081D01*
X66570808Y34527081D02*
X66961284Y34488033D01*
X66961284Y34488033D02*
X66922237Y34527081D01*
X66922237Y34527081D02*
X66883189Y34605176D01*
X66883189Y34605176D02*
X66883189Y34800414D01*
X66883189Y34800414D02*
X66922237Y34878509D01*
X66922237Y34878509D02*
X66961284Y34917557D01*
X66961284Y34917557D02*
X67039380Y34956604D01*
X67039380Y34956604D02*
X67234618Y34956604D01*
X67234618Y34956604D02*
X67312713Y34917557D01*
X67312713Y34917557D02*
X67351761Y34878509D01*
X67351761Y34878509D02*
X67390808Y34800414D01*
X67390808Y34800414D02*
X67390808Y34605176D01*
X67390808Y34605176D02*
X67351761Y34527081D01*
X67351761Y34527081D02*
X67312713Y34488033D01*
X23390807Y94775653D02*
X23000331Y94502319D01*
X23390807Y94307081D02*
X22570806Y94307081D01*
X22570806Y94307081D02*
X22570806Y94619462D01*
X22570806Y94619462D02*
X22609854Y94697557D01*
X22609854Y94697557D02*
X22648902Y94736605D01*
X22648902Y94736605D02*
X22726997Y94775653D01*
X22726997Y94775653D02*
X22844140Y94775653D01*
X22844140Y94775653D02*
X22922235Y94736605D01*
X22922235Y94736605D02*
X22961283Y94697557D01*
X22961283Y94697557D02*
X23000331Y94619462D01*
X23000331Y94619462D02*
X23000331Y94307081D01*
X22570806Y95048986D02*
X22570806Y95556606D01*
X22570806Y95556606D02*
X22883188Y95283272D01*
X22883188Y95283272D02*
X22883188Y95400415D01*
X22883188Y95400415D02*
X22922235Y95478511D01*
X22922235Y95478511D02*
X22961283Y95517558D01*
X22961283Y95517558D02*
X23039378Y95556606D01*
X23039378Y95556606D02*
X23234617Y95556606D01*
X23234617Y95556606D02*
X23312712Y95517558D01*
X23312712Y95517558D02*
X23351760Y95478511D01*
X23351760Y95478511D02*
X23390807Y95400415D01*
X23390807Y95400415D02*
X23390807Y95166129D01*
X23390807Y95166129D02*
X23351760Y95088034D01*
X23351760Y95088034D02*
X23312712Y95048986D01*
X23390807Y96337559D02*
X23390807Y95868987D01*
X23390807Y96103273D02*
X22570806Y96103273D01*
X22570806Y96103273D02*
X22687949Y96025178D01*
X22687949Y96025178D02*
X22766045Y95947082D01*
X22766045Y95947082D02*
X22805092Y95868987D01*
X26711957Y82588153D02*
X26438623Y82978629D01*
X26243385Y82588153D02*
X26243385Y83408154D01*
X26243385Y83408154D02*
X26555766Y83408154D01*
X26555766Y83408154D02*
X26633862Y83369106D01*
X26633862Y83369106D02*
X26672909Y83330058D01*
X26672909Y83330058D02*
X26711957Y83251963D01*
X26711957Y83251963D02*
X26711957Y83134820D01*
X26711957Y83134820D02*
X26672909Y83056725D01*
X26672909Y83056725D02*
X26633862Y83017677D01*
X26633862Y83017677D02*
X26555766Y82978629D01*
X26555766Y82978629D02*
X26243385Y82978629D01*
X27414815Y83134820D02*
X27414815Y82588153D01*
X27219577Y83447201D02*
X27024338Y82861486D01*
X27024338Y82861486D02*
X27531958Y82861486D01*
X28273863Y82588153D02*
X27805291Y82588153D01*
X28039577Y82588153D02*
X28039577Y83408154D01*
X28039577Y83408154D02*
X27961482Y83291011D01*
X27961482Y83291011D02*
X27883387Y83212915D01*
X27883387Y83212915D02*
X27805291Y83173868D01*
X43236985Y20540093D02*
X42846509Y20266760D01*
X43236985Y20071522D02*
X42416985Y20071522D01*
X42416985Y20071522D02*
X42416985Y20383903D01*
X42416985Y20383903D02*
X42456033Y20461998D01*
X42456033Y20461998D02*
X42495080Y20501045D01*
X42495080Y20501045D02*
X42573176Y20540093D01*
X42573176Y20540093D02*
X42690318Y20540093D01*
X42690318Y20540093D02*
X42768414Y20501045D01*
X42768414Y20501045D02*
X42807461Y20461998D01*
X42807461Y20461998D02*
X42846509Y20383903D01*
X42846509Y20383903D02*
X42846509Y20071522D01*
X43236985Y21321045D02*
X43236985Y20852474D01*
X43236985Y21086760D02*
X42416985Y21086760D01*
X42416985Y21086760D02*
X42534128Y21008664D01*
X42534128Y21008664D02*
X42612223Y20930569D01*
X42612223Y20930569D02*
X42651271Y20852474D01*
X42495080Y21633426D02*
X42456033Y21672474D01*
X42456033Y21672474D02*
X42416985Y21750569D01*
X42416985Y21750569D02*
X42416985Y21945807D01*
X42416985Y21945807D02*
X42456033Y22023902D01*
X42456033Y22023902D02*
X42495080Y22062950D01*
X42495080Y22062950D02*
X42573176Y22101997D01*
X42573176Y22101997D02*
X42651271Y22101997D01*
X42651271Y22101997D02*
X42768414Y22062950D01*
X42768414Y22062950D02*
X43236985Y21594378D01*
X43236985Y21594378D02*
X43236985Y22101997D01*
X26711957Y85588153D02*
X26438623Y85978629D01*
X26243385Y85588153D02*
X26243385Y86408154D01*
X26243385Y86408154D02*
X26555766Y86408154D01*
X26555766Y86408154D02*
X26633862Y86369106D01*
X26633862Y86369106D02*
X26672909Y86330058D01*
X26672909Y86330058D02*
X26711957Y86251963D01*
X26711957Y86251963D02*
X26711957Y86134820D01*
X26711957Y86134820D02*
X26672909Y86056725D01*
X26672909Y86056725D02*
X26633862Y86017677D01*
X26633862Y86017677D02*
X26555766Y85978629D01*
X26555766Y85978629D02*
X26243385Y85978629D01*
X27414815Y86134820D02*
X27414815Y85588153D01*
X27219577Y86447201D02*
X27024338Y85861486D01*
X27024338Y85861486D02*
X27531958Y85861486D01*
X27805291Y86330058D02*
X27844339Y86369106D01*
X27844339Y86369106D02*
X27922434Y86408154D01*
X27922434Y86408154D02*
X28117673Y86408154D01*
X28117673Y86408154D02*
X28195768Y86369106D01*
X28195768Y86369106D02*
X28234816Y86330058D01*
X28234816Y86330058D02*
X28273863Y86251963D01*
X28273863Y86251963D02*
X28273863Y86173868D01*
X28273863Y86173868D02*
X28234816Y86056725D01*
X28234816Y86056725D02*
X27766244Y85588153D01*
X27766244Y85588153D02*
X28273863Y85588153D01*
D11*
X54549819Y42213096D02*
X55359342Y42213096D01*
X55359342Y42213096D02*
X55454580Y42260715D01*
X55454580Y42260715D02*
X55502200Y42308334D01*
X55502200Y42308334D02*
X55549819Y42403572D01*
X55549819Y42403572D02*
X55549819Y42594048D01*
X55549819Y42594048D02*
X55502200Y42689286D01*
X55502200Y42689286D02*
X55454580Y42736905D01*
X55454580Y42736905D02*
X55359342Y42784524D01*
X55359342Y42784524D02*
X54549819Y42784524D01*
X55549819Y43308334D02*
X55549819Y43498810D01*
X55549819Y43498810D02*
X55502200Y43594048D01*
X55502200Y43594048D02*
X55454580Y43641667D01*
X55454580Y43641667D02*
X55311723Y43736905D01*
X55311723Y43736905D02*
X55121247Y43784524D01*
X55121247Y43784524D02*
X54740295Y43784524D01*
X54740295Y43784524D02*
X54645057Y43736905D01*
X54645057Y43736905D02*
X54597438Y43689286D01*
X54597438Y43689286D02*
X54549819Y43594048D01*
X54549819Y43594048D02*
X54549819Y43403572D01*
X54549819Y43403572D02*
X54597438Y43308334D01*
X54597438Y43308334D02*
X54645057Y43260715D01*
X54645057Y43260715D02*
X54740295Y43213096D01*
X54740295Y43213096D02*
X54978390Y43213096D01*
X54978390Y43213096D02*
X55073628Y43260715D01*
X55073628Y43260715D02*
X55121247Y43308334D01*
X55121247Y43308334D02*
X55168866Y43403572D01*
X55168866Y43403572D02*
X55168866Y43594048D01*
X55168866Y43594048D02*
X55121247Y43689286D01*
X55121247Y43689286D02*
X55073628Y43736905D01*
X55073628Y43736905D02*
X54978390Y43784524D01*
D10*
X16711957Y34588153D02*
X16438623Y34978629D01*
X16243385Y34588153D02*
X16243385Y35408154D01*
X16243385Y35408154D02*
X16555766Y35408154D01*
X16555766Y35408154D02*
X16633862Y35369106D01*
X16633862Y35369106D02*
X16672909Y35330058D01*
X16672909Y35330058D02*
X16711957Y35251963D01*
X16711957Y35251963D02*
X16711957Y35134820D01*
X16711957Y35134820D02*
X16672909Y35056725D01*
X16672909Y35056725D02*
X16633862Y35017677D01*
X16633862Y35017677D02*
X16555766Y34978629D01*
X16555766Y34978629D02*
X16243385Y34978629D01*
X17414815Y35134820D02*
X17414815Y34588153D01*
X17219577Y35447201D02*
X17024338Y34861486D01*
X17024338Y34861486D02*
X17531958Y34861486D01*
X17766244Y35408154D02*
X18273863Y35408154D01*
X18273863Y35408154D02*
X18000530Y35095772D01*
X18000530Y35095772D02*
X18117673Y35095772D01*
X18117673Y35095772D02*
X18195768Y35056725D01*
X18195768Y35056725D02*
X18234816Y35017677D01*
X18234816Y35017677D02*
X18273863Y34939582D01*
X18273863Y34939582D02*
X18273863Y34744343D01*
X18273863Y34744343D02*
X18234816Y34666248D01*
X18234816Y34666248D02*
X18195768Y34627200D01*
X18195768Y34627200D02*
X18117673Y34588153D01*
X18117673Y34588153D02*
X17883387Y34588153D01*
X17883387Y34588153D02*
X17805291Y34627200D01*
X17805291Y34627200D02*
X17766244Y34666248D01*
D11*
X49001009Y23977977D02*
X49001009Y23644644D01*
X49524819Y23644644D02*
X48524819Y23644644D01*
X48524819Y23644644D02*
X48524819Y24120834D01*
X49524819Y25025596D02*
X49524819Y24454168D01*
X49524819Y24739882D02*
X48524819Y24739882D01*
X48524819Y24739882D02*
X48667676Y24644644D01*
X48667676Y24644644D02*
X48762914Y24549406D01*
X48762914Y24549406D02*
X48810533Y24454168D01*
X48858152Y25882739D02*
X49524819Y25882739D01*
X48477200Y25644644D02*
X49191485Y25406549D01*
X49191485Y25406549D02*
X49191485Y26025596D01*
D12*
X3946768Y29746001D02*
X3946768Y29492001D01*
X4345911Y29492001D02*
X3583911Y29492001D01*
X3583911Y29492001D02*
X3583911Y29854858D01*
X3656483Y30108858D02*
X3620197Y30145144D01*
X3620197Y30145144D02*
X3583911Y30217715D01*
X3583911Y30217715D02*
X3583911Y30399144D01*
X3583911Y30399144D02*
X3620197Y30471715D01*
X3620197Y30471715D02*
X3656483Y30508001D01*
X3656483Y30508001D02*
X3729054Y30544287D01*
X3729054Y30544287D02*
X3801626Y30544287D01*
X3801626Y30544287D02*
X3910483Y30508001D01*
X3910483Y30508001D02*
X4345911Y30072573D01*
X4345911Y30072573D02*
X4345911Y30544287D01*
D10*
X51236985Y33740093D02*
X50846509Y33466760D01*
X51236985Y33271522D02*
X50416985Y33271522D01*
X50416985Y33271522D02*
X50416985Y33583903D01*
X50416985Y33583903D02*
X50456033Y33661998D01*
X50456033Y33661998D02*
X50495080Y33701045D01*
X50495080Y33701045D02*
X50573176Y33740093D01*
X50573176Y33740093D02*
X50690318Y33740093D01*
X50690318Y33740093D02*
X50768414Y33701045D01*
X50768414Y33701045D02*
X50807461Y33661998D01*
X50807461Y33661998D02*
X50846509Y33583903D01*
X50846509Y33583903D02*
X50846509Y33271522D01*
X50495080Y34052474D02*
X50456033Y34091522D01*
X50456033Y34091522D02*
X50416985Y34169617D01*
X50416985Y34169617D02*
X50416985Y34364855D01*
X50416985Y34364855D02*
X50456033Y34442950D01*
X50456033Y34442950D02*
X50495080Y34481998D01*
X50495080Y34481998D02*
X50573176Y34521045D01*
X50573176Y34521045D02*
X50651271Y34521045D01*
X50651271Y34521045D02*
X50768414Y34481998D01*
X50768414Y34481998D02*
X51236985Y34013426D01*
X51236985Y34013426D02*
X51236985Y34521045D01*
X50416985Y34794378D02*
X50416985Y35301997D01*
X50416985Y35301997D02*
X50729366Y35028664D01*
X50729366Y35028664D02*
X50729366Y35145807D01*
X50729366Y35145807D02*
X50768414Y35223902D01*
X50768414Y35223902D02*
X50807461Y35262950D01*
X50807461Y35262950D02*
X50885557Y35301997D01*
X50885557Y35301997D02*
X51080795Y35301997D01*
X51080795Y35301997D02*
X51158890Y35262950D01*
X51158890Y35262950D02*
X51197938Y35223902D01*
X51197938Y35223902D02*
X51236985Y35145807D01*
X51236985Y35145807D02*
X51236985Y34911521D01*
X51236985Y34911521D02*
X51197938Y34833426D01*
X51197938Y34833426D02*
X51158890Y34794378D01*
D11*
X84560952Y85543991D02*
X84703809Y85496372D01*
X84703809Y85496372D02*
X84751428Y85448753D01*
X84751428Y85448753D02*
X84799047Y85353515D01*
X84799047Y85353515D02*
X84799047Y85210658D01*
X84799047Y85210658D02*
X84751428Y85115420D01*
X84751428Y85115420D02*
X84703809Y85067800D01*
X84703809Y85067800D02*
X84608571Y85020181D01*
X84608571Y85020181D02*
X84227619Y85020181D01*
X84227619Y85020181D02*
X84227619Y86020181D01*
X84227619Y86020181D02*
X84560952Y86020181D01*
X84560952Y86020181D02*
X84656190Y85972562D01*
X84656190Y85972562D02*
X84703809Y85924943D01*
X84703809Y85924943D02*
X84751428Y85829705D01*
X84751428Y85829705D02*
X84751428Y85734467D01*
X84751428Y85734467D02*
X84703809Y85639229D01*
X84703809Y85639229D02*
X84656190Y85591610D01*
X84656190Y85591610D02*
X84560952Y85543991D01*
X84560952Y85543991D02*
X84227619Y85543991D01*
X85703809Y85020181D02*
X85227619Y85020181D01*
X85227619Y85020181D02*
X85227619Y86020181D01*
X86037143Y86020181D02*
X86037143Y85210658D01*
X86037143Y85210658D02*
X86084762Y85115420D01*
X86084762Y85115420D02*
X86132381Y85067800D01*
X86132381Y85067800D02*
X86227619Y85020181D01*
X86227619Y85020181D02*
X86418095Y85020181D01*
X86418095Y85020181D02*
X86513333Y85067800D01*
X86513333Y85067800D02*
X86560952Y85115420D01*
X86560952Y85115420D02*
X86608571Y85210658D01*
X86608571Y85210658D02*
X86608571Y86020181D01*
X87084762Y85543991D02*
X87418095Y85543991D01*
X87560952Y85020181D02*
X87084762Y85020181D01*
X87084762Y85020181D02*
X87084762Y86020181D01*
X87084762Y86020181D02*
X87560952Y86020181D01*
X87846667Y86020181D02*
X88418095Y86020181D01*
X88132381Y85020181D02*
X88132381Y86020181D01*
X88941905Y86020181D02*
X89132381Y86020181D01*
X89132381Y86020181D02*
X89227619Y85972562D01*
X89227619Y85972562D02*
X89322857Y85877324D01*
X89322857Y85877324D02*
X89370476Y85686848D01*
X89370476Y85686848D02*
X89370476Y85353515D01*
X89370476Y85353515D02*
X89322857Y85163039D01*
X89322857Y85163039D02*
X89227619Y85067800D01*
X89227619Y85067800D02*
X89132381Y85020181D01*
X89132381Y85020181D02*
X88941905Y85020181D01*
X88941905Y85020181D02*
X88846667Y85067800D01*
X88846667Y85067800D02*
X88751429Y85163039D01*
X88751429Y85163039D02*
X88703810Y85353515D01*
X88703810Y85353515D02*
X88703810Y85686848D01*
X88703810Y85686848D02*
X88751429Y85877324D01*
X88751429Y85877324D02*
X88846667Y85972562D01*
X88846667Y85972562D02*
X88941905Y86020181D01*
X89989524Y86020181D02*
X90180000Y86020181D01*
X90180000Y86020181D02*
X90275238Y85972562D01*
X90275238Y85972562D02*
X90370476Y85877324D01*
X90370476Y85877324D02*
X90418095Y85686848D01*
X90418095Y85686848D02*
X90418095Y85353515D01*
X90418095Y85353515D02*
X90370476Y85163039D01*
X90370476Y85163039D02*
X90275238Y85067800D01*
X90275238Y85067800D02*
X90180000Y85020181D01*
X90180000Y85020181D02*
X89989524Y85020181D01*
X89989524Y85020181D02*
X89894286Y85067800D01*
X89894286Y85067800D02*
X89799048Y85163039D01*
X89799048Y85163039D02*
X89751429Y85353515D01*
X89751429Y85353515D02*
X89751429Y85686848D01*
X89751429Y85686848D02*
X89799048Y85877324D01*
X89799048Y85877324D02*
X89894286Y85972562D01*
X89894286Y85972562D02*
X89989524Y86020181D01*
X90703810Y86020181D02*
X91275238Y86020181D01*
X90989524Y85020181D02*
X90989524Y86020181D01*
X91608572Y85020181D02*
X91608572Y86020181D01*
X91608572Y85543991D02*
X92180000Y85543991D01*
X92180000Y85020181D02*
X92180000Y86020181D01*
X93180000Y85020181D02*
X92608572Y85020181D01*
X92894286Y85020181D02*
X92894286Y86020181D01*
X92894286Y86020181D02*
X92799048Y85877324D01*
X92799048Y85877324D02*
X92703810Y85782086D01*
X92703810Y85782086D02*
X92608572Y85734467D01*
D10*
X14775651Y31109192D02*
X14502318Y31499668D01*
X14307080Y31109192D02*
X14307080Y31929192D01*
X14307080Y31929192D02*
X14619461Y31929192D01*
X14619461Y31929192D02*
X14697556Y31890144D01*
X14697556Y31890144D02*
X14736603Y31851097D01*
X14736603Y31851097D02*
X14775651Y31773001D01*
X14775651Y31773001D02*
X14775651Y31655859D01*
X14775651Y31655859D02*
X14736603Y31577763D01*
X14736603Y31577763D02*
X14697556Y31538716D01*
X14697556Y31538716D02*
X14619461Y31499668D01*
X14619461Y31499668D02*
X14307080Y31499668D01*
X15244222Y31577763D02*
X15166127Y31616811D01*
X15166127Y31616811D02*
X15127080Y31655859D01*
X15127080Y31655859D02*
X15088032Y31733954D01*
X15088032Y31733954D02*
X15088032Y31773001D01*
X15088032Y31773001D02*
X15127080Y31851097D01*
X15127080Y31851097D02*
X15166127Y31890144D01*
X15166127Y31890144D02*
X15244222Y31929192D01*
X15244222Y31929192D02*
X15400413Y31929192D01*
X15400413Y31929192D02*
X15478508Y31890144D01*
X15478508Y31890144D02*
X15517556Y31851097D01*
X15517556Y31851097D02*
X15556603Y31773001D01*
X15556603Y31773001D02*
X15556603Y31733954D01*
X15556603Y31733954D02*
X15517556Y31655859D01*
X15517556Y31655859D02*
X15478508Y31616811D01*
X15478508Y31616811D02*
X15400413Y31577763D01*
X15400413Y31577763D02*
X15244222Y31577763D01*
X15244222Y31577763D02*
X15166127Y31538716D01*
X15166127Y31538716D02*
X15127080Y31499668D01*
X15127080Y31499668D02*
X15088032Y31421573D01*
X15088032Y31421573D02*
X15088032Y31265382D01*
X15088032Y31265382D02*
X15127080Y31187287D01*
X15127080Y31187287D02*
X15166127Y31148239D01*
X15166127Y31148239D02*
X15244222Y31109192D01*
X15244222Y31109192D02*
X15400413Y31109192D01*
X15400413Y31109192D02*
X15478508Y31148239D01*
X15478508Y31148239D02*
X15517556Y31187287D01*
X15517556Y31187287D02*
X15556603Y31265382D01*
X15556603Y31265382D02*
X15556603Y31421573D01*
X15556603Y31421573D02*
X15517556Y31499668D01*
X15517556Y31499668D02*
X15478508Y31538716D01*
X15478508Y31538716D02*
X15400413Y31577763D01*
X29390807Y94775653D02*
X29000331Y94502319D01*
X29390807Y94307081D02*
X28570806Y94307081D01*
X28570806Y94307081D02*
X28570806Y94619462D01*
X28570806Y94619462D02*
X28609854Y94697557D01*
X28609854Y94697557D02*
X28648902Y94736605D01*
X28648902Y94736605D02*
X28726997Y94775653D01*
X28726997Y94775653D02*
X28844140Y94775653D01*
X28844140Y94775653D02*
X28922235Y94736605D01*
X28922235Y94736605D02*
X28961283Y94697557D01*
X28961283Y94697557D02*
X29000331Y94619462D01*
X29000331Y94619462D02*
X29000331Y94307081D01*
X28570806Y95048986D02*
X28570806Y95556606D01*
X28570806Y95556606D02*
X28883188Y95283272D01*
X28883188Y95283272D02*
X28883188Y95400415D01*
X28883188Y95400415D02*
X28922235Y95478511D01*
X28922235Y95478511D02*
X28961283Y95517558D01*
X28961283Y95517558D02*
X29039378Y95556606D01*
X29039378Y95556606D02*
X29234617Y95556606D01*
X29234617Y95556606D02*
X29312712Y95517558D01*
X29312712Y95517558D02*
X29351760Y95478511D01*
X29351760Y95478511D02*
X29390807Y95400415D01*
X29390807Y95400415D02*
X29390807Y95166129D01*
X29390807Y95166129D02*
X29351760Y95088034D01*
X29351760Y95088034D02*
X29312712Y95048986D01*
X28570806Y95829939D02*
X28570806Y96337559D01*
X28570806Y96337559D02*
X28883188Y96064225D01*
X28883188Y96064225D02*
X28883188Y96181368D01*
X28883188Y96181368D02*
X28922235Y96259464D01*
X28922235Y96259464D02*
X28961283Y96298511D01*
X28961283Y96298511D02*
X29039378Y96337559D01*
X29039378Y96337559D02*
X29234617Y96337559D01*
X29234617Y96337559D02*
X29312712Y96298511D01*
X29312712Y96298511D02*
X29351760Y96259464D01*
X29351760Y96259464D02*
X29390807Y96181368D01*
X29390807Y96181368D02*
X29390807Y95947082D01*
X29390807Y95947082D02*
X29351760Y95868987D01*
X29351760Y95868987D02*
X29312712Y95829939D01*
D11*
X29444819Y42088096D02*
X30254342Y42088096D01*
X30254342Y42088096D02*
X30349580Y42135715D01*
X30349580Y42135715D02*
X30397200Y42183334D01*
X30397200Y42183334D02*
X30444819Y42278572D01*
X30444819Y42278572D02*
X30444819Y42469048D01*
X30444819Y42469048D02*
X30397200Y42564286D01*
X30397200Y42564286D02*
X30349580Y42611905D01*
X30349580Y42611905D02*
X30254342Y42659524D01*
X30254342Y42659524D02*
X29444819Y42659524D01*
X30444819Y43659524D02*
X30444819Y43088096D01*
X30444819Y43373810D02*
X29444819Y43373810D01*
X29444819Y43373810D02*
X29587676Y43278572D01*
X29587676Y43278572D02*
X29682914Y43183334D01*
X29682914Y43183334D02*
X29730533Y43088096D01*
D10*
X46736985Y20540093D02*
X46346509Y20266760D01*
X46736985Y20071522D02*
X45916985Y20071522D01*
X45916985Y20071522D02*
X45916985Y20383903D01*
X45916985Y20383903D02*
X45956033Y20461998D01*
X45956033Y20461998D02*
X45995080Y20501045D01*
X45995080Y20501045D02*
X46073176Y20540093D01*
X46073176Y20540093D02*
X46190318Y20540093D01*
X46190318Y20540093D02*
X46268414Y20501045D01*
X46268414Y20501045D02*
X46307461Y20461998D01*
X46307461Y20461998D02*
X46346509Y20383903D01*
X46346509Y20383903D02*
X46346509Y20071522D01*
X46736985Y21321045D02*
X46736985Y20852474D01*
X46736985Y21086760D02*
X45916985Y21086760D01*
X45916985Y21086760D02*
X46034128Y21008664D01*
X46034128Y21008664D02*
X46112223Y20930569D01*
X46112223Y20930569D02*
X46151271Y20852474D01*
X45916985Y21594378D02*
X45916985Y22101997D01*
X45916985Y22101997D02*
X46229366Y21828664D01*
X46229366Y21828664D02*
X46229366Y21945807D01*
X46229366Y21945807D02*
X46268414Y22023902D01*
X46268414Y22023902D02*
X46307461Y22062950D01*
X46307461Y22062950D02*
X46385557Y22101997D01*
X46385557Y22101997D02*
X46580795Y22101997D01*
X46580795Y22101997D02*
X46658890Y22062950D01*
X46658890Y22062950D02*
X46697938Y22023902D01*
X46697938Y22023902D02*
X46736985Y21945807D01*
X46736985Y21945807D02*
X46736985Y21711521D01*
X46736985Y21711521D02*
X46697938Y21633426D01*
X46697938Y21633426D02*
X46658890Y21594378D01*
X18775651Y31109192D02*
X18502318Y31499668D01*
X18307080Y31109192D02*
X18307080Y31929192D01*
X18307080Y31929192D02*
X18619461Y31929192D01*
X18619461Y31929192D02*
X18697556Y31890144D01*
X18697556Y31890144D02*
X18736603Y31851097D01*
X18736603Y31851097D02*
X18775651Y31773001D01*
X18775651Y31773001D02*
X18775651Y31655859D01*
X18775651Y31655859D02*
X18736603Y31577763D01*
X18736603Y31577763D02*
X18697556Y31538716D01*
X18697556Y31538716D02*
X18619461Y31499668D01*
X18619461Y31499668D02*
X18307080Y31499668D01*
X19048984Y31929192D02*
X19595651Y31929192D01*
X19595651Y31929192D02*
X19244222Y31109192D01*
X59236985Y33690093D02*
X58846509Y33416760D01*
X59236985Y33221522D02*
X58416985Y33221522D01*
X58416985Y33221522D02*
X58416985Y33533903D01*
X58416985Y33533903D02*
X58456033Y33611998D01*
X58456033Y33611998D02*
X58495080Y33651045D01*
X58495080Y33651045D02*
X58573176Y33690093D01*
X58573176Y33690093D02*
X58690318Y33690093D01*
X58690318Y33690093D02*
X58768414Y33651045D01*
X58768414Y33651045D02*
X58807461Y33611998D01*
X58807461Y33611998D02*
X58846509Y33533903D01*
X58846509Y33533903D02*
X58846509Y33221522D01*
X58495080Y34002474D02*
X58456033Y34041522D01*
X58456033Y34041522D02*
X58416985Y34119617D01*
X58416985Y34119617D02*
X58416985Y34314855D01*
X58416985Y34314855D02*
X58456033Y34392950D01*
X58456033Y34392950D02*
X58495080Y34431998D01*
X58495080Y34431998D02*
X58573176Y34471045D01*
X58573176Y34471045D02*
X58651271Y34471045D01*
X58651271Y34471045D02*
X58768414Y34431998D01*
X58768414Y34431998D02*
X59236985Y33963426D01*
X59236985Y33963426D02*
X59236985Y34471045D01*
X59236985Y35251997D02*
X59236985Y34783426D01*
X59236985Y35017712D02*
X58416985Y35017712D01*
X58416985Y35017712D02*
X58534128Y34939616D01*
X58534128Y34939616D02*
X58612223Y34861521D01*
X58612223Y34861521D02*
X58651271Y34783426D01*
D11*
X42501009Y23977977D02*
X42501009Y23644644D01*
X43024819Y23644644D02*
X42024819Y23644644D01*
X42024819Y23644644D02*
X42024819Y24120834D01*
X43024819Y25025596D02*
X43024819Y24454168D01*
X43024819Y24739882D02*
X42024819Y24739882D01*
X42024819Y24739882D02*
X42167676Y24644644D01*
X42167676Y24644644D02*
X42262914Y24549406D01*
X42262914Y24549406D02*
X42310533Y24454168D01*
X42120057Y25406549D02*
X42072438Y25454168D01*
X42072438Y25454168D02*
X42024819Y25549406D01*
X42024819Y25549406D02*
X42024819Y25787501D01*
X42024819Y25787501D02*
X42072438Y25882739D01*
X42072438Y25882739D02*
X42120057Y25930358D01*
X42120057Y25930358D02*
X42215295Y25977977D01*
X42215295Y25977977D02*
X42310533Y25977977D01*
X42310533Y25977977D02*
X42453390Y25930358D01*
X42453390Y25930358D02*
X43024819Y25358930D01*
X43024819Y25358930D02*
X43024819Y25977977D01*
D10*
X64890808Y34175652D02*
X64500332Y33902319D01*
X64890808Y33707081D02*
X64070808Y33707081D01*
X64070808Y33707081D02*
X64070808Y34019462D01*
X64070808Y34019462D02*
X64109856Y34097557D01*
X64109856Y34097557D02*
X64148903Y34136604D01*
X64148903Y34136604D02*
X64226999Y34175652D01*
X64226999Y34175652D02*
X64344141Y34175652D01*
X64344141Y34175652D02*
X64422237Y34136604D01*
X64422237Y34136604D02*
X64461284Y34097557D01*
X64461284Y34097557D02*
X64500332Y34019462D01*
X64500332Y34019462D02*
X64500332Y33707081D01*
X64070808Y34878509D02*
X64070808Y34722319D01*
X64070808Y34722319D02*
X64109856Y34644223D01*
X64109856Y34644223D02*
X64148903Y34605176D01*
X64148903Y34605176D02*
X64266046Y34527081D01*
X64266046Y34527081D02*
X64422237Y34488033D01*
X64422237Y34488033D02*
X64734618Y34488033D01*
X64734618Y34488033D02*
X64812713Y34527081D01*
X64812713Y34527081D02*
X64851761Y34566128D01*
X64851761Y34566128D02*
X64890808Y34644223D01*
X64890808Y34644223D02*
X64890808Y34800414D01*
X64890808Y34800414D02*
X64851761Y34878509D01*
X64851761Y34878509D02*
X64812713Y34917557D01*
X64812713Y34917557D02*
X64734618Y34956604D01*
X64734618Y34956604D02*
X64539380Y34956604D01*
X64539380Y34956604D02*
X64461284Y34917557D01*
X64461284Y34917557D02*
X64422237Y34878509D01*
X64422237Y34878509D02*
X64383189Y34800414D01*
X64383189Y34800414D02*
X64383189Y34644223D01*
X64383189Y34644223D02*
X64422237Y34566128D01*
X64422237Y34566128D02*
X64461284Y34527081D01*
X64461284Y34527081D02*
X64539380Y34488033D01*
D11*
X62549819Y42213096D02*
X63359342Y42213096D01*
X63359342Y42213096D02*
X63454580Y42260715D01*
X63454580Y42260715D02*
X63502200Y42308334D01*
X63502200Y42308334D02*
X63549819Y42403572D01*
X63549819Y42403572D02*
X63549819Y42594048D01*
X63549819Y42594048D02*
X63502200Y42689286D01*
X63502200Y42689286D02*
X63454580Y42736905D01*
X63454580Y42736905D02*
X63359342Y42784524D01*
X63359342Y42784524D02*
X62549819Y42784524D01*
X62549819Y43165477D02*
X62549819Y43784524D01*
X62549819Y43784524D02*
X62930771Y43451191D01*
X62930771Y43451191D02*
X62930771Y43594048D01*
X62930771Y43594048D02*
X62978390Y43689286D01*
X62978390Y43689286D02*
X63026009Y43736905D01*
X63026009Y43736905D02*
X63121247Y43784524D01*
X63121247Y43784524D02*
X63359342Y43784524D01*
X63359342Y43784524D02*
X63454580Y43736905D01*
X63454580Y43736905D02*
X63502200Y43689286D01*
X63502200Y43689286D02*
X63549819Y43594048D01*
X63549819Y43594048D02*
X63549819Y43308334D01*
X63549819Y43308334D02*
X63502200Y43213096D01*
X63502200Y43213096D02*
X63454580Y43165477D01*
X46001009Y23977977D02*
X46001009Y23644644D01*
X46524819Y23644644D02*
X45524819Y23644644D01*
X45524819Y23644644D02*
X45524819Y24120834D01*
X46524819Y25025596D02*
X46524819Y24454168D01*
X46524819Y24739882D02*
X45524819Y24739882D01*
X45524819Y24739882D02*
X45667676Y24644644D01*
X45667676Y24644644D02*
X45762914Y24549406D01*
X45762914Y24549406D02*
X45810533Y24454168D01*
X45524819Y25358930D02*
X45524819Y25977977D01*
X45524819Y25977977D02*
X45905771Y25644644D01*
X45905771Y25644644D02*
X45905771Y25787501D01*
X45905771Y25787501D02*
X45953390Y25882739D01*
X45953390Y25882739D02*
X46001009Y25930358D01*
X46001009Y25930358D02*
X46096247Y25977977D01*
X46096247Y25977977D02*
X46334342Y25977977D01*
X46334342Y25977977D02*
X46429580Y25930358D01*
X46429580Y25930358D02*
X46477200Y25882739D01*
X46477200Y25882739D02*
X46524819Y25787501D01*
X46524819Y25787501D02*
X46524819Y25501787D01*
X46524819Y25501787D02*
X46477200Y25406549D01*
X46477200Y25406549D02*
X46429580Y25358930D01*
X46049819Y41736906D02*
X46859342Y41736906D01*
X46859342Y41736906D02*
X46954580Y41784525D01*
X46954580Y41784525D02*
X47002200Y41832144D01*
X47002200Y41832144D02*
X47049819Y41927382D01*
X47049819Y41927382D02*
X47049819Y42117858D01*
X47049819Y42117858D02*
X47002200Y42213096D01*
X47002200Y42213096D02*
X46954580Y42260715D01*
X46954580Y42260715D02*
X46859342Y42308334D01*
X46859342Y42308334D02*
X46049819Y42308334D01*
X47049819Y43308334D02*
X47049819Y42736906D01*
X47049819Y43022620D02*
X46049819Y43022620D01*
X46049819Y43022620D02*
X46192676Y42927382D01*
X46192676Y42927382D02*
X46287914Y42832144D01*
X46287914Y42832144D02*
X46335533Y42736906D01*
X46049819Y43927382D02*
X46049819Y44022620D01*
X46049819Y44022620D02*
X46097438Y44117858D01*
X46097438Y44117858D02*
X46145057Y44165477D01*
X46145057Y44165477D02*
X46240295Y44213096D01*
X46240295Y44213096D02*
X46430771Y44260715D01*
X46430771Y44260715D02*
X46668866Y44260715D01*
X46668866Y44260715D02*
X46859342Y44213096D01*
X46859342Y44213096D02*
X46954580Y44165477D01*
X46954580Y44165477D02*
X47002200Y44117858D01*
X47002200Y44117858D02*
X47049819Y44022620D01*
X47049819Y44022620D02*
X47049819Y43927382D01*
X47049819Y43927382D02*
X47002200Y43832144D01*
X47002200Y43832144D02*
X46954580Y43784525D01*
X46954580Y43784525D02*
X46859342Y43736906D01*
X46859342Y43736906D02*
X46668866Y43689287D01*
X46668866Y43689287D02*
X46430771Y43689287D01*
X46430771Y43689287D02*
X46240295Y43736906D01*
X46240295Y43736906D02*
X46145057Y43784525D01*
X46145057Y43784525D02*
X46097438Y43832144D01*
X46097438Y43832144D02*
X46049819Y43927382D01*
D10*
X10277532Y44927418D02*
X10238484Y44888370D01*
X10238484Y44888370D02*
X10121341Y44849323D01*
X10121341Y44849323D02*
X10043246Y44849323D01*
X10043246Y44849323D02*
X9926103Y44888370D01*
X9926103Y44888370D02*
X9848008Y44966466D01*
X9848008Y44966466D02*
X9808960Y45044561D01*
X9808960Y45044561D02*
X9769912Y45200752D01*
X9769912Y45200752D02*
X9769912Y45317895D01*
X9769912Y45317895D02*
X9808960Y45474085D01*
X9808960Y45474085D02*
X9848008Y45552181D01*
X9848008Y45552181D02*
X9926103Y45630276D01*
X9926103Y45630276D02*
X10043246Y45669324D01*
X10043246Y45669324D02*
X10121341Y45669324D01*
X10121341Y45669324D02*
X10238484Y45630276D01*
X10238484Y45630276D02*
X10277532Y45591228D01*
X11058485Y44849323D02*
X10589913Y44849323D01*
X10824199Y44849323D02*
X10824199Y45669324D01*
X10824199Y45669324D02*
X10746104Y45552181D01*
X10746104Y45552181D02*
X10668009Y45474085D01*
X10668009Y45474085D02*
X10589913Y45435038D01*
D11*
X48846666Y106945181D02*
X48846666Y106230896D01*
X48846666Y106230896D02*
X48799047Y106088039D01*
X48799047Y106088039D02*
X48703809Y105992800D01*
X48703809Y105992800D02*
X48560952Y105945181D01*
X48560952Y105945181D02*
X48465714Y105945181D01*
X49275238Y106849943D02*
X49322857Y106897562D01*
X49322857Y106897562D02*
X49418095Y106945181D01*
X49418095Y106945181D02*
X49656190Y106945181D01*
X49656190Y106945181D02*
X49751428Y106897562D01*
X49751428Y106897562D02*
X49799047Y106849943D01*
X49799047Y106849943D02*
X49846666Y106754705D01*
X49846666Y106754705D02*
X49846666Y106659467D01*
X49846666Y106659467D02*
X49799047Y106516610D01*
X49799047Y106516610D02*
X49227619Y105945181D01*
X49227619Y105945181D02*
X49846666Y105945181D01*
D10*
X34385808Y33775652D02*
X33995332Y33502319D01*
X34385808Y33307081D02*
X33565808Y33307081D01*
X33565808Y33307081D02*
X33565808Y33619462D01*
X33565808Y33619462D02*
X33604856Y33697557D01*
X33604856Y33697557D02*
X33643903Y33736604D01*
X33643903Y33736604D02*
X33721999Y33775652D01*
X33721999Y33775652D02*
X33839141Y33775652D01*
X33839141Y33775652D02*
X33917237Y33736604D01*
X33917237Y33736604D02*
X33956284Y33697557D01*
X33956284Y33697557D02*
X33995332Y33619462D01*
X33995332Y33619462D02*
X33995332Y33307081D01*
X33643903Y34088033D02*
X33604856Y34127081D01*
X33604856Y34127081D02*
X33565808Y34205176D01*
X33565808Y34205176D02*
X33565808Y34400414D01*
X33565808Y34400414D02*
X33604856Y34478509D01*
X33604856Y34478509D02*
X33643903Y34517557D01*
X33643903Y34517557D02*
X33721999Y34556604D01*
X33721999Y34556604D02*
X33800094Y34556604D01*
X33800094Y34556604D02*
X33917237Y34517557D01*
X33917237Y34517557D02*
X34385808Y34048985D01*
X34385808Y34048985D02*
X34385808Y34556604D01*
D13*
G04 #@! TO.C,CPU1*
X67700000Y86300000D02*
X67700000Y52499990D01*
X31900010Y86300000D02*
X67700000Y86300000D01*
X31900010Y86300000D02*
X31900010Y52500000D01*
X31900010Y52499990D02*
X67700000Y52499990D01*
D14*
G04 #@! TO.C,R1*
X31924160Y34201056D02*
X31924149Y33801057D01*
X32669995Y34200000D02*
X32669985Y33800000D01*
G04 #@! TO.C,R22*
X57125005Y33950000D02*
X57125015Y34350000D01*
X57870840Y33948944D02*
X57870851Y34348943D01*
D12*
G04 #@! TO.C,MAP1*
X6637500Y54277500D02*
X6637500Y53115000D01*
X6637500Y46912500D02*
X6637500Y48075000D01*
X14002500Y54277500D02*
X6637500Y54277500D01*
X14002500Y54277500D02*
X14002500Y53115000D01*
X14002500Y46912500D02*
X6637500Y46912500D01*
X14002500Y46912500D02*
X14002500Y48075000D01*
D13*
X16720000Y48100000D02*
G75*
G02*
X16520000Y48100000I-100000J0D01*
G01*
X16520000Y48100000D02*
G75*
G02*
X16720000Y48100000I100000J0D01*
G01*
D15*
G04 #@! TO.C,R9*
X15525979Y38300000D02*
X16541979Y38300000D01*
X16541979Y36700000D02*
X15525979Y36700000D01*
X17557979Y38300000D02*
X18573979Y38300000D01*
X18573979Y36700000D02*
X17557979Y36700000D01*
D16*
X15466377Y36696505D02*
G75*
G02*
X15474979Y38300000I-321398J803495D01*
G01*
X18624979Y38300000D02*
G75*
G02*
X18628979Y36698362I330000J-800000D01*
G01*
D14*
G04 #@! TO.C,R11*
X40625005Y20800000D02*
X40625015Y21200000D01*
X41370840Y20798944D02*
X41370851Y21198943D01*
G04 #@! TO.C,R14*
X50125005Y20800000D02*
X50125015Y21200000D01*
X50870840Y20798944D02*
X50870851Y21198943D01*
D16*
G04 #@! TO.C,F11*
X40460000Y24624721D02*
X40460000Y24950279D01*
X41480000Y24624721D02*
X41480000Y24950279D01*
G04 #@! TO.C,U2*
X39130000Y42975000D02*
X39130000Y44925000D01*
X39130000Y42975000D02*
X39130000Y41025000D01*
X44250000Y42975000D02*
X44250000Y44925000D01*
X44250000Y42975000D02*
X44250000Y41025000D01*
X39225000Y40275000D02*
X38895000Y40035000D01*
X38895000Y40515000D01*
X39225000Y40275000D01*
G36*
X39225000Y40275000D02*
G01*
X38895000Y40035000D01*
X38895000Y40515000D01*
X39225000Y40275000D01*
G37*
D13*
G04 #@! TO.C,R32*
X26847073Y95754388D02*
X26847073Y95354388D01*
X28150001Y95749999D02*
X28150001Y95349999D01*
D14*
G04 #@! TO.C,R4*
X42924160Y34201056D02*
X42924149Y33801057D01*
X43669995Y34200000D02*
X43669985Y33800000D01*
G04 #@! TO.C,R24*
X48625005Y34000000D02*
X48625015Y34400000D01*
X49370840Y33998944D02*
X49370851Y34398943D01*
D13*
G04 #@! TO.C,M4*
X76575000Y19525000D02*
X76575000Y5125000D01*
X76575000Y5125000D02*
X82975000Y5125000D01*
X86175000Y20125000D02*
X81075000Y20125000D01*
X86175000Y5125000D02*
X84875000Y5125000D01*
X86175000Y5125000D02*
X86175000Y20125000D01*
D16*
G04 #@! TO.C,USB1*
X83140000Y93110000D02*
X83140000Y91860000D01*
X83440000Y92810000D02*
X83440000Y88090000D01*
X83440000Y91500000D02*
X84050000Y91500000D01*
X83440000Y90200000D02*
X84050000Y90200000D01*
X83440000Y88090000D02*
X93560000Y88090000D01*
X84050000Y92200000D02*
X84050000Y88700000D01*
X84050000Y88700000D02*
X92950000Y88700000D01*
X84390000Y93110000D02*
X83140000Y93110000D01*
X84900000Y93010000D02*
X84900000Y92810000D01*
X85200000Y93010000D02*
X84900000Y93010000D01*
X85200000Y92910000D02*
X84900000Y92910000D01*
X85200000Y92810000D02*
X85200000Y93010000D01*
X86000000Y92810000D02*
X86000000Y92200000D01*
X86000000Y92200000D02*
X84050000Y92200000D01*
X86400000Y89200000D02*
X86600000Y89200000D01*
X86400000Y88700000D02*
X86400000Y89200000D01*
X86500000Y88700000D02*
X86500000Y89200000D01*
X86600000Y89200000D02*
X86600000Y88700000D01*
X88400000Y89200000D02*
X88600000Y89200000D01*
X88400000Y88700000D02*
X88400000Y89200000D01*
X88500000Y88700000D02*
X88500000Y89200000D01*
X88600000Y89200000D02*
X88600000Y88700000D01*
X90400000Y89200000D02*
X90600000Y89200000D01*
X90400000Y88700000D02*
X90400000Y89200000D01*
X90500000Y88700000D02*
X90500000Y89200000D01*
X90600000Y89200000D02*
X90600000Y88700000D01*
X91000000Y92200000D02*
X91000000Y92810000D01*
X92950000Y92200000D02*
X91000000Y92200000D01*
X92950000Y88700000D02*
X92950000Y92200000D01*
X93560000Y92810000D02*
X83440000Y92810000D01*
X93560000Y91500000D02*
X92950000Y91500000D01*
X93560000Y90200000D02*
X92950000Y90200000D01*
X93560000Y88090000D02*
X93560000Y92810000D01*
D14*
G04 #@! TO.C,R3*
X40424160Y34201056D02*
X40424149Y33801057D01*
X41169995Y34200000D02*
X41169985Y33800000D01*
G04 #@! TO.C,R5*
X67629160Y34401056D02*
X67629149Y34001057D01*
X68374995Y34400000D02*
X68374985Y34000000D01*
D13*
G04 #@! TO.C,R31*
X23847073Y95754388D02*
X23847073Y95354388D01*
X25150001Y95749999D02*
X25150001Y95349999D01*
G04 #@! TO.C,R41*
X26845590Y80847073D02*
X27245590Y80847073D01*
X26849979Y82150001D02*
X27249979Y82150001D01*
D14*
G04 #@! TO.C,R12*
X43625005Y20800000D02*
X43625015Y21200000D01*
X44370840Y20798944D02*
X44370851Y21198943D01*
D13*
G04 #@! TO.C,R42*
X26845590Y83847073D02*
X27245590Y83847073D01*
X26849979Y85150001D02*
X27249979Y85150001D01*
D16*
G04 #@! TO.C,U9*
X56035000Y42975000D02*
X56035000Y44925000D01*
X56035000Y42975000D02*
X56035000Y41025000D01*
X61155000Y42975000D02*
X61155000Y44925000D01*
X61155000Y42975000D02*
X61155000Y41025000D01*
X56130000Y40275000D02*
X55800000Y40035000D01*
X55800000Y40515000D01*
X56130000Y40275000D01*
G36*
X56130000Y40275000D02*
G01*
X55800000Y40035000D01*
X55800000Y40515000D01*
X56130000Y40275000D01*
G37*
D13*
G04 #@! TO.C,R43*
X16845590Y32847073D02*
X17245590Y32847073D01*
X16849979Y34150001D02*
X17249979Y34150001D01*
D16*
G04 #@! TO.C,F14*
X49990000Y24624721D02*
X49990000Y24950279D01*
X51010000Y24624721D02*
X51010000Y24950279D01*
G04 #@! TO.C,F2*
X10900000Y31000000D02*
X6050000Y31000000D01*
X10900000Y29000000D02*
X6050000Y29000000D01*
X6050000Y29000000D02*
G75*
G02*
X6050000Y31000000I0J1000000D01*
G01*
X10950000Y31000000D02*
G75*
G02*
X10950000Y29000000I0J-1000000D01*
G01*
D13*
G04 #@! TO.C,M1*
X5724999Y20324999D02*
X5724999Y23525002D01*
X5724999Y8224999D02*
X5724999Y18625001D01*
X5724999Y6324999D02*
X5724999Y6624999D01*
X5724999Y6324999D02*
X21124999Y6324999D01*
X7224999Y26924997D02*
X22524998Y26924999D01*
X22524996Y20225001D02*
X22524996Y25025001D01*
X22524996Y14024999D02*
X22524996Y16724999D01*
X22524996Y11325001D02*
X22524996Y12425004D01*
X22524996Y7774999D02*
X22525001Y9324999D01*
X22524998Y26625001D02*
X22524998Y26924999D01*
D14*
G04 #@! TO.C,R23*
X51625005Y34000000D02*
X51625015Y34400000D01*
X52370840Y33998944D02*
X52370851Y34398943D01*
D16*
G04 #@! TO.C,BLUETOOTH1*
X83550000Y83830000D02*
X84880000Y83830000D01*
X83550000Y82500000D02*
X83550000Y83830000D01*
X86150000Y83830000D02*
X93830000Y83830000D01*
X86150000Y81170000D02*
X86150000Y83830000D01*
X86150000Y81170000D02*
X93830000Y81170000D01*
X93830000Y81170000D02*
X93830000Y83830000D01*
D14*
G04 #@! TO.C,R8*
X14900000Y29625005D02*
X14500000Y29625015D01*
X14901056Y30370840D02*
X14501057Y30370851D01*
D13*
G04 #@! TO.C,R33*
X29847073Y95754388D02*
X29847073Y95354388D01*
X31150001Y95749999D02*
X31150001Y95349999D01*
D16*
G04 #@! TO.C,U1*
X30830000Y42850000D02*
X30830000Y44800000D01*
X30830000Y42850000D02*
X30830000Y40900000D01*
X35950000Y42850000D02*
X35950000Y44800000D01*
X35950000Y42850000D02*
X35950000Y40900000D01*
X30925000Y40150000D02*
X30595000Y39910000D01*
X30595000Y40390000D01*
X30925000Y40150000D01*
G36*
X30925000Y40150000D02*
G01*
X30595000Y39910000D01*
X30595000Y40390000D01*
X30925000Y40150000D01*
G37*
D14*
G04 #@! TO.C,R13*
X47125005Y20800000D02*
X47125015Y21200000D01*
X47870840Y20798944D02*
X47870851Y21198943D01*
G04 #@! TO.C,R7*
X18900000Y29625005D02*
X18500000Y29625015D01*
X18901056Y30370840D02*
X18501057Y30370851D01*
G04 #@! TO.C,R21*
X59625005Y33950000D02*
X59625015Y34350000D01*
X60370840Y33948944D02*
X60370851Y34348943D01*
D16*
G04 #@! TO.C,F12*
X43490000Y24624721D02*
X43490000Y24950279D01*
X44510000Y24624721D02*
X44510000Y24950279D01*
D14*
G04 #@! TO.C,R6*
X65129160Y34401056D02*
X65129149Y34001057D01*
X65874995Y34400000D02*
X65874985Y34000000D01*
D16*
G04 #@! TO.C,U3*
X64035000Y42975000D02*
X64035000Y44925000D01*
X64035000Y42975000D02*
X64035000Y41025000D01*
X69155000Y42975000D02*
X69155000Y44925000D01*
X69155000Y42975000D02*
X69155000Y41025000D01*
X64130000Y40275000D02*
X63800000Y40035000D01*
X63800000Y40515000D01*
X64130000Y40275000D01*
G36*
X64130000Y40275000D02*
G01*
X63800000Y40035000D01*
X63800000Y40515000D01*
X64130000Y40275000D01*
G37*
G04 #@! TO.C,F13*
X46990000Y24624721D02*
X46990000Y24950279D01*
X48010000Y24624721D02*
X48010000Y24950279D01*
G04 #@! TO.C,U10*
X47535000Y42975000D02*
X47535000Y44925000D01*
X47535000Y42975000D02*
X47535000Y41025000D01*
X52655000Y42975000D02*
X52655000Y44925000D01*
X52655000Y42975000D02*
X52655000Y41025000D01*
X47630000Y40275000D02*
X47300000Y40035000D01*
X47300000Y40515000D01*
X47630000Y40275000D01*
G36*
X47630000Y40275000D02*
G01*
X47300000Y40035000D01*
X47300000Y40515000D01*
X47630000Y40275000D01*
G37*
D13*
G04 #@! TO.C,C1*
X10209999Y44349986D02*
X10209999Y43600001D01*
D16*
G04 #@! TO.C,J2*
X9770000Y105310000D02*
X9770000Y98690000D01*
X9770000Y98690000D02*
X49180000Y98690000D01*
X11060000Y97300000D02*
X11560000Y98300000D01*
X11560000Y98300000D02*
X12060000Y97300000D01*
X12060000Y97300000D02*
X11060000Y97300000D01*
X49180000Y105310000D02*
X9770000Y105310000D01*
X49180000Y105310000D02*
X88590000Y105310000D01*
X88590000Y105310000D02*
X88590000Y98690000D01*
X88590000Y98690000D02*
X49180000Y98690000D01*
D14*
G04 #@! TO.C,R2*
X34624160Y34201056D02*
X34624149Y33801057D01*
X35369995Y34200000D02*
X35369985Y33800000D01*
G04 #@! TD*
M02*
