M48
; DRILL file {KiCad 8.0.7} date 2025-04-19T22:30:46+0300
; FORMAT={2:4/ absolute / inch / suppress leading zeros}
; #@! TF.CreationDate,2025-04-19T22:30:46+03:00
; #@! TF.GenerationSoftware,Kicad,Pcbnew,8.0.7
; #@! TF.FileFunction,MixedPlating,1,4
FMAT,2
INCH,TZ
; #@! TA.AperFunction,Plated,PTH,ComponentDrill
T1C0.0118
; #@! TA.AperFunction,Plated,PTH,ViaDrill
T2C0.0157
; #@! TA.AperFunction,Plated,PTH,ComponentDrill
T3C0.0295
; #@! TA.AperFunction,Plated,PTH,ComponentDrill
T4C0.0320
; #@! TA.AperFunction,Plated,PTH,ComponentDrill
T5C0.0394
; #@! TA.AperFunction,Plated,PTH,ComponentDrill
T6C0.0551
; #@! TA.AperFunction,Plated,PTH,ComponentDrill
T7C0.0591
%
G90
G05
T1
X8789Y4262
X8789Y3868
X12638Y33740
X12638Y32795
X12638Y32323
X12638Y31850
X12638Y31378
X12638Y30906
X12638Y30433
X12638Y29961
X12638Y29488
X12638Y29016
X12638Y28543
X12638Y28071
X12638Y27598
X12638Y27126
X12638Y26654
X12638Y26181
X12638Y25709
X12638Y25236
X12638Y24764
X12638Y24291
X12638Y23819
X12638Y23346
X13622Y33898
X14016Y33898
X15197Y20748
X16890Y20748
X17205Y20748
X17520Y20748
X17835Y20748
X18150Y20748
X18228Y33898
X18465Y20748
X18622Y33898
X18780Y20748
X19016Y33898
X19094Y20748
X19409Y33898
X19409Y20748
X19724Y20748
X19803Y33898
X20039Y20748
X20197Y33898
X20354Y20748
X20591Y33898
X20669Y20748
X20984Y33898
X20984Y20748
X21299Y20748
X21614Y20748
X22008Y33898
X22165Y20748
X22323Y33898
X22480Y20748
X22795Y20748
X23110Y20748
X23425Y20748
X23740Y20748
X24173Y33898
X24724Y33898
X26575Y33898
X26575Y30984
X26575Y30591
X26575Y29528
X26575Y27835
X26575Y27520
X26575Y25630
X26575Y25315
X26575Y24370
X26575Y24055
X26575Y23740
X26575Y23425
X26575Y27205
X26575Y26890
X26575Y26575
X26575Y26260
X26575Y25945
X26575Y23110
X26575Y22795
X26575Y22480
X26575Y22165
X26575Y21850
X26575Y21535
X26575Y21220
X26575Y20906
X30305Y7805
X30778Y7805
X31250Y7805
X31722Y7805
X32848Y2126
X33242Y2126
T2
X591Y42323
X984Y41929
X1378Y41535
X1575Y8661
X4331Y37402
X4724Y37402
X5118Y37402
X5512Y37402
X5906Y38386
X5906Y37402
X5906Y19669
X6299Y37402
X6693Y37402
X7087Y37402
X7087Y29921
X7087Y28543
X7087Y20472
X7087Y13189
X7480Y37402
X7480Y29921
X7480Y20472
X7874Y37402
X7874Y29921
X7874Y20472
X8268Y37402
X8268Y20472
X9449Y4724
X9843Y33661
X10236Y34055
X10276Y33268
X10276Y32087
X11220Y25197
X11220Y19488
X11417Y13189
X11614Y25197
X12008Y37244
X12008Y25197
X12008Y22835
X12008Y22441
X12008Y22047
X12008Y21654
X12008Y21260
X12008Y20866
X12205Y33465
X12402Y18701
X12598Y12008
X12598Y11614
X12598Y11220
X12598Y10827
X12598Y10433
X12598Y10039
X12795Y18701
X13189Y18701
X13583Y18701
X13976Y18701
X14370Y34646
X14567Y11417
X15945Y20079
X16142Y40945
X16142Y34843
X16339Y20079
X16535Y34843
X16732Y20079
X16732Y9055
X16732Y7283
X16929Y34843
X17717Y9055
X17717Y7283
X18307Y9055
X18307Y7283
X19291Y18898
X20079Y18898
X20472Y12402
X20472Y9449
X20669Y8465
X20866Y11949
X20866Y9449
X21457Y9449
X21998Y8415
X22047Y19488
X22441Y19488
X22441Y18898
X23228Y34646
X23228Y18898
X24409Y17717
X24409Y17323
X24409Y16929
X26378Y35236
X26575Y18898
X26969Y24803
X26969Y18898
X27362Y29134
X27362Y28740
X27362Y28346
X27362Y26772
X27362Y26378
X27362Y25984
X27362Y24803
X27362Y18898
X28740Y41142
X30315Y41142
X30512Y1772
X30880Y27782
X30906Y1772
X31496Y1772
X31890Y1772
X32874Y866
X33858Y28740
X34055Y28346
X34252Y28740
X34252Y27953
X34449Y27559
X34646Y30118
X34646Y28740
X34646Y27165
X34843Y27559
X34843Y26772
X35039Y29921
X35039Y28740
X35039Y27165
X35039Y26378
X35236Y29528
X35236Y29134
X35236Y27559
X35236Y26772
X35236Y25984
X35433Y28740
X35433Y27165
X35433Y26378
X35630Y27559
X35630Y26772
X35827Y28740
X35827Y27165
X36024Y27559
X36220Y28740
X36220Y27953
X36417Y41732
X36417Y28346
X36614Y28740
X36614Y1378
X36811Y41929
X36811Y41535
X37008Y1575
X37008Y1181
X37205Y42126
X37205Y41732
X37205Y41339
X37402Y1772
X37402Y1378
X37402Y984
X37598Y42323
X37598Y41929
X37598Y41535
X37598Y41142
X37795Y1969
X37795Y1575
X37795Y1181
X37795Y787
X37992Y42520
X37992Y42126
X37992Y41732
X37992Y41339
X37992Y40945
X38189Y2165
X38189Y1772
X38189Y1378
X38189Y984
X38189Y591
T3
X33661Y35827
X34449Y35827
X35236Y35827
X36024Y35827
T4
X2382Y11811
X4311Y11811
X5963Y14764
X7463Y14764
T5
X2510Y10344
X2510Y9616
X2510Y7667
X2510Y2923
X8612Y10167
X8612Y7648
X8612Y6900
X8612Y5207
X8612Y2746
X33417Y32480
X34417Y32480
X35417Y32480
X36417Y32480
T6
X4551Y40157
X6110Y40157
X7669Y40157
X9228Y40157
X10787Y40157
X12346Y40157
X13906Y40157
X15465Y40157
X16088Y6154
X16088Y2754
X16090Y4464
X17024Y40157
X17388Y6154
X17388Y2754
X17390Y4464
X18583Y40157
X18688Y6154
X18688Y2754
X18690Y4464
X19988Y6154
X19988Y2754
X19990Y4464
X20142Y40157
X21288Y6154
X21288Y2754
X21290Y4464
X21701Y40157
X22588Y6154
X22588Y2754
X22590Y4464
X23260Y40157
X24819Y40157
X26378Y40157
X27937Y40157
X29496Y40157
X31055Y40157
X32614Y40157
X34173Y40157
T7
X14488Y6154
X14488Y2754
X14490Y4464
X24188Y6154
X24190Y4464
X24227Y2754
M30
