G04 #@! TF.GenerationSoftware,KiCad,Pcbnew,8.0.9-8.0.9-0~ubuntu24.04.1*
G04 #@! TF.CreationDate,2025-04-19T19:35:51+00:00*
G04 #@! TF.ProjectId,stabiljr,73746162-696c-46a7-922e-6b696361645f,V1*
G04 #@! TF.SameCoordinates,PX3a2c940PY8e93060*
G04 #@! TF.FileFunction,Legend,Bot*
G04 #@! TF.FilePolarity,Positive*
%FSLAX46Y46*%
G04 Gerber Fmt 4.6, Leading zero omitted, Abs format (unit mm)*
G04 Created by KiCad (PCBNEW 8.0.9-8.0.9-0~ubuntu24.04.1) date 2025-04-19 19:35:51*
%MOMM*%
%LPD*%
G01*
G04 APERTURE LIST*
%ADD10C,0.127000*%
%ADD11C,0.203200*%
%ADD12C,0.099060*%
%ADD13C,0.120000*%
%ADD14C,0.200000*%
%ADD15C,0.254000*%
G04 APERTURE END LIST*
D10*
X17395890Y37627000D02*
X17033033Y37881000D01*
X17395890Y38062429D02*
X16633890Y38062429D01*
X16633890Y38062429D02*
X16633890Y37772143D01*
X16633890Y37772143D02*
X16670176Y37699572D01*
X16670176Y37699572D02*
X16706462Y37663286D01*
X16706462Y37663286D02*
X16779033Y37627000D01*
X16779033Y37627000D02*
X16887890Y37627000D01*
X16887890Y37627000D02*
X16960462Y37663286D01*
X16960462Y37663286D02*
X16996747Y37699572D01*
X16996747Y37699572D02*
X17033033Y37772143D01*
X17033033Y37772143D02*
X17033033Y38062429D01*
X17395890Y37264143D02*
X17395890Y37119000D01*
X17395890Y37119000D02*
X17359605Y37046429D01*
X17359605Y37046429D02*
X17323319Y37010143D01*
X17323319Y37010143D02*
X17214462Y36937572D01*
X17214462Y36937572D02*
X17069319Y36901286D01*
X17069319Y36901286D02*
X16779033Y36901286D01*
X16779033Y36901286D02*
X16706462Y36937572D01*
X16706462Y36937572D02*
X16670176Y36973857D01*
X16670176Y36973857D02*
X16633890Y37046429D01*
X16633890Y37046429D02*
X16633890Y37191572D01*
X16633890Y37191572D02*
X16670176Y37264143D01*
X16670176Y37264143D02*
X16706462Y37300429D01*
X16706462Y37300429D02*
X16779033Y37336715D01*
X16779033Y37336715D02*
X16960462Y37336715D01*
X16960462Y37336715D02*
X17033033Y37300429D01*
X17033033Y37300429D02*
X17069319Y37264143D01*
X17069319Y37264143D02*
X17105605Y37191572D01*
X17105605Y37191572D02*
X17105605Y37046429D01*
X17105605Y37046429D02*
X17069319Y36973857D01*
X17069319Y36973857D02*
X17033033Y36937572D01*
X17033033Y36937572D02*
X16960462Y36901286D01*
X8446768Y30254000D02*
X8446768Y30508000D01*
X8845911Y30508000D02*
X8083911Y30508000D01*
X8083911Y30508000D02*
X8083911Y30145143D01*
X8156483Y29891143D02*
X8120197Y29854857D01*
X8120197Y29854857D02*
X8083911Y29782285D01*
X8083911Y29782285D02*
X8083911Y29600857D01*
X8083911Y29600857D02*
X8120197Y29528285D01*
X8120197Y29528285D02*
X8156483Y29492000D01*
X8156483Y29492000D02*
X8229054Y29455714D01*
X8229054Y29455714D02*
X8301626Y29455714D01*
X8301626Y29455714D02*
X8410483Y29492000D01*
X8410483Y29492000D02*
X8845911Y29927428D01*
X8845911Y29927428D02*
X8845911Y29455714D01*
D11*
X33087858Y10103158D02*
X32778220Y10103158D01*
X32778220Y10103158D02*
X32623401Y10180567D01*
X32623401Y10180567D02*
X32545992Y10257977D01*
X32545992Y10257977D02*
X32391173Y10490206D01*
X32391173Y10490206D02*
X32313763Y10799844D01*
X32313763Y10799844D02*
X32313763Y11419120D01*
X32313763Y11419120D02*
X32391173Y11573939D01*
X32391173Y11573939D02*
X32468582Y11651348D01*
X32468582Y11651348D02*
X32623401Y11728758D01*
X32623401Y11728758D02*
X32933039Y11728758D01*
X32933039Y11728758D02*
X33087858Y11651348D01*
X33087858Y11651348D02*
X33165268Y11573939D01*
X33165268Y11573939D02*
X33242677Y11419120D01*
X33242677Y11419120D02*
X33242677Y11032072D01*
X33242677Y11032072D02*
X33165268Y10877253D01*
X33165268Y10877253D02*
X33087858Y10799844D01*
X33087858Y10799844D02*
X32933039Y10722434D01*
X32933039Y10722434D02*
X32623401Y10722434D01*
X32623401Y10722434D02*
X32468582Y10799844D01*
X32468582Y10799844D02*
X32391173Y10877253D01*
X32391173Y10877253D02*
X32313763Y11032072D01*
X33075763Y5785158D02*
X34004677Y5785158D01*
X33540220Y5785158D02*
X33540220Y7410758D01*
X33540220Y7410758D02*
X33695039Y7178529D01*
X33695039Y7178529D02*
X33849858Y7023710D01*
X33849858Y7023710D02*
X34004677Y6946301D01*
X32533897Y7410758D02*
X31450164Y7410758D01*
X31450164Y7410758D02*
X32146849Y5785158D01*
X64571763Y10103158D02*
X65500677Y10103158D01*
X65036220Y10103158D02*
X65036220Y11728758D01*
X65036220Y11728758D02*
X65191039Y11496529D01*
X65191039Y11496529D02*
X65345858Y11341710D01*
X65345858Y11341710D02*
X65500677Y11264301D01*
X63178392Y11728758D02*
X63488030Y11728758D01*
X63488030Y11728758D02*
X63642849Y11651348D01*
X63642849Y11651348D02*
X63720259Y11573939D01*
X63720259Y11573939D02*
X63875078Y11341710D01*
X63875078Y11341710D02*
X63952487Y11032072D01*
X63952487Y11032072D02*
X63952487Y10412796D01*
X63952487Y10412796D02*
X63875078Y10257977D01*
X63875078Y10257977D02*
X63797668Y10180567D01*
X63797668Y10180567D02*
X63642849Y10103158D01*
X63642849Y10103158D02*
X63333211Y10103158D01*
X63333211Y10103158D02*
X63178392Y10180567D01*
X63178392Y10180567D02*
X63100983Y10257977D01*
X63100983Y10257977D02*
X63023573Y10412796D01*
X63023573Y10412796D02*
X63023573Y10799844D01*
X63023573Y10799844D02*
X63100983Y10954663D01*
X63100983Y10954663D02*
X63178392Y11032072D01*
X63178392Y11032072D02*
X63333211Y11109482D01*
X63333211Y11109482D02*
X63642849Y11109482D01*
X63642849Y11109482D02*
X63797668Y11032072D01*
X63797668Y11032072D02*
X63875078Y10954663D01*
X63875078Y10954663D02*
X63952487Y10799844D01*
X32059763Y14167158D02*
X32988677Y14167158D01*
X32524220Y14167158D02*
X32524220Y15792758D01*
X32524220Y15792758D02*
X32679039Y15560529D01*
X32679039Y15560529D02*
X32833858Y15405710D01*
X32833858Y15405710D02*
X32988677Y15328301D01*
X64556039Y15350072D02*
X64710858Y15427482D01*
X64710858Y15427482D02*
X64788268Y15504891D01*
X64788268Y15504891D02*
X64865677Y15659710D01*
X64865677Y15659710D02*
X64865677Y15737120D01*
X64865677Y15737120D02*
X64788268Y15891939D01*
X64788268Y15891939D02*
X64710858Y15969348D01*
X64710858Y15969348D02*
X64556039Y16046758D01*
X64556039Y16046758D02*
X64246401Y16046758D01*
X64246401Y16046758D02*
X64091582Y15969348D01*
X64091582Y15969348D02*
X64014173Y15891939D01*
X64014173Y15891939D02*
X63936763Y15737120D01*
X63936763Y15737120D02*
X63936763Y15659710D01*
X63936763Y15659710D02*
X64014173Y15504891D01*
X64014173Y15504891D02*
X64091582Y15427482D01*
X64091582Y15427482D02*
X64246401Y15350072D01*
X64246401Y15350072D02*
X64556039Y15350072D01*
X64556039Y15350072D02*
X64710858Y15272663D01*
X64710858Y15272663D02*
X64788268Y15195253D01*
X64788268Y15195253D02*
X64865677Y15040434D01*
X64865677Y15040434D02*
X64865677Y14730796D01*
X64865677Y14730796D02*
X64788268Y14575977D01*
X64788268Y14575977D02*
X64710858Y14498567D01*
X64710858Y14498567D02*
X64556039Y14421158D01*
X64556039Y14421158D02*
X64246401Y14421158D01*
X64246401Y14421158D02*
X64091582Y14498567D01*
X64091582Y14498567D02*
X64014173Y14575977D01*
X64014173Y14575977D02*
X63936763Y14730796D01*
X63936763Y14730796D02*
X63936763Y15040434D01*
X63936763Y15040434D02*
X64014173Y15195253D01*
X64014173Y15195253D02*
X64091582Y15272663D01*
X64091582Y15272663D02*
X64246401Y15350072D01*
X66135677Y7382939D02*
X66058268Y7460348D01*
X66058268Y7460348D02*
X65903449Y7537758D01*
X65903449Y7537758D02*
X65516401Y7537758D01*
X65516401Y7537758D02*
X65361582Y7460348D01*
X65361582Y7460348D02*
X65284173Y7382939D01*
X65284173Y7382939D02*
X65206763Y7228120D01*
X65206763Y7228120D02*
X65206763Y7073301D01*
X65206763Y7073301D02*
X65284173Y6841072D01*
X65284173Y6841072D02*
X66213087Y5912158D01*
X66213087Y5912158D02*
X65206763Y5912158D01*
X63813392Y6995891D02*
X63813392Y5912158D01*
X64200440Y7615167D02*
X64587487Y6454025D01*
X64587487Y6454025D02*
X63581164Y6454025D01*
D12*
G04 #@! TO.C,R9*
X15525979Y36700000D02*
X16541979Y36700000D01*
X16541979Y38300000D02*
X15525979Y38300000D01*
X17557979Y36700000D02*
X18573979Y36700000D01*
X18573979Y38300000D02*
X17557979Y38300000D01*
D13*
X15470979Y36698362D02*
G75*
G02*
X15474979Y38300000I-326000J801638D01*
G01*
X18624979Y38300000D02*
G75*
G02*
X18633581Y36696505I330000J-800000D01*
G01*
D14*
G04 #@! TO.C,M4*
X76575000Y19525000D02*
X76575000Y5125000D01*
X76575000Y5125000D02*
X82975000Y5125000D01*
X86175000Y20125000D02*
X81075000Y20125000D01*
X86175000Y5125000D02*
X84875000Y5125000D01*
X86175000Y5125000D02*
X86175000Y20125000D01*
D13*
G04 #@! TO.C,F2*
X6100000Y31000000D02*
X10950000Y31000000D01*
X6100000Y29000000D02*
X10950000Y29000000D01*
X6050000Y29000000D02*
G75*
G02*
X6050000Y31000000I0J1000000D01*
G01*
X10950000Y31000000D02*
G75*
G02*
X10950000Y29000000I0J-1000000D01*
G01*
D14*
G04 #@! TO.C,M1*
X5724999Y20324999D02*
X5724999Y23525002D01*
X5724999Y8224999D02*
X5724999Y18625001D01*
X5724999Y6324999D02*
X5724999Y6624999D01*
X5724999Y6324999D02*
X21124999Y6324999D01*
X7224999Y26924997D02*
X22524998Y26924999D01*
X22524996Y20225001D02*
X22524996Y25025001D01*
X22524996Y14024999D02*
X22524996Y16724999D01*
X22524996Y11325001D02*
X22524996Y12425004D01*
X22524996Y7774999D02*
X22525001Y9324999D01*
X22524998Y26625001D02*
X22524998Y26924999D01*
D15*
G04 #@! TO.C,J1*
X25960800Y-14521000D02*
X25960800Y-22321000D01*
X29610900Y-14221100D02*
X29610900Y-4571000D01*
X29610900Y-14221100D02*
X29610900Y-4571000D01*
X32610900Y-4121000D02*
X32610900Y-1956400D01*
X32610900Y-4121000D02*
X32610900Y-1956400D01*
X32935800Y-917600D02*
X27910900Y-917600D01*
X32935800Y-917600D02*
X27910900Y-917600D01*
X32935800Y-1367600D02*
X32935800Y-517600D01*
X32935800Y-1367600D02*
X32935800Y-517600D01*
X33685800Y-1367600D02*
X33685800Y-517600D01*
X33685800Y-1367600D02*
X33685800Y-517600D01*
X34660900Y-2017600D02*
X28347400Y-1829100D01*
X34660900Y-2017600D02*
X28347400Y-1829100D01*
X40935800Y-917600D02*
X33685800Y-917600D01*
X40935800Y-917600D02*
X33685800Y-917600D01*
X40935800Y-1367600D02*
X40935800Y-517600D01*
X40935800Y-1367600D02*
X40935800Y-517600D01*
X41685900Y-1367600D02*
X41685900Y-517600D01*
X41685900Y-1367600D02*
X41685900Y-517600D01*
X48935900Y-917600D02*
X41685900Y-917600D01*
X48935900Y-917600D02*
X41685900Y-917600D01*
X48935900Y-1367600D02*
X48935900Y-517600D01*
X48935900Y-1367600D02*
X48935900Y-517600D01*
X49685900Y-1367600D02*
X49685900Y-517600D01*
X49685900Y-1367600D02*
X49685900Y-517600D01*
X56935900Y-917600D02*
X49685900Y-917600D01*
X56935900Y-917600D02*
X49685900Y-917600D01*
X56935900Y-1367600D02*
X56935900Y-517600D01*
X56935900Y-1367600D02*
X56935900Y-517600D01*
X57685800Y-1367600D02*
X57685800Y-517600D01*
X57685800Y-1367600D02*
X57685800Y-517600D01*
X63960900Y-2017600D02*
X34660900Y-2017600D01*
X63960900Y-2017600D02*
X34660900Y-2017600D01*
X64710800Y-517600D02*
X29860800Y-517600D01*
X64710800Y-517600D02*
X29860800Y-517600D01*
X64710800Y-917600D02*
X57685800Y-917600D01*
X64710800Y-917600D02*
X57685800Y-917600D01*
X64710800Y-1367600D02*
X64710800Y1132400D01*
X64710800Y-1367600D02*
X64710800Y1132400D01*
X65610900Y1432400D02*
X65010900Y1432400D01*
X65610900Y1432400D02*
X65010900Y1432400D01*
X65910800Y-1367600D02*
X65910800Y1132400D01*
X65910800Y-1367600D02*
X65910800Y1132400D01*
X66010900Y-4121000D02*
X66010900Y-1956400D01*
X66010900Y-4121000D02*
X66010900Y-1956400D01*
X68561000Y-4121000D02*
X30060900Y-4121000D01*
X68561000Y-4121000D02*
X30060900Y-4121000D01*
X68760900Y-517600D02*
X65910800Y-517600D01*
X68760900Y-517600D02*
X65910800Y-517600D01*
X69010800Y-14221100D02*
X69010800Y-4571000D01*
X69010800Y-14221100D02*
X69010800Y-4571000D01*
X70274300Y-1829100D02*
X63960900Y-2017600D01*
X70274300Y-1829100D02*
X63960900Y-2017600D01*
X70360900Y-22321100D02*
X70360900Y-14521000D01*
X70360900Y-22321100D02*
X70360900Y-14521000D01*
X70710900Y-917600D02*
X65910800Y-917600D01*
X70710900Y-917600D02*
X65910800Y-917600D01*
X71960900Y-22621000D02*
X26260900Y-22621000D01*
X71960900Y-22621000D02*
X26260900Y-22621000D01*
X72260800Y-14221100D02*
X26260900Y-14221100D01*
X72260800Y-14221100D02*
X26260900Y-14221100D01*
X72260800Y-22321100D02*
X72260800Y-14221100D01*
X72260800Y-22321100D02*
X72260800Y-14221100D01*
X25960800Y-14521000D02*
G75*
G02*
X26260900Y-14221000I300000J0D01*
G01*
X26260900Y-22621000D02*
G75*
G02*
X25960800Y-22321000I-100J300000D01*
G01*
X28347400Y-1829200D02*
G75*
G02*
X27910900Y-1379400I13496J449794D01*
G01*
X29610800Y-4571000D02*
G75*
G02*
X30060900Y-4121000I449927J73D01*
G01*
X64710900Y1132300D02*
G75*
G02*
X65010900Y1432300I300000J0D01*
G01*
X65610900Y1432300D02*
G75*
G02*
X65910900Y1132300I0J-300000D01*
G01*
X68560900Y-4121000D02*
G75*
G02*
X69010800Y-4571000I-100J-450000D01*
G01*
X70060900Y-14221000D02*
G75*
G02*
X70360900Y-14521000I0J-300000D01*
G01*
X70360900Y-22321000D02*
G75*
G02*
X70060900Y-22621000I-300000J0D01*
G01*
X70710900Y-1379400D02*
G75*
G02*
X70274300Y-1829200I-449998J-1D01*
G01*
X72260900Y-22321000D02*
G75*
G02*
X71960900Y-22621000I-300000J0D01*
G01*
X35386000Y-19421000D02*
G75*
G02*
X32436000Y-19421000I-1475000J0D01*
G01*
X32436000Y-19421000D02*
G75*
G02*
X35386000Y-19421000I1475000J0D01*
G01*
X50785800Y-19421000D02*
G75*
G02*
X47835800Y-19421000I-1475000J0D01*
G01*
X47835800Y-19421000D02*
G75*
G02*
X50785800Y-19421000I1475000J0D01*
G01*
X66185800Y-19421000D02*
G75*
G02*
X63235800Y-19421000I-1475000J0D01*
G01*
X63235800Y-19421000D02*
G75*
G02*
X66185800Y-19421000I1475000J0D01*
G01*
D14*
G04 #@! TO.C,CPU1*
X31900010Y86300000D02*
X31900010Y52499990D01*
X31900010Y86300000D02*
X67700000Y86300000D01*
X31900010Y52499990D02*
X67700000Y52499990D01*
X67700000Y86300000D02*
X67700000Y52499990D01*
G04 #@! TD*
M02*
