G04 #@! TF.GenerationSoftware,KiCad,Pcbnew,8.0.7*
G04 #@! TF.CreationDate,2025-04-19T21:59:38+03:00*
G04 #@! TF.ProjectId,stabiljr,73746162-696c-46a7-922e-6b696361645f,V1*
G04 #@! TF.SameCoordinates,PX3a2c940PY8e93060*
G04 #@! TF.FileFunction,Soldermask,Top*
G04 #@! TF.FilePolarity,Negative*
%FSLAX46Y46*%
G04 Gerber Fmt 4.6, Leading zero omitted, Abs format (unit mm)*
G04 Created by KiCad (PCBNEW 8.0.7) date 2025-04-19 21:59:38*
%MOMM*%
%LPD*%
G01*
G04 APERTURE LIST*
%ADD10C,0.250000*%
%ADD11C,0.500000*%
%ADD12C,1.524000*%
%ADD13C,0.600000*%
%ADD14O,1.200000X1.750000*%
%ADD15C,1.500000*%
%ADD16R,1.700000X1.700000*%
%ADD17O,1.700000X1.700000*%
%ADD18O,2.703200X2.703200*%
%ADD19O,2.403200X2.403200*%
%ADD20C,2.400000*%
%ADD21C,0.800000*%
G04 APERTURE END LIST*
D10*
G36*
X88173144Y72168416D02*
G01*
X88221905Y72162405D01*
X88278251Y72149257D01*
X88329482Y72129847D01*
X88375596Y72104177D01*
X88416593Y72072245D01*
X88445708Y72042192D01*
X88478163Y71998251D01*
X88503902Y71949776D01*
X88522928Y71896768D01*
X88535238Y71839226D01*
X88540367Y71787811D01*
X88541207Y71755451D01*
X88538902Y71692570D01*
X88531987Y71632276D01*
X88520461Y71574570D01*
X88504326Y71519451D01*
X88483581Y71466920D01*
X88458225Y71416976D01*
X88428260Y71369619D01*
X88393684Y71324850D01*
X88357144Y71285878D01*
X88318477Y71252095D01*
X88277683Y71223501D01*
X88234762Y71200096D01*
X88209281Y71189051D01*
X88158074Y71172286D01*
X88108470Y71161990D01*
X88055019Y71156029D01*
X88005094Y71154369D01*
X87954104Y71156239D01*
X87894822Y71163836D01*
X87840488Y71177276D01*
X87791104Y71196560D01*
X87746670Y71221688D01*
X87707184Y71252660D01*
X87685868Y71274048D01*
X87650923Y71319128D01*
X87623209Y71369188D01*
X87602724Y71424229D01*
X87591176Y71473900D01*
X87584649Y71527030D01*
X87583051Y71571780D01*
X87825331Y71571780D01*
X87828811Y71518123D01*
X87841047Y71465532D01*
X87862093Y71421171D01*
X87881018Y71396169D01*
X87922646Y71363128D01*
X87969254Y71346237D01*
X88013398Y71341947D01*
X88067731Y71347978D01*
X88117249Y71366070D01*
X88161952Y71396224D01*
X88196436Y71431670D01*
X88222470Y71467977D01*
X88246217Y71510896D01*
X88265861Y71558442D01*
X88280033Y71605190D01*
X88284019Y71621606D01*
X88293336Y71669813D01*
X88299089Y71719376D01*
X88300383Y71754474D01*
X88296857Y71807200D01*
X88284460Y71859145D01*
X88263137Y71903284D01*
X88243963Y71928375D01*
X88206098Y71959384D01*
X88158997Y71977522D01*
X88108164Y71982841D01*
X88055409Y71976491D01*
X88006291Y71957443D01*
X87964794Y71929107D01*
X87928148Y71892170D01*
X87896796Y71847852D01*
X87873371Y71802262D01*
X87858548Y71764243D01*
X87844016Y71716494D01*
X87833635Y71668500D01*
X87826920Y71614215D01*
X87825331Y71571780D01*
X87583051Y71571780D01*
X87583042Y71572024D01*
X87585051Y71627757D01*
X87591079Y71682117D01*
X87601126Y71735102D01*
X87615191Y71786714D01*
X87633274Y71836951D01*
X87640195Y71853392D01*
X87662505Y71899872D01*
X87687760Y71942989D01*
X87721955Y71990290D01*
X87760392Y72032748D01*
X87803071Y72070364D01*
X87833879Y72092750D01*
X87879103Y72119145D01*
X87928310Y72140080D01*
X87981501Y72155553D01*
X88038677Y72165565D01*
X88089367Y72169737D01*
X88121109Y72170419D01*
X88173144Y72168416D01*
G37*
G36*
X88057657Y72458993D02*
G01*
X88100422Y72431432D01*
X88102791Y72429072D01*
X88129090Y72387206D01*
X88136496Y72342366D01*
X88126984Y72292107D01*
X88102791Y72255660D01*
X88060232Y72226900D01*
X88011348Y72217351D01*
X88007780Y72217314D01*
X87958318Y72225739D01*
X87915140Y72253301D01*
X87912770Y72255660D01*
X87886470Y72297319D01*
X87879064Y72341633D01*
X87887491Y72390177D01*
X87912770Y72429317D01*
X87956062Y72457893D01*
X88005632Y72467381D01*
X88009246Y72467419D01*
X88057657Y72458993D01*
G37*
G36*
X88373351Y72457832D02*
G01*
X88415422Y72429072D01*
X88441721Y72387206D01*
X88449127Y72342366D01*
X88439615Y72292107D01*
X88415422Y72255660D01*
X88372862Y72226900D01*
X88323979Y72217351D01*
X88320411Y72217314D01*
X88270948Y72225739D01*
X88227771Y72253301D01*
X88225401Y72255660D01*
X88199101Y72297319D01*
X88191695Y72341633D01*
X88200122Y72390543D01*
X88225401Y72429317D01*
X88268815Y72457893D01*
X88318721Y72467381D01*
X88322365Y72467419D01*
X88373351Y72457832D01*
G37*
G36*
X88544870Y71170000D02*
G01*
X88570760Y71335353D01*
X89118108Y71967209D01*
X88688485Y71967209D01*
X88717794Y72154788D01*
X89455652Y72154788D01*
X89429030Y71988703D01*
X88877041Y71357579D01*
X89345010Y71357579D01*
X89314724Y71170000D01*
X88544870Y71170000D01*
G37*
G36*
X89456873Y71170000D02*
G01*
X89613189Y72154788D01*
X90237473Y72154788D01*
X90208164Y71967209D01*
X89818841Y71967209D01*
X89786357Y71763999D01*
X90155652Y71763999D01*
X90126587Y71576421D01*
X89757048Y71576421D01*
X89721877Y71357579D01*
X90130983Y71357579D01*
X90101674Y71170000D01*
X89456873Y71170000D01*
G37*
G36*
X90785149Y72153702D02*
G01*
X90841500Y72149535D01*
X90890794Y72142242D01*
X90939381Y72129783D01*
X90983147Y72110335D01*
X91025116Y72079169D01*
X91056777Y72040592D01*
X91078130Y71994605D01*
X91089175Y71941209D01*
X91090858Y71907370D01*
X91086311Y71851499D01*
X91072672Y71801215D01*
X91049940Y71756517D01*
X91018115Y71717406D01*
X90995847Y71697565D01*
X90952412Y71668660D01*
X90907042Y71648623D01*
X90885450Y71642366D01*
X90921267Y71606521D01*
X90933565Y71585213D01*
X90951501Y71537994D01*
X90966950Y71488951D01*
X90981398Y71440068D01*
X90983635Y71432317D01*
X91057641Y71170000D01*
X90817306Y71170000D01*
X90765771Y71361243D01*
X90752576Y71408805D01*
X90736400Y71459001D01*
X90716216Y71506754D01*
X90709839Y71517802D01*
X90672831Y71550729D01*
X90654640Y71556881D01*
X90606524Y71560789D01*
X90575261Y71560789D01*
X90513468Y71170000D01*
X90278018Y71170000D01*
X90369822Y71748368D01*
X90598220Y71748368D01*
X90661967Y71748368D01*
X90712144Y71751092D01*
X90761611Y71761820D01*
X90800697Y71782806D01*
X90833590Y71820021D01*
X90850260Y71869656D01*
X90851500Y71889784D01*
X90840753Y71939182D01*
X90808513Y71969163D01*
X90760153Y71980223D01*
X90706771Y71982827D01*
X90702023Y71982841D01*
X90635589Y71982841D01*
X90598220Y71748368D01*
X90369822Y71748368D01*
X90434333Y72154788D01*
X90732798Y72154788D01*
X90785149Y72153702D01*
G37*
D11*
G36*
X87583251Y62380322D02*
G01*
X88588311Y62115318D01*
X88484281Y61878175D01*
X88391848Y61648891D01*
X88351395Y61535241D01*
X88282917Y61297616D01*
X88233114Y61040159D01*
X88210979Y60789620D01*
X88209734Y60715807D01*
X88233977Y60466056D01*
X88325139Y60232664D01*
X88414898Y60122296D01*
X88625844Y59990062D01*
X88762944Y59968423D01*
X88994333Y60056233D01*
X89029169Y60091766D01*
X89168686Y60297963D01*
X89180600Y60321354D01*
X89380879Y60723134D01*
X89499360Y60950122D01*
X89633791Y61180973D01*
X89782416Y61400010D01*
X89943234Y61589313D01*
X89978053Y61623169D01*
X90188402Y61773865D01*
X90434768Y61868747D01*
X90687291Y61906421D01*
X90777948Y61908933D01*
X91031183Y61890128D01*
X91304593Y61820655D01*
X91554278Y61699991D01*
X91780237Y61528136D01*
X91927110Y61374041D01*
X92071538Y61174072D01*
X92186084Y60951520D01*
X92270749Y60706385D01*
X92325532Y60438667D01*
X92350433Y60148366D01*
X92352093Y60046581D01*
X92345355Y59797979D01*
X92325140Y59547529D01*
X92291450Y59295230D01*
X92244283Y59041083D01*
X92183639Y58785087D01*
X92109520Y58527243D01*
X92076099Y58423587D01*
X91151639Y58744767D01*
X91240869Y59020914D01*
X91311638Y59277827D01*
X91370868Y59553249D01*
X91404970Y59802491D01*
X91414200Y59995290D01*
X91388201Y60239582D01*
X91284817Y60469972D01*
X91256664Y60504536D01*
X91046090Y60644535D01*
X90912281Y60663294D01*
X90680173Y60567887D01*
X90627739Y60506979D01*
X90503103Y60292828D01*
X90378622Y60053913D01*
X90338311Y59974529D01*
X90211786Y59730468D01*
X90074267Y59486318D01*
X89930412Y59260813D01*
X89770557Y59059217D01*
X89755792Y59043964D01*
X89560499Y58888707D01*
X89329077Y58784261D01*
X89061528Y58730626D01*
X88897278Y58722785D01*
X88625324Y58742148D01*
X88374579Y58800237D01*
X88145043Y58897051D01*
X87936717Y59032592D01*
X87749599Y59206858D01*
X87691939Y59273552D01*
X87549172Y59479089D01*
X87435942Y59711930D01*
X87352251Y59972077D01*
X87298098Y60259530D01*
X87275534Y60519933D01*
X87271842Y60685276D01*
X87279445Y60967515D01*
X87302253Y61243314D01*
X87340267Y61512673D01*
X87393486Y61775591D01*
X87461911Y62032070D01*
X87545542Y62282109D01*
X87583251Y62380322D01*
G37*
G36*
X87350000Y57269540D02*
G01*
X91336043Y56638172D01*
X91336043Y58016923D01*
X92273935Y57865492D01*
X92273935Y53939289D01*
X91336043Y54090719D01*
X91336043Y55460922D01*
X87350000Y56095953D01*
X87350000Y57269540D01*
G37*
G36*
X92273935Y52407886D02*
G01*
X92273935Y51213539D01*
X87350000Y50082694D01*
X87350000Y51272157D01*
X88522365Y51499303D01*
X88522365Y51665388D01*
X89382100Y51665388D01*
X90098953Y51803385D01*
X90370062Y51858263D01*
X90613084Y51904440D01*
X90877362Y51949926D01*
X91014863Y51970691D01*
X90774122Y52081000D01*
X90534077Y52198494D01*
X90307695Y52312926D01*
X90277250Y52328507D01*
X89382100Y52770587D01*
X89382100Y51665388D01*
X88522365Y51665388D01*
X88522365Y53222436D01*
X87350000Y53809840D01*
X87350000Y55042045D01*
X92273935Y52407886D01*
G37*
G36*
X92273935Y49000698D02*
G01*
X92273935Y47580426D01*
X92270137Y47308586D01*
X92256494Y47036121D01*
X92229285Y46778317D01*
X92194556Y46592464D01*
X92111352Y46348302D01*
X91973583Y46121423D01*
X91788111Y45941294D01*
X91723168Y45896372D01*
X91494762Y45787722D01*
X91238193Y45729218D01*
X91051500Y45718074D01*
X90793659Y45738995D01*
X90529610Y45814138D01*
X90298228Y45943930D01*
X90099513Y46128371D01*
X90076971Y46155269D01*
X89935720Y46363023D01*
X89871807Y46515527D01*
X89751802Y46297115D01*
X89545818Y46113189D01*
X89305350Y46009730D01*
X89054490Y45963748D01*
X88864305Y45954990D01*
X88597093Y45973952D01*
X88343476Y46030839D01*
X88103455Y46125650D01*
X88057083Y46149163D01*
X87832294Y46295383D01*
X87652522Y46478505D01*
X87517765Y46698527D01*
X87462351Y46836707D01*
X87398385Y47085486D01*
X87365799Y47329390D01*
X87351755Y47576686D01*
X87350000Y47711096D01*
X87350000Y48105548D01*
X88209734Y48105548D01*
X88218332Y47839855D01*
X88252191Y47590158D01*
X88318422Y47411899D01*
X88500460Y47246577D01*
X88588311Y47204292D01*
X88832105Y47143563D01*
X88930251Y47138347D01*
X89177296Y47181012D01*
X89362561Y47332520D01*
X89444134Y47578373D01*
X89454334Y47731857D01*
X90241835Y47731857D01*
X90257100Y47465408D01*
X90315718Y47224065D01*
X90398150Y47088277D01*
X90600877Y46943854D01*
X90856430Y46880308D01*
X90939148Y46877007D01*
X91181364Y46926648D01*
X91349476Y47102931D01*
X91403518Y47341397D01*
X91414200Y47593860D01*
X91414200Y47987091D01*
X90241835Y48173936D01*
X90241835Y47731857D01*
X89454334Y47731857D01*
X89460258Y47821005D01*
X89460258Y48299721D01*
X88209734Y48496337D01*
X88209734Y48105548D01*
X87350000Y48105548D01*
X87350000Y49782275D01*
X92273935Y49000698D01*
G37*
G36*
X87350000Y45384683D02*
G01*
X92273935Y44603106D01*
X92273935Y43425855D01*
X87350000Y44207432D01*
X87350000Y45384683D01*
G37*
G36*
X93837090Y43848395D02*
G01*
X93794961Y43606341D01*
X93657155Y43392514D01*
X93645359Y43380670D01*
X93436029Y43249173D01*
X93211828Y43212143D01*
X92960531Y43259706D01*
X92778297Y43380670D01*
X92634499Y43593467D01*
X92586753Y43837883D01*
X92586566Y43855723D01*
X92628694Y44103037D01*
X92766501Y44318924D01*
X92778297Y44330775D01*
X92986593Y44462273D01*
X93208164Y44499303D01*
X93452712Y44457171D01*
X93646580Y44330775D01*
X93789462Y44114315D01*
X93836903Y43866464D01*
X93837090Y43848395D01*
G37*
G36*
X87350000Y43122994D02*
G01*
X92273935Y42341417D01*
X92273935Y41162945D01*
X88287892Y41797977D01*
X88287892Y39752443D01*
X87350000Y39898989D01*
X87350000Y43122994D01*
G37*
G36*
X92273935Y36148640D02*
G01*
X92273935Y34970168D01*
X89373551Y35434229D01*
X89103227Y35476692D01*
X88821813Y35524891D01*
X88552752Y35577326D01*
X88300584Y35638731D01*
X88206071Y35669924D01*
X87968697Y35781741D01*
X87765823Y35919357D01*
X87578827Y36105011D01*
X87463572Y36271982D01*
X87362464Y36504204D01*
X87303485Y36747464D01*
X87276523Y36990944D01*
X87271842Y37156141D01*
X87279322Y37410434D01*
X87306188Y37686600D01*
X87352595Y37947349D01*
X87418540Y38192679D01*
X87428157Y38222261D01*
X88457641Y37998779D01*
X88368125Y37757613D01*
X88304469Y37502532D01*
X88287892Y37318563D01*
X88329967Y37064913D01*
X88481092Y36855169D01*
X88507711Y36834962D01*
X88750427Y36735128D01*
X88993596Y36678003D01*
X89173272Y36645674D01*
X92273935Y36148640D01*
G37*
G36*
X92273935Y33916260D02*
G01*
X92273935Y32423936D01*
X92268509Y32162180D01*
X92247672Y31880423D01*
X92211207Y31633957D01*
X92148913Y31391018D01*
X92051674Y31172192D01*
X91895840Y30962344D01*
X91702956Y30804039D01*
X91473023Y30697274D01*
X91206041Y30642051D01*
X91036845Y30633636D01*
X90757491Y30656368D01*
X90506070Y30724564D01*
X90282582Y30838224D01*
X90087027Y30997348D01*
X89987822Y31108689D01*
X89843297Y31325864D01*
X89743112Y31552714D01*
X89711828Y31660677D01*
X89532603Y31481589D01*
X89426064Y31420098D01*
X89189966Y31330421D01*
X88944753Y31253173D01*
X88700336Y31180937D01*
X88661584Y31169749D01*
X87350000Y30799721D01*
X87350000Y32001396D01*
X88306210Y32259072D01*
X88544024Y32325048D01*
X88795001Y32405923D01*
X89033768Y32506845D01*
X89089009Y32538730D01*
X89253641Y32723771D01*
X89272012Y32778088D01*
X90241835Y32778088D01*
X90255455Y32527208D01*
X90309097Y32279871D01*
X90414026Y32084439D01*
X90600101Y31919976D01*
X90848275Y31836628D01*
X90948918Y31830426D01*
X91195908Y31884160D01*
X91345812Y32045360D01*
X91401111Y32287160D01*
X91414134Y32554072D01*
X91414200Y32577809D01*
X91414200Y32909980D01*
X90241835Y33096825D01*
X90241835Y32778088D01*
X89272012Y32778088D01*
X89284403Y32814725D01*
X89303942Y33055304D01*
X89303942Y33211619D01*
X87350000Y33520587D01*
X87350000Y34697837D01*
X92273935Y33916260D01*
G37*
G36*
X88678681Y29591940D02*
G01*
X88637307Y29344668D01*
X88501155Y29123830D01*
X88462526Y29085137D01*
X88241486Y28954161D01*
X87985460Y28910673D01*
X87966713Y28910503D01*
X87717377Y28949143D01*
X87499925Y29075539D01*
X87487997Y29086358D01*
X87340235Y29285378D01*
X87275219Y29525537D01*
X87271842Y29601710D01*
X87313215Y29849116D01*
X87449367Y30068022D01*
X87487997Y30106072D01*
X87697708Y30238432D01*
X87944449Y30289755D01*
X87980146Y30290475D01*
X88230286Y30249688D01*
X88450372Y30116271D01*
X88462526Y30104850D01*
X88610288Y29906298D01*
X88675303Y29667541D01*
X88678681Y29591940D01*
G37*
G04 #@! TO.C,R1*
G36*
G01*
X31905000Y35150000D02*
X32685000Y35150000D01*
G75*
G02*
X32755000Y35080000I0J-70000D01*
G01*
X32755000Y34520000D01*
G75*
G02*
X32685000Y34450000I-70000J0D01*
G01*
X31905000Y34450000D01*
G75*
G02*
X31835000Y34520000I0J70000D01*
G01*
X31835000Y35080000D01*
G75*
G02*
X31905000Y35150000I70000J0D01*
G01*
G37*
G36*
G01*
X31905000Y33550000D02*
X32685000Y33550000D01*
G75*
G02*
X32755000Y33480000I0J-70000D01*
G01*
X32755000Y32920000D01*
G75*
G02*
X32685000Y32850000I-70000J0D01*
G01*
X31905000Y32850000D01*
G75*
G02*
X31835000Y32920000I0J70000D01*
G01*
X31835000Y33480000D01*
G75*
G02*
X31905000Y33550000I70000J0D01*
G01*
G37*
G04 #@! TD*
G04 #@! TO.C,R22*
G36*
G01*
X57890000Y33000000D02*
X57110000Y33000000D01*
G75*
G02*
X57040000Y33070000I0J70000D01*
G01*
X57040000Y33630000D01*
G75*
G02*
X57110000Y33700000I70000J0D01*
G01*
X57890000Y33700000D01*
G75*
G02*
X57960000Y33630000I0J-70000D01*
G01*
X57960000Y33070000D01*
G75*
G02*
X57890000Y33000000I-70000J0D01*
G01*
G37*
G36*
G01*
X57890000Y34600000D02*
X57110000Y34600000D01*
G75*
G02*
X57040000Y34670000I0J70000D01*
G01*
X57040000Y35230000D01*
G75*
G02*
X57110000Y35300000I70000J0D01*
G01*
X57890000Y35300000D01*
G75*
G02*
X57960000Y35230000I0J-70000D01*
G01*
X57960000Y34670000D01*
G75*
G02*
X57890000Y34600000I-70000J0D01*
G01*
G37*
G04 #@! TD*
G04 #@! TO.C,MAP1*
G36*
G01*
X16010000Y48943700D02*
X16010000Y48436300D01*
G75*
G02*
X15968700Y48395000I-41300J0D01*
G01*
X14031300Y48395000D01*
G75*
G02*
X13990000Y48436300I0J41300D01*
G01*
X13990000Y48943700D01*
G75*
G02*
X14031300Y48985000I41300J0D01*
G01*
X15968700Y48985000D01*
G75*
G02*
X16010000Y48943700I0J-41300D01*
G01*
G37*
G36*
G01*
X16010000Y50213700D02*
X16010000Y49706300D01*
G75*
G02*
X15968700Y49665000I-41300J0D01*
G01*
X14031300Y49665000D01*
G75*
G02*
X13990000Y49706300I0J41300D01*
G01*
X13990000Y50213700D01*
G75*
G02*
X14031300Y50255000I41300J0D01*
G01*
X15968700Y50255000D01*
G75*
G02*
X16010000Y50213700I0J-41300D01*
G01*
G37*
G36*
G01*
X16010000Y51483700D02*
X16010000Y50976300D01*
G75*
G02*
X15968700Y50935000I-41300J0D01*
G01*
X14031300Y50935000D01*
G75*
G02*
X13990000Y50976300I0J41300D01*
G01*
X13990000Y51483700D01*
G75*
G02*
X14031300Y51525000I41300J0D01*
G01*
X15968700Y51525000D01*
G75*
G02*
X16010000Y51483700I0J-41300D01*
G01*
G37*
G36*
G01*
X16010000Y52753700D02*
X16010000Y52246300D01*
G75*
G02*
X15968700Y52205000I-41300J0D01*
G01*
X14031300Y52205000D01*
G75*
G02*
X13990000Y52246300I0J41300D01*
G01*
X13990000Y52753700D01*
G75*
G02*
X14031300Y52795000I41300J0D01*
G01*
X15968700Y52795000D01*
G75*
G02*
X16010000Y52753700I0J-41300D01*
G01*
G37*
G36*
G01*
X6650000Y52753700D02*
X6650000Y52246300D01*
G75*
G02*
X6608700Y52205000I-41300J0D01*
G01*
X4671300Y52205000D01*
G75*
G02*
X4630000Y52246300I0J41300D01*
G01*
X4630000Y52753700D01*
G75*
G02*
X4671300Y52795000I41300J0D01*
G01*
X6608700Y52795000D01*
G75*
G02*
X6650000Y52753700I0J-41300D01*
G01*
G37*
G36*
G01*
X6650000Y51483700D02*
X6650000Y50976300D01*
G75*
G02*
X6608700Y50935000I-41300J0D01*
G01*
X4671300Y50935000D01*
G75*
G02*
X4630000Y50976300I0J41300D01*
G01*
X4630000Y51483700D01*
G75*
G02*
X4671300Y51525000I41300J0D01*
G01*
X6608700Y51525000D01*
G75*
G02*
X6650000Y51483700I0J-41300D01*
G01*
G37*
G36*
G01*
X6650000Y50213700D02*
X6650000Y49706300D01*
G75*
G02*
X6608700Y49665000I-41300J0D01*
G01*
X4671300Y49665000D01*
G75*
G02*
X4630000Y49706300I0J41300D01*
G01*
X4630000Y50213700D01*
G75*
G02*
X4671300Y50255000I41300J0D01*
G01*
X6608700Y50255000D01*
G75*
G02*
X6650000Y50213700I0J-41300D01*
G01*
G37*
G36*
G01*
X6650000Y48943700D02*
X6650000Y48436300D01*
G75*
G02*
X6608700Y48395000I-41300J0D01*
G01*
X4671300Y48395000D01*
G75*
G02*
X4630000Y48436300I0J41300D01*
G01*
X4630000Y48943700D01*
G75*
G02*
X4671300Y48985000I41300J0D01*
G01*
X6608700Y48985000D01*
G75*
G02*
X6650000Y48943700I0J-41300D01*
G01*
G37*
G04 #@! TD*
D12*
G04 #@! TO.C,R9*
X15144979Y37500000D03*
G36*
G01*
X15599978Y36875000D02*
X15599978Y38125000D01*
G75*
G02*
X15699978Y38225000I100000J0D01*
G01*
X16499978Y38225000D01*
G75*
G02*
X16599978Y38125000I0J-100000D01*
G01*
X16599978Y36875000D01*
G75*
G02*
X16499978Y36775000I-100000J0D01*
G01*
X15699978Y36775000D01*
G75*
G02*
X15599978Y36875000I0J100000D01*
G01*
G37*
G36*
G01*
X17500000Y36875000D02*
X17500000Y38125000D01*
G75*
G02*
X17600000Y38225000I100000J0D01*
G01*
X18400000Y38225000D01*
G75*
G02*
X18500000Y38125000I0J-100000D01*
G01*
X18500000Y36875000D01*
G75*
G02*
X18400000Y36775000I-100000J0D01*
G01*
X17600000Y36775000D01*
G75*
G02*
X17500000Y36875000I0J100000D01*
G01*
G37*
X18954979Y37500000D03*
G04 #@! TD*
G04 #@! TO.C,R11*
G36*
G01*
X41390000Y19850000D02*
X40610000Y19850000D01*
G75*
G02*
X40540000Y19920000I0J70000D01*
G01*
X40540000Y20480000D01*
G75*
G02*
X40610000Y20550000I70000J0D01*
G01*
X41390000Y20550000D01*
G75*
G02*
X41460000Y20480000I0J-70000D01*
G01*
X41460000Y19920000D01*
G75*
G02*
X41390000Y19850000I-70000J0D01*
G01*
G37*
G36*
G01*
X41390000Y21450000D02*
X40610000Y21450000D01*
G75*
G02*
X40540000Y21520000I0J70000D01*
G01*
X40540000Y22080000D01*
G75*
G02*
X40610000Y22150000I70000J0D01*
G01*
X41390000Y22150000D01*
G75*
G02*
X41460000Y22080000I0J-70000D01*
G01*
X41460000Y21520000D01*
G75*
G02*
X41390000Y21450000I-70000J0D01*
G01*
G37*
G04 #@! TD*
G04 #@! TO.C,R14*
G36*
G01*
X50890000Y19850000D02*
X50110000Y19850000D01*
G75*
G02*
X50040000Y19920000I0J70000D01*
G01*
X50040000Y20480000D01*
G75*
G02*
X50110000Y20550000I70000J0D01*
G01*
X50890000Y20550000D01*
G75*
G02*
X50960000Y20480000I0J-70000D01*
G01*
X50960000Y19920000D01*
G75*
G02*
X50890000Y19850000I-70000J0D01*
G01*
G37*
G36*
G01*
X50890000Y21450000D02*
X50110000Y21450000D01*
G75*
G02*
X50040000Y21520000I0J70000D01*
G01*
X50040000Y22080000D01*
G75*
G02*
X50110000Y22150000I70000J0D01*
G01*
X50890000Y22150000D01*
G75*
G02*
X50960000Y22080000I0J-70000D01*
G01*
X50960000Y21520000D01*
G75*
G02*
X50890000Y21450000I-70000J0D01*
G01*
G37*
G04 #@! TD*
G04 #@! TO.C,F11*
G36*
G01*
X41226250Y23562500D02*
X40713750Y23562500D01*
G75*
G02*
X40495000Y23781250I0J218750D01*
G01*
X40495000Y24218750D01*
G75*
G02*
X40713750Y24437500I218750J0D01*
G01*
X41226250Y24437500D01*
G75*
G02*
X41445000Y24218750I0J-218750D01*
G01*
X41445000Y23781250D01*
G75*
G02*
X41226250Y23562500I-218750J0D01*
G01*
G37*
G36*
G01*
X41226250Y25137500D02*
X40713750Y25137500D01*
G75*
G02*
X40495000Y25356250I0J218750D01*
G01*
X40495000Y25793750D01*
G75*
G02*
X40713750Y26012500I218750J0D01*
G01*
X41226250Y26012500D01*
G75*
G02*
X41445000Y25793750I0J-218750D01*
G01*
X41445000Y25356250D01*
G75*
G02*
X41226250Y25137500I-218750J0D01*
G01*
G37*
G04 #@! TD*
G04 #@! TO.C,U2*
G36*
G01*
X39935000Y39525000D02*
X39635000Y39525000D01*
G75*
G02*
X39485000Y39675000I0J150000D01*
G01*
X39485000Y41325000D01*
G75*
G02*
X39635000Y41475000I150000J0D01*
G01*
X39935000Y41475000D01*
G75*
G02*
X40085000Y41325000I0J-150000D01*
G01*
X40085000Y39675000D01*
G75*
G02*
X39935000Y39525000I-150000J0D01*
G01*
G37*
G36*
G01*
X41205000Y39525000D02*
X40905000Y39525000D01*
G75*
G02*
X40755000Y39675000I0J150000D01*
G01*
X40755000Y41325000D01*
G75*
G02*
X40905000Y41475000I150000J0D01*
G01*
X41205000Y41475000D01*
G75*
G02*
X41355000Y41325000I0J-150000D01*
G01*
X41355000Y39675000D01*
G75*
G02*
X41205000Y39525000I-150000J0D01*
G01*
G37*
G36*
G01*
X42475000Y39525000D02*
X42175000Y39525000D01*
G75*
G02*
X42025000Y39675000I0J150000D01*
G01*
X42025000Y41325000D01*
G75*
G02*
X42175000Y41475000I150000J0D01*
G01*
X42475000Y41475000D01*
G75*
G02*
X42625000Y41325000I0J-150000D01*
G01*
X42625000Y39675000D01*
G75*
G02*
X42475000Y39525000I-150000J0D01*
G01*
G37*
G36*
G01*
X43745000Y39525000D02*
X43445000Y39525000D01*
G75*
G02*
X43295000Y39675000I0J150000D01*
G01*
X43295000Y41325000D01*
G75*
G02*
X43445000Y41475000I150000J0D01*
G01*
X43745000Y41475000D01*
G75*
G02*
X43895000Y41325000I0J-150000D01*
G01*
X43895000Y39675000D01*
G75*
G02*
X43745000Y39525000I-150000J0D01*
G01*
G37*
G36*
G01*
X43745000Y44475000D02*
X43445000Y44475000D01*
G75*
G02*
X43295000Y44625000I0J150000D01*
G01*
X43295000Y46275000D01*
G75*
G02*
X43445000Y46425000I150000J0D01*
G01*
X43745000Y46425000D01*
G75*
G02*
X43895000Y46275000I0J-150000D01*
G01*
X43895000Y44625000D01*
G75*
G02*
X43745000Y44475000I-150000J0D01*
G01*
G37*
G36*
G01*
X42475000Y44475000D02*
X42175000Y44475000D01*
G75*
G02*
X42025000Y44625000I0J150000D01*
G01*
X42025000Y46275000D01*
G75*
G02*
X42175000Y46425000I150000J0D01*
G01*
X42475000Y46425000D01*
G75*
G02*
X42625000Y46275000I0J-150000D01*
G01*
X42625000Y44625000D01*
G75*
G02*
X42475000Y44475000I-150000J0D01*
G01*
G37*
G36*
G01*
X41205000Y44475000D02*
X40905000Y44475000D01*
G75*
G02*
X40755000Y44625000I0J150000D01*
G01*
X40755000Y46275000D01*
G75*
G02*
X40905000Y46425000I150000J0D01*
G01*
X41205000Y46425000D01*
G75*
G02*
X41355000Y46275000I0J-150000D01*
G01*
X41355000Y44625000D01*
G75*
G02*
X41205000Y44475000I-150000J0D01*
G01*
G37*
G36*
G01*
X39935000Y44475000D02*
X39635000Y44475000D01*
G75*
G02*
X39485000Y44625000I0J150000D01*
G01*
X39485000Y46275000D01*
G75*
G02*
X39635000Y46425000I150000J0D01*
G01*
X39935000Y46425000D01*
G75*
G02*
X40085000Y46275000I0J-150000D01*
G01*
X40085000Y44625000D01*
G75*
G02*
X39935000Y44475000I-150000J0D01*
G01*
G37*
G04 #@! TD*
G04 #@! TO.C,R32*
G36*
G01*
X26875000Y97000000D02*
X28125000Y97000000D01*
G75*
G02*
X28225000Y96900000I0J-100000D01*
G01*
X28225000Y96100000D01*
G75*
G02*
X28125000Y96000000I-100000J0D01*
G01*
X26875000Y96000000D01*
G75*
G02*
X26775000Y96100000I0J100000D01*
G01*
X26775000Y96900000D01*
G75*
G02*
X26875000Y97000000I100000J0D01*
G01*
G37*
G36*
G01*
X26875000Y95099978D02*
X28125000Y95099978D01*
G75*
G02*
X28225000Y94999978I0J-100000D01*
G01*
X28225000Y94199978D01*
G75*
G02*
X28125000Y94099978I-100000J0D01*
G01*
X26875000Y94099978D01*
G75*
G02*
X26775000Y94199978I0J100000D01*
G01*
X26775000Y94999978D01*
G75*
G02*
X26875000Y95099978I100000J0D01*
G01*
G37*
G04 #@! TD*
G04 #@! TO.C,R4*
G36*
G01*
X42905000Y35150000D02*
X43685000Y35150000D01*
G75*
G02*
X43755000Y35080000I0J-70000D01*
G01*
X43755000Y34520000D01*
G75*
G02*
X43685000Y34450000I-70000J0D01*
G01*
X42905000Y34450000D01*
G75*
G02*
X42835000Y34520000I0J70000D01*
G01*
X42835000Y35080000D01*
G75*
G02*
X42905000Y35150000I70000J0D01*
G01*
G37*
G36*
G01*
X42905000Y33550000D02*
X43685000Y33550000D01*
G75*
G02*
X43755000Y33480000I0J-70000D01*
G01*
X43755000Y32920000D01*
G75*
G02*
X43685000Y32850000I-70000J0D01*
G01*
X42905000Y32850000D01*
G75*
G02*
X42835000Y32920000I0J70000D01*
G01*
X42835000Y33480000D01*
G75*
G02*
X42905000Y33550000I70000J0D01*
G01*
G37*
G04 #@! TD*
G04 #@! TO.C,R24*
G36*
G01*
X49390000Y33050000D02*
X48610000Y33050000D01*
G75*
G02*
X48540000Y33120000I0J70000D01*
G01*
X48540000Y33680000D01*
G75*
G02*
X48610000Y33750000I70000J0D01*
G01*
X49390000Y33750000D01*
G75*
G02*
X49460000Y33680000I0J-70000D01*
G01*
X49460000Y33120000D01*
G75*
G02*
X49390000Y33050000I-70000J0D01*
G01*
G37*
G36*
G01*
X49390000Y34650000D02*
X48610000Y34650000D01*
G75*
G02*
X48540000Y34720000I0J70000D01*
G01*
X48540000Y35280000D01*
G75*
G02*
X48610000Y35350000I70000J0D01*
G01*
X49390000Y35350000D01*
G75*
G02*
X49460000Y35280000I0J-70000D01*
G01*
X49460000Y34720000D01*
G75*
G02*
X49390000Y34650000I-70000J0D01*
G01*
G37*
G04 #@! TD*
D13*
G04 #@! TO.C,M4*
X79375000Y19825000D03*
X80575000Y19825000D03*
X78175000Y19825000D03*
X76975000Y19825000D03*
X83435000Y5400000D03*
X84435000Y5400000D03*
G04 #@! TD*
G04 #@! TO.C,USB1*
G36*
G01*
X84900000Y90375000D02*
X84900000Y91625000D01*
G75*
G02*
X85150000Y91875000I250000J0D01*
G01*
X85850000Y91875000D01*
G75*
G02*
X86100000Y91625000I0J-250000D01*
G01*
X86100000Y90375000D01*
G75*
G02*
X85850000Y90125000I-250000J0D01*
G01*
X85150000Y90125000D01*
G75*
G02*
X84900000Y90375000I0J250000D01*
G01*
G37*
D14*
X87500000Y91000000D03*
X89500000Y91000000D03*
X91500000Y91000000D03*
G04 #@! TD*
G04 #@! TO.C,R3*
G36*
G01*
X40405000Y35150000D02*
X41185000Y35150000D01*
G75*
G02*
X41255000Y35080000I0J-70000D01*
G01*
X41255000Y34520000D01*
G75*
G02*
X41185000Y34450000I-70000J0D01*
G01*
X40405000Y34450000D01*
G75*
G02*
X40335000Y34520000I0J70000D01*
G01*
X40335000Y35080000D01*
G75*
G02*
X40405000Y35150000I70000J0D01*
G01*
G37*
G36*
G01*
X40405000Y33550000D02*
X41185000Y33550000D01*
G75*
G02*
X41255000Y33480000I0J-70000D01*
G01*
X41255000Y32920000D01*
G75*
G02*
X41185000Y32850000I-70000J0D01*
G01*
X40405000Y32850000D01*
G75*
G02*
X40335000Y32920000I0J70000D01*
G01*
X40335000Y33480000D01*
G75*
G02*
X40405000Y33550000I70000J0D01*
G01*
G37*
G04 #@! TD*
G04 #@! TO.C,R5*
G36*
G01*
X67610000Y35350000D02*
X68390000Y35350000D01*
G75*
G02*
X68460000Y35280000I0J-70000D01*
G01*
X68460000Y34720000D01*
G75*
G02*
X68390000Y34650000I-70000J0D01*
G01*
X67610000Y34650000D01*
G75*
G02*
X67540000Y34720000I0J70000D01*
G01*
X67540000Y35280000D01*
G75*
G02*
X67610000Y35350000I70000J0D01*
G01*
G37*
G36*
G01*
X67610000Y33750000D02*
X68390000Y33750000D01*
G75*
G02*
X68460000Y33680000I0J-70000D01*
G01*
X68460000Y33120000D01*
G75*
G02*
X68390000Y33050000I-70000J0D01*
G01*
X67610000Y33050000D01*
G75*
G02*
X67540000Y33120000I0J70000D01*
G01*
X67540000Y33680000D01*
G75*
G02*
X67610000Y33750000I70000J0D01*
G01*
G37*
G04 #@! TD*
G04 #@! TO.C,R31*
G36*
G01*
X23875000Y97000000D02*
X25125000Y97000000D01*
G75*
G02*
X25225000Y96900000I0J-100000D01*
G01*
X25225000Y96100000D01*
G75*
G02*
X25125000Y96000000I-100000J0D01*
G01*
X23875000Y96000000D01*
G75*
G02*
X23775000Y96100000I0J100000D01*
G01*
X23775000Y96900000D01*
G75*
G02*
X23875000Y97000000I100000J0D01*
G01*
G37*
G36*
G01*
X23875000Y95099978D02*
X25125000Y95099978D01*
G75*
G02*
X25225000Y94999978I0J-100000D01*
G01*
X25225000Y94199978D01*
G75*
G02*
X25125000Y94099978I-100000J0D01*
G01*
X23875000Y94099978D01*
G75*
G02*
X23775000Y94199978I0J100000D01*
G01*
X23775000Y94999978D01*
G75*
G02*
X23875000Y95099978I100000J0D01*
G01*
G37*
G04 #@! TD*
G04 #@! TO.C,R41*
G36*
G01*
X25599978Y80875000D02*
X25599978Y82125000D01*
G75*
G02*
X25699978Y82225000I100000J0D01*
G01*
X26499978Y82225000D01*
G75*
G02*
X26599978Y82125000I0J-100000D01*
G01*
X26599978Y80875000D01*
G75*
G02*
X26499978Y80775000I-100000J0D01*
G01*
X25699978Y80775000D01*
G75*
G02*
X25599978Y80875000I0J100000D01*
G01*
G37*
G36*
G01*
X27500000Y80875000D02*
X27500000Y82125000D01*
G75*
G02*
X27600000Y82225000I100000J0D01*
G01*
X28400000Y82225000D01*
G75*
G02*
X28500000Y82125000I0J-100000D01*
G01*
X28500000Y80875000D01*
G75*
G02*
X28400000Y80775000I-100000J0D01*
G01*
X27600000Y80775000D01*
G75*
G02*
X27500000Y80875000I0J100000D01*
G01*
G37*
G04 #@! TD*
G04 #@! TO.C,R12*
G36*
G01*
X44390000Y19850000D02*
X43610000Y19850000D01*
G75*
G02*
X43540000Y19920000I0J70000D01*
G01*
X43540000Y20480000D01*
G75*
G02*
X43610000Y20550000I70000J0D01*
G01*
X44390000Y20550000D01*
G75*
G02*
X44460000Y20480000I0J-70000D01*
G01*
X44460000Y19920000D01*
G75*
G02*
X44390000Y19850000I-70000J0D01*
G01*
G37*
G36*
G01*
X44390000Y21450000D02*
X43610000Y21450000D01*
G75*
G02*
X43540000Y21520000I0J70000D01*
G01*
X43540000Y22080000D01*
G75*
G02*
X43610000Y22150000I70000J0D01*
G01*
X44390000Y22150000D01*
G75*
G02*
X44460000Y22080000I0J-70000D01*
G01*
X44460000Y21520000D01*
G75*
G02*
X44390000Y21450000I-70000J0D01*
G01*
G37*
G04 #@! TD*
G04 #@! TO.C,R42*
G36*
G01*
X25599978Y83875000D02*
X25599978Y85125000D01*
G75*
G02*
X25699978Y85225000I100000J0D01*
G01*
X26499978Y85225000D01*
G75*
G02*
X26599978Y85125000I0J-100000D01*
G01*
X26599978Y83875000D01*
G75*
G02*
X26499978Y83775000I-100000J0D01*
G01*
X25699978Y83775000D01*
G75*
G02*
X25599978Y83875000I0J100000D01*
G01*
G37*
G36*
G01*
X27500000Y83875000D02*
X27500000Y85125000D01*
G75*
G02*
X27600000Y85225000I100000J0D01*
G01*
X28400000Y85225000D01*
G75*
G02*
X28500000Y85125000I0J-100000D01*
G01*
X28500000Y83875000D01*
G75*
G02*
X28400000Y83775000I-100000J0D01*
G01*
X27600000Y83775000D01*
G75*
G02*
X27500000Y83875000I0J100000D01*
G01*
G37*
G04 #@! TD*
G04 #@! TO.C,U9*
G36*
G01*
X56840000Y39525000D02*
X56540000Y39525000D01*
G75*
G02*
X56390000Y39675000I0J150000D01*
G01*
X56390000Y41325000D01*
G75*
G02*
X56540000Y41475000I150000J0D01*
G01*
X56840000Y41475000D01*
G75*
G02*
X56990000Y41325000I0J-150000D01*
G01*
X56990000Y39675000D01*
G75*
G02*
X56840000Y39525000I-150000J0D01*
G01*
G37*
G36*
G01*
X58110000Y39525000D02*
X57810000Y39525000D01*
G75*
G02*
X57660000Y39675000I0J150000D01*
G01*
X57660000Y41325000D01*
G75*
G02*
X57810000Y41475000I150000J0D01*
G01*
X58110000Y41475000D01*
G75*
G02*
X58260000Y41325000I0J-150000D01*
G01*
X58260000Y39675000D01*
G75*
G02*
X58110000Y39525000I-150000J0D01*
G01*
G37*
G36*
G01*
X59380000Y39525000D02*
X59080000Y39525000D01*
G75*
G02*
X58930000Y39675000I0J150000D01*
G01*
X58930000Y41325000D01*
G75*
G02*
X59080000Y41475000I150000J0D01*
G01*
X59380000Y41475000D01*
G75*
G02*
X59530000Y41325000I0J-150000D01*
G01*
X59530000Y39675000D01*
G75*
G02*
X59380000Y39525000I-150000J0D01*
G01*
G37*
G36*
G01*
X60650000Y39525000D02*
X60350000Y39525000D01*
G75*
G02*
X60200000Y39675000I0J150000D01*
G01*
X60200000Y41325000D01*
G75*
G02*
X60350000Y41475000I150000J0D01*
G01*
X60650000Y41475000D01*
G75*
G02*
X60800000Y41325000I0J-150000D01*
G01*
X60800000Y39675000D01*
G75*
G02*
X60650000Y39525000I-150000J0D01*
G01*
G37*
G36*
G01*
X60650000Y44475000D02*
X60350000Y44475000D01*
G75*
G02*
X60200000Y44625000I0J150000D01*
G01*
X60200000Y46275000D01*
G75*
G02*
X60350000Y46425000I150000J0D01*
G01*
X60650000Y46425000D01*
G75*
G02*
X60800000Y46275000I0J-150000D01*
G01*
X60800000Y44625000D01*
G75*
G02*
X60650000Y44475000I-150000J0D01*
G01*
G37*
G36*
G01*
X59380000Y44475000D02*
X59080000Y44475000D01*
G75*
G02*
X58930000Y44625000I0J150000D01*
G01*
X58930000Y46275000D01*
G75*
G02*
X59080000Y46425000I150000J0D01*
G01*
X59380000Y46425000D01*
G75*
G02*
X59530000Y46275000I0J-150000D01*
G01*
X59530000Y44625000D01*
G75*
G02*
X59380000Y44475000I-150000J0D01*
G01*
G37*
G36*
G01*
X58110000Y44475000D02*
X57810000Y44475000D01*
G75*
G02*
X57660000Y44625000I0J150000D01*
G01*
X57660000Y46275000D01*
G75*
G02*
X57810000Y46425000I150000J0D01*
G01*
X58110000Y46425000D01*
G75*
G02*
X58260000Y46275000I0J-150000D01*
G01*
X58260000Y44625000D01*
G75*
G02*
X58110000Y44475000I-150000J0D01*
G01*
G37*
G36*
G01*
X56840000Y44475000D02*
X56540000Y44475000D01*
G75*
G02*
X56390000Y44625000I0J150000D01*
G01*
X56390000Y46275000D01*
G75*
G02*
X56540000Y46425000I150000J0D01*
G01*
X56840000Y46425000D01*
G75*
G02*
X56990000Y46275000I0J-150000D01*
G01*
X56990000Y44625000D01*
G75*
G02*
X56840000Y44475000I-150000J0D01*
G01*
G37*
G04 #@! TD*
G04 #@! TO.C,R43*
G36*
G01*
X15599978Y32875000D02*
X15599978Y34125000D01*
G75*
G02*
X15699978Y34225000I100000J0D01*
G01*
X16499978Y34225000D01*
G75*
G02*
X16599978Y34125000I0J-100000D01*
G01*
X16599978Y32875000D01*
G75*
G02*
X16499978Y32775000I-100000J0D01*
G01*
X15699978Y32775000D01*
G75*
G02*
X15599978Y32875000I0J100000D01*
G01*
G37*
G36*
G01*
X17500000Y32875000D02*
X17500000Y34125000D01*
G75*
G02*
X17600000Y34225000I100000J0D01*
G01*
X18400000Y34225000D01*
G75*
G02*
X18500000Y34125000I0J-100000D01*
G01*
X18500000Y32875000D01*
G75*
G02*
X18400000Y32775000I-100000J0D01*
G01*
X17600000Y32775000D01*
G75*
G02*
X17500000Y32875000I0J100000D01*
G01*
G37*
G04 #@! TD*
G04 #@! TO.C,F14*
G36*
G01*
X50756250Y23562500D02*
X50243750Y23562500D01*
G75*
G02*
X50025000Y23781250I0J218750D01*
G01*
X50025000Y24218750D01*
G75*
G02*
X50243750Y24437500I218750J0D01*
G01*
X50756250Y24437500D01*
G75*
G02*
X50975000Y24218750I0J-218750D01*
G01*
X50975000Y23781250D01*
G75*
G02*
X50756250Y23562500I-218750J0D01*
G01*
G37*
G36*
G01*
X50756250Y25137500D02*
X50243750Y25137500D01*
G75*
G02*
X50025000Y25356250I0J218750D01*
G01*
X50025000Y25793750D01*
G75*
G02*
X50243750Y26012500I218750J0D01*
G01*
X50756250Y26012500D01*
G75*
G02*
X50975000Y25793750I0J-218750D01*
G01*
X50975000Y25356250D01*
G75*
G02*
X50756250Y25137500I-218750J0D01*
G01*
G37*
G04 #@! TD*
D12*
G04 #@! TO.C,F2*
X10950000Y30000000D03*
G36*
G01*
X9605010Y30900000D02*
X10295010Y30900000D01*
G75*
G02*
X10525010Y30670000I0J-230000D01*
G01*
X10525010Y29330000D01*
G75*
G02*
X10295010Y29100000I-230000J0D01*
G01*
X9605010Y29100000D01*
G75*
G02*
X9375010Y29330000I0J230000D01*
G01*
X9375010Y30670000D01*
G75*
G02*
X9605010Y30900000I230000J0D01*
G01*
G37*
G36*
G01*
X6704990Y30900000D02*
X7394990Y30900000D01*
G75*
G02*
X7624990Y30670000I0J-230000D01*
G01*
X7624990Y29330000D01*
G75*
G02*
X7394990Y29100000I-230000J0D01*
G01*
X6704990Y29100000D01*
G75*
G02*
X6474990Y29330000I0J230000D01*
G01*
X6474990Y30670000D01*
G75*
G02*
X6704990Y30900000I230000J0D01*
G01*
G37*
X6050000Y30000000D03*
G04 #@! TD*
D15*
G04 #@! TO.C,M1*
X21874995Y25824999D03*
X21874995Y19425002D03*
X21874995Y17524999D03*
X21874995Y13224999D03*
D13*
X22324994Y10825002D03*
X22324994Y9825001D03*
D15*
X21874995Y6974999D03*
X6374998Y26275001D03*
X6374998Y24425002D03*
X6374998Y19474999D03*
X6374998Y7425001D03*
G04 #@! TD*
G04 #@! TO.C,R23*
G36*
G01*
X52390000Y33050000D02*
X51610000Y33050000D01*
G75*
G02*
X51540000Y33120000I0J70000D01*
G01*
X51540000Y33680000D01*
G75*
G02*
X51610000Y33750000I70000J0D01*
G01*
X52390000Y33750000D01*
G75*
G02*
X52460000Y33680000I0J-70000D01*
G01*
X52460000Y33120000D01*
G75*
G02*
X52390000Y33050000I-70000J0D01*
G01*
G37*
G36*
G01*
X52390000Y34650000D02*
X51610000Y34650000D01*
G75*
G02*
X51540000Y34720000I0J70000D01*
G01*
X51540000Y35280000D01*
G75*
G02*
X51610000Y35350000I70000J0D01*
G01*
X52390000Y35350000D01*
G75*
G02*
X52460000Y35280000I0J-70000D01*
G01*
X52460000Y34720000D01*
G75*
G02*
X52390000Y34650000I-70000J0D01*
G01*
G37*
G04 #@! TD*
D16*
G04 #@! TO.C,BLUETOOTH1*
X84880000Y82500000D03*
D17*
X87420000Y82500000D03*
X89960000Y82500000D03*
X92500000Y82500000D03*
G04 #@! TD*
G04 #@! TO.C,R8*
G36*
G01*
X15850000Y30390000D02*
X15850000Y29610000D01*
G75*
G02*
X15780000Y29540000I-70000J0D01*
G01*
X15220000Y29540000D01*
G75*
G02*
X15150000Y29610000I0J70000D01*
G01*
X15150000Y30390000D01*
G75*
G02*
X15220000Y30460000I70000J0D01*
G01*
X15780000Y30460000D01*
G75*
G02*
X15850000Y30390000I0J-70000D01*
G01*
G37*
G36*
G01*
X14250000Y30390000D02*
X14250000Y29610000D01*
G75*
G02*
X14180000Y29540000I-70000J0D01*
G01*
X13620000Y29540000D01*
G75*
G02*
X13550000Y29610000I0J70000D01*
G01*
X13550000Y30390000D01*
G75*
G02*
X13620000Y30460000I70000J0D01*
G01*
X14180000Y30460000D01*
G75*
G02*
X14250000Y30390000I0J-70000D01*
G01*
G37*
G04 #@! TD*
G04 #@! TO.C,R33*
G36*
G01*
X29875000Y97000000D02*
X31125000Y97000000D01*
G75*
G02*
X31225000Y96900000I0J-100000D01*
G01*
X31225000Y96100000D01*
G75*
G02*
X31125000Y96000000I-100000J0D01*
G01*
X29875000Y96000000D01*
G75*
G02*
X29775000Y96100000I0J100000D01*
G01*
X29775000Y96900000D01*
G75*
G02*
X29875000Y97000000I100000J0D01*
G01*
G37*
G36*
G01*
X29875000Y95099978D02*
X31125000Y95099978D01*
G75*
G02*
X31225000Y94999978I0J-100000D01*
G01*
X31225000Y94199978D01*
G75*
G02*
X31125000Y94099978I-100000J0D01*
G01*
X29875000Y94099978D01*
G75*
G02*
X29775000Y94199978I0J100000D01*
G01*
X29775000Y94999978D01*
G75*
G02*
X29875000Y95099978I100000J0D01*
G01*
G37*
G04 #@! TD*
G04 #@! TO.C,U1*
G36*
G01*
X31635000Y39400000D02*
X31335000Y39400000D01*
G75*
G02*
X31185000Y39550000I0J150000D01*
G01*
X31185000Y41200000D01*
G75*
G02*
X31335000Y41350000I150000J0D01*
G01*
X31635000Y41350000D01*
G75*
G02*
X31785000Y41200000I0J-150000D01*
G01*
X31785000Y39550000D01*
G75*
G02*
X31635000Y39400000I-150000J0D01*
G01*
G37*
G36*
G01*
X32905000Y39400000D02*
X32605000Y39400000D01*
G75*
G02*
X32455000Y39550000I0J150000D01*
G01*
X32455000Y41200000D01*
G75*
G02*
X32605000Y41350000I150000J0D01*
G01*
X32905000Y41350000D01*
G75*
G02*
X33055000Y41200000I0J-150000D01*
G01*
X33055000Y39550000D01*
G75*
G02*
X32905000Y39400000I-150000J0D01*
G01*
G37*
G36*
G01*
X34175000Y39400000D02*
X33875000Y39400000D01*
G75*
G02*
X33725000Y39550000I0J150000D01*
G01*
X33725000Y41200000D01*
G75*
G02*
X33875000Y41350000I150000J0D01*
G01*
X34175000Y41350000D01*
G75*
G02*
X34325000Y41200000I0J-150000D01*
G01*
X34325000Y39550000D01*
G75*
G02*
X34175000Y39400000I-150000J0D01*
G01*
G37*
G36*
G01*
X35445000Y39400000D02*
X35145000Y39400000D01*
G75*
G02*
X34995000Y39550000I0J150000D01*
G01*
X34995000Y41200000D01*
G75*
G02*
X35145000Y41350000I150000J0D01*
G01*
X35445000Y41350000D01*
G75*
G02*
X35595000Y41200000I0J-150000D01*
G01*
X35595000Y39550000D01*
G75*
G02*
X35445000Y39400000I-150000J0D01*
G01*
G37*
G36*
G01*
X35445000Y44350000D02*
X35145000Y44350000D01*
G75*
G02*
X34995000Y44500000I0J150000D01*
G01*
X34995000Y46150000D01*
G75*
G02*
X35145000Y46300000I150000J0D01*
G01*
X35445000Y46300000D01*
G75*
G02*
X35595000Y46150000I0J-150000D01*
G01*
X35595000Y44500000D01*
G75*
G02*
X35445000Y44350000I-150000J0D01*
G01*
G37*
G36*
G01*
X34175000Y44350000D02*
X33875000Y44350000D01*
G75*
G02*
X33725000Y44500000I0J150000D01*
G01*
X33725000Y46150000D01*
G75*
G02*
X33875000Y46300000I150000J0D01*
G01*
X34175000Y46300000D01*
G75*
G02*
X34325000Y46150000I0J-150000D01*
G01*
X34325000Y44500000D01*
G75*
G02*
X34175000Y44350000I-150000J0D01*
G01*
G37*
G36*
G01*
X32905000Y44350000D02*
X32605000Y44350000D01*
G75*
G02*
X32455000Y44500000I0J150000D01*
G01*
X32455000Y46150000D01*
G75*
G02*
X32605000Y46300000I150000J0D01*
G01*
X32905000Y46300000D01*
G75*
G02*
X33055000Y46150000I0J-150000D01*
G01*
X33055000Y44500000D01*
G75*
G02*
X32905000Y44350000I-150000J0D01*
G01*
G37*
G36*
G01*
X31635000Y44350000D02*
X31335000Y44350000D01*
G75*
G02*
X31185000Y44500000I0J150000D01*
G01*
X31185000Y46150000D01*
G75*
G02*
X31335000Y46300000I150000J0D01*
G01*
X31635000Y46300000D01*
G75*
G02*
X31785000Y46150000I0J-150000D01*
G01*
X31785000Y44500000D01*
G75*
G02*
X31635000Y44350000I-150000J0D01*
G01*
G37*
G04 #@! TD*
D18*
G04 #@! TO.C,J1*
X36800500Y15631000D03*
D19*
X40864500Y15631000D03*
X44166500Y15631000D03*
X47468500Y15631000D03*
X50770500Y15631000D03*
X54072500Y15631000D03*
X57374500Y15631000D03*
D18*
X61438500Y15631000D03*
X36804600Y11339400D03*
D19*
X40868600Y11339400D03*
X44170600Y11339400D03*
X47472600Y11339400D03*
X50774600Y11339400D03*
X54076600Y11339400D03*
X57378600Y11339400D03*
D18*
X61442600Y11339400D03*
X36800500Y6995000D03*
D19*
X40864500Y6995000D03*
X44166500Y6995000D03*
X47468500Y6995000D03*
X50770500Y6995000D03*
X54072500Y6995000D03*
X57374500Y6995000D03*
D18*
X61535800Y6995000D03*
G04 #@! TD*
G04 #@! TO.C,R13*
G36*
G01*
X47890000Y19850000D02*
X47110000Y19850000D01*
G75*
G02*
X47040000Y19920000I0J70000D01*
G01*
X47040000Y20480000D01*
G75*
G02*
X47110000Y20550000I70000J0D01*
G01*
X47890000Y20550000D01*
G75*
G02*
X47960000Y20480000I0J-70000D01*
G01*
X47960000Y19920000D01*
G75*
G02*
X47890000Y19850000I-70000J0D01*
G01*
G37*
G36*
G01*
X47890000Y21450000D02*
X47110000Y21450000D01*
G75*
G02*
X47040000Y21520000I0J70000D01*
G01*
X47040000Y22080000D01*
G75*
G02*
X47110000Y22150000I70000J0D01*
G01*
X47890000Y22150000D01*
G75*
G02*
X47960000Y22080000I0J-70000D01*
G01*
X47960000Y21520000D01*
G75*
G02*
X47890000Y21450000I-70000J0D01*
G01*
G37*
G04 #@! TD*
G04 #@! TO.C,R7*
G36*
G01*
X19850000Y30390000D02*
X19850000Y29610000D01*
G75*
G02*
X19780000Y29540000I-70000J0D01*
G01*
X19220000Y29540000D01*
G75*
G02*
X19150000Y29610000I0J70000D01*
G01*
X19150000Y30390000D01*
G75*
G02*
X19220000Y30460000I70000J0D01*
G01*
X19780000Y30460000D01*
G75*
G02*
X19850000Y30390000I0J-70000D01*
G01*
G37*
G36*
G01*
X18250000Y30390000D02*
X18250000Y29610000D01*
G75*
G02*
X18180000Y29540000I-70000J0D01*
G01*
X17620000Y29540000D01*
G75*
G02*
X17550000Y29610000I0J70000D01*
G01*
X17550000Y30390000D01*
G75*
G02*
X17620000Y30460000I70000J0D01*
G01*
X18180000Y30460000D01*
G75*
G02*
X18250000Y30390000I0J-70000D01*
G01*
G37*
G04 #@! TD*
G04 #@! TO.C,R21*
G36*
G01*
X60390000Y33000000D02*
X59610000Y33000000D01*
G75*
G02*
X59540000Y33070000I0J70000D01*
G01*
X59540000Y33630000D01*
G75*
G02*
X59610000Y33700000I70000J0D01*
G01*
X60390000Y33700000D01*
G75*
G02*
X60460000Y33630000I0J-70000D01*
G01*
X60460000Y33070000D01*
G75*
G02*
X60390000Y33000000I-70000J0D01*
G01*
G37*
G36*
G01*
X60390000Y34600000D02*
X59610000Y34600000D01*
G75*
G02*
X59540000Y34670000I0J70000D01*
G01*
X59540000Y35230000D01*
G75*
G02*
X59610000Y35300000I70000J0D01*
G01*
X60390000Y35300000D01*
G75*
G02*
X60460000Y35230000I0J-70000D01*
G01*
X60460000Y34670000D01*
G75*
G02*
X60390000Y34600000I-70000J0D01*
G01*
G37*
G04 #@! TD*
G04 #@! TO.C,F12*
G36*
G01*
X44256250Y23562500D02*
X43743750Y23562500D01*
G75*
G02*
X43525000Y23781250I0J218750D01*
G01*
X43525000Y24218750D01*
G75*
G02*
X43743750Y24437500I218750J0D01*
G01*
X44256250Y24437500D01*
G75*
G02*
X44475000Y24218750I0J-218750D01*
G01*
X44475000Y23781250D01*
G75*
G02*
X44256250Y23562500I-218750J0D01*
G01*
G37*
G36*
G01*
X44256250Y25137500D02*
X43743750Y25137500D01*
G75*
G02*
X43525000Y25356250I0J218750D01*
G01*
X43525000Y25793750D01*
G75*
G02*
X43743750Y26012500I218750J0D01*
G01*
X44256250Y26012500D01*
G75*
G02*
X44475000Y25793750I0J-218750D01*
G01*
X44475000Y25356250D01*
G75*
G02*
X44256250Y25137500I-218750J0D01*
G01*
G37*
G04 #@! TD*
G04 #@! TO.C,R6*
G36*
G01*
X65110000Y35350000D02*
X65890000Y35350000D01*
G75*
G02*
X65960000Y35280000I0J-70000D01*
G01*
X65960000Y34720000D01*
G75*
G02*
X65890000Y34650000I-70000J0D01*
G01*
X65110000Y34650000D01*
G75*
G02*
X65040000Y34720000I0J70000D01*
G01*
X65040000Y35280000D01*
G75*
G02*
X65110000Y35350000I70000J0D01*
G01*
G37*
G36*
G01*
X65110000Y33750000D02*
X65890000Y33750000D01*
G75*
G02*
X65960000Y33680000I0J-70000D01*
G01*
X65960000Y33120000D01*
G75*
G02*
X65890000Y33050000I-70000J0D01*
G01*
X65110000Y33050000D01*
G75*
G02*
X65040000Y33120000I0J70000D01*
G01*
X65040000Y33680000D01*
G75*
G02*
X65110000Y33750000I70000J0D01*
G01*
G37*
G04 #@! TD*
G04 #@! TO.C,U3*
G36*
G01*
X64840000Y39525000D02*
X64540000Y39525000D01*
G75*
G02*
X64390000Y39675000I0J150000D01*
G01*
X64390000Y41325000D01*
G75*
G02*
X64540000Y41475000I150000J0D01*
G01*
X64840000Y41475000D01*
G75*
G02*
X64990000Y41325000I0J-150000D01*
G01*
X64990000Y39675000D01*
G75*
G02*
X64840000Y39525000I-150000J0D01*
G01*
G37*
G36*
G01*
X66110000Y39525000D02*
X65810000Y39525000D01*
G75*
G02*
X65660000Y39675000I0J150000D01*
G01*
X65660000Y41325000D01*
G75*
G02*
X65810000Y41475000I150000J0D01*
G01*
X66110000Y41475000D01*
G75*
G02*
X66260000Y41325000I0J-150000D01*
G01*
X66260000Y39675000D01*
G75*
G02*
X66110000Y39525000I-150000J0D01*
G01*
G37*
G36*
G01*
X67380000Y39525000D02*
X67080000Y39525000D01*
G75*
G02*
X66930000Y39675000I0J150000D01*
G01*
X66930000Y41325000D01*
G75*
G02*
X67080000Y41475000I150000J0D01*
G01*
X67380000Y41475000D01*
G75*
G02*
X67530000Y41325000I0J-150000D01*
G01*
X67530000Y39675000D01*
G75*
G02*
X67380000Y39525000I-150000J0D01*
G01*
G37*
G36*
G01*
X68650000Y39525000D02*
X68350000Y39525000D01*
G75*
G02*
X68200000Y39675000I0J150000D01*
G01*
X68200000Y41325000D01*
G75*
G02*
X68350000Y41475000I150000J0D01*
G01*
X68650000Y41475000D01*
G75*
G02*
X68800000Y41325000I0J-150000D01*
G01*
X68800000Y39675000D01*
G75*
G02*
X68650000Y39525000I-150000J0D01*
G01*
G37*
G36*
G01*
X68650000Y44475000D02*
X68350000Y44475000D01*
G75*
G02*
X68200000Y44625000I0J150000D01*
G01*
X68200000Y46275000D01*
G75*
G02*
X68350000Y46425000I150000J0D01*
G01*
X68650000Y46425000D01*
G75*
G02*
X68800000Y46275000I0J-150000D01*
G01*
X68800000Y44625000D01*
G75*
G02*
X68650000Y44475000I-150000J0D01*
G01*
G37*
G36*
G01*
X67380000Y44475000D02*
X67080000Y44475000D01*
G75*
G02*
X66930000Y44625000I0J150000D01*
G01*
X66930000Y46275000D01*
G75*
G02*
X67080000Y46425000I150000J0D01*
G01*
X67380000Y46425000D01*
G75*
G02*
X67530000Y46275000I0J-150000D01*
G01*
X67530000Y44625000D01*
G75*
G02*
X67380000Y44475000I-150000J0D01*
G01*
G37*
G36*
G01*
X66110000Y44475000D02*
X65810000Y44475000D01*
G75*
G02*
X65660000Y44625000I0J150000D01*
G01*
X65660000Y46275000D01*
G75*
G02*
X65810000Y46425000I150000J0D01*
G01*
X66110000Y46425000D01*
G75*
G02*
X66260000Y46275000I0J-150000D01*
G01*
X66260000Y44625000D01*
G75*
G02*
X66110000Y44475000I-150000J0D01*
G01*
G37*
G36*
G01*
X64840000Y44475000D02*
X64540000Y44475000D01*
G75*
G02*
X64390000Y44625000I0J150000D01*
G01*
X64390000Y46275000D01*
G75*
G02*
X64540000Y46425000I150000J0D01*
G01*
X64840000Y46425000D01*
G75*
G02*
X64990000Y46275000I0J-150000D01*
G01*
X64990000Y44625000D01*
G75*
G02*
X64840000Y44475000I-150000J0D01*
G01*
G37*
G04 #@! TD*
G04 #@! TO.C,F13*
G36*
G01*
X47756250Y23562500D02*
X47243750Y23562500D01*
G75*
G02*
X47025000Y23781250I0J218750D01*
G01*
X47025000Y24218750D01*
G75*
G02*
X47243750Y24437500I218750J0D01*
G01*
X47756250Y24437500D01*
G75*
G02*
X47975000Y24218750I0J-218750D01*
G01*
X47975000Y23781250D01*
G75*
G02*
X47756250Y23562500I-218750J0D01*
G01*
G37*
G36*
G01*
X47756250Y25137500D02*
X47243750Y25137500D01*
G75*
G02*
X47025000Y25356250I0J218750D01*
G01*
X47025000Y25793750D01*
G75*
G02*
X47243750Y26012500I218750J0D01*
G01*
X47756250Y26012500D01*
G75*
G02*
X47975000Y25793750I0J-218750D01*
G01*
X47975000Y25356250D01*
G75*
G02*
X47756250Y25137500I-218750J0D01*
G01*
G37*
G04 #@! TD*
G04 #@! TO.C,U10*
G36*
G01*
X48340000Y39525000D02*
X48040000Y39525000D01*
G75*
G02*
X47890000Y39675000I0J150000D01*
G01*
X47890000Y41325000D01*
G75*
G02*
X48040000Y41475000I150000J0D01*
G01*
X48340000Y41475000D01*
G75*
G02*
X48490000Y41325000I0J-150000D01*
G01*
X48490000Y39675000D01*
G75*
G02*
X48340000Y39525000I-150000J0D01*
G01*
G37*
G36*
G01*
X49610000Y39525000D02*
X49310000Y39525000D01*
G75*
G02*
X49160000Y39675000I0J150000D01*
G01*
X49160000Y41325000D01*
G75*
G02*
X49310000Y41475000I150000J0D01*
G01*
X49610000Y41475000D01*
G75*
G02*
X49760000Y41325000I0J-150000D01*
G01*
X49760000Y39675000D01*
G75*
G02*
X49610000Y39525000I-150000J0D01*
G01*
G37*
G36*
G01*
X50880000Y39525000D02*
X50580000Y39525000D01*
G75*
G02*
X50430000Y39675000I0J150000D01*
G01*
X50430000Y41325000D01*
G75*
G02*
X50580000Y41475000I150000J0D01*
G01*
X50880000Y41475000D01*
G75*
G02*
X51030000Y41325000I0J-150000D01*
G01*
X51030000Y39675000D01*
G75*
G02*
X50880000Y39525000I-150000J0D01*
G01*
G37*
G36*
G01*
X52150000Y39525000D02*
X51850000Y39525000D01*
G75*
G02*
X51700000Y39675000I0J150000D01*
G01*
X51700000Y41325000D01*
G75*
G02*
X51850000Y41475000I150000J0D01*
G01*
X52150000Y41475000D01*
G75*
G02*
X52300000Y41325000I0J-150000D01*
G01*
X52300000Y39675000D01*
G75*
G02*
X52150000Y39525000I-150000J0D01*
G01*
G37*
G36*
G01*
X52150000Y44475000D02*
X51850000Y44475000D01*
G75*
G02*
X51700000Y44625000I0J150000D01*
G01*
X51700000Y46275000D01*
G75*
G02*
X51850000Y46425000I150000J0D01*
G01*
X52150000Y46425000D01*
G75*
G02*
X52300000Y46275000I0J-150000D01*
G01*
X52300000Y44625000D01*
G75*
G02*
X52150000Y44475000I-150000J0D01*
G01*
G37*
G36*
G01*
X50880000Y44475000D02*
X50580000Y44475000D01*
G75*
G02*
X50430000Y44625000I0J150000D01*
G01*
X50430000Y46275000D01*
G75*
G02*
X50580000Y46425000I150000J0D01*
G01*
X50880000Y46425000D01*
G75*
G02*
X51030000Y46275000I0J-150000D01*
G01*
X51030000Y44625000D01*
G75*
G02*
X50880000Y44475000I-150000J0D01*
G01*
G37*
G36*
G01*
X49610000Y44475000D02*
X49310000Y44475000D01*
G75*
G02*
X49160000Y44625000I0J150000D01*
G01*
X49160000Y46275000D01*
G75*
G02*
X49310000Y46425000I150000J0D01*
G01*
X49610000Y46425000D01*
G75*
G02*
X49760000Y46275000I0J-150000D01*
G01*
X49760000Y44625000D01*
G75*
G02*
X49610000Y44475000I-150000J0D01*
G01*
G37*
G36*
G01*
X48340000Y44475000D02*
X48040000Y44475000D01*
G75*
G02*
X47890000Y44625000I0J150000D01*
G01*
X47890000Y46275000D01*
G75*
G02*
X48040000Y46425000I150000J0D01*
G01*
X48340000Y46425000D01*
G75*
G02*
X48490000Y46275000I0J-150000D01*
G01*
X48490000Y44625000D01*
G75*
G02*
X48340000Y44475000I-150000J0D01*
G01*
G37*
G04 #@! TD*
G04 #@! TO.C,C1*
G36*
G01*
X8994998Y43660000D02*
X8994998Y44340000D01*
G75*
G02*
X9079998Y44425000I85000J0D01*
G01*
X9759998Y44425000D01*
G75*
G02*
X9844998Y44340000I0J-85000D01*
G01*
X9844998Y43660000D01*
G75*
G02*
X9759998Y43575000I-85000J0D01*
G01*
X9079998Y43575000D01*
G75*
G02*
X8994998Y43660000I0J85000D01*
G01*
G37*
G36*
G01*
X10575000Y43660000D02*
X10575000Y44340000D01*
G75*
G02*
X10660000Y44425000I85000J0D01*
G01*
X11340000Y44425000D01*
G75*
G02*
X11425000Y44340000I0J-85000D01*
G01*
X11425000Y43660000D01*
G75*
G02*
X11340000Y43575000I-85000J0D01*
G01*
X10660000Y43575000D01*
G75*
G02*
X10575000Y43660000I0J85000D01*
G01*
G37*
G04 #@! TD*
G04 #@! TO.C,J2*
G36*
G01*
X10360000Y101050001D02*
X10360000Y102949999D01*
G75*
G02*
X10610001Y103200000I250001J0D01*
G01*
X12509999Y103200000D01*
G75*
G02*
X12760000Y102949999I0J-250001D01*
G01*
X12760000Y101050001D01*
G75*
G02*
X12509999Y100800000I-250001J0D01*
G01*
X10610001Y100800000D01*
G75*
G02*
X10360000Y101050001I0J250001D01*
G01*
G37*
D20*
X15520000Y102000000D03*
X19480000Y102000000D03*
X23440000Y102000000D03*
X27400000Y102000000D03*
X31360000Y102000000D03*
X35320000Y102000000D03*
X39280000Y102000000D03*
X43240000Y102000000D03*
X47200000Y102000000D03*
X51160000Y102000000D03*
X55120000Y102000000D03*
X59080000Y102000000D03*
X63040000Y102000000D03*
X67000000Y102000000D03*
X70960000Y102000000D03*
X74920000Y102000000D03*
X78880000Y102000000D03*
X82840000Y102000000D03*
X86800000Y102000000D03*
G04 #@! TD*
G04 #@! TO.C,R2*
G36*
G01*
X34605000Y35150000D02*
X35385000Y35150000D01*
G75*
G02*
X35455000Y35080000I0J-70000D01*
G01*
X35455000Y34520000D01*
G75*
G02*
X35385000Y34450000I-70000J0D01*
G01*
X34605000Y34450000D01*
G75*
G02*
X34535000Y34520000I0J70000D01*
G01*
X34535000Y35080000D01*
G75*
G02*
X34605000Y35150000I70000J0D01*
G01*
G37*
G36*
G01*
X34605000Y33550000D02*
X35385000Y33550000D01*
G75*
G02*
X35455000Y33480000I0J-70000D01*
G01*
X35455000Y32920000D01*
G75*
G02*
X35385000Y32850000I-70000J0D01*
G01*
X34605000Y32850000D01*
G75*
G02*
X34535000Y32920000I0J70000D01*
G01*
X34535000Y33480000D01*
G75*
G02*
X34605000Y33550000I70000J0D01*
G01*
G37*
G04 #@! TD*
D21*
X30500000Y57000000D03*
X92000000Y73000000D03*
X14000000Y95000000D03*
X34500000Y47500000D03*
X21000000Y95000000D03*
X4000000Y22000000D03*
X89000000Y73000000D03*
X95500000Y107500000D03*
X12000000Y95000000D03*
X45000000Y18500000D03*
X13000000Y95000000D03*
X67500000Y48000000D03*
X40500000Y51000000D03*
X30500000Y55000000D03*
X97000000Y2500000D03*
X92000000Y71000000D03*
X96500000Y105000000D03*
X89500000Y68000000D03*
X93500000Y106500000D03*
X95000000Y3500000D03*
X41000000Y88500000D03*
X24000000Y12000000D03*
X94500000Y105000000D03*
X42500000Y51000000D03*
X32000000Y30500000D03*
X96500000Y107000000D03*
X46500000Y23000000D03*
X30500000Y58000000D03*
X32000000Y25500000D03*
X25000000Y85500000D03*
X33500000Y47500000D03*
X96500000Y106000000D03*
X97000000Y3500000D03*
X94000000Y3000000D03*
X96500000Y104000000D03*
X80000000Y4500000D03*
X88000000Y76500000D03*
X97000000Y5500000D03*
X15000000Y95000000D03*
X69500000Y73000000D03*
X89500000Y66000000D03*
X57000000Y49500000D03*
X32000000Y28500000D03*
X89000000Y76000000D03*
X91000000Y73000000D03*
X90500000Y70000000D03*
X62000000Y43000000D03*
X90000000Y73000000D03*
X69500000Y68000000D03*
X42000000Y88500000D03*
X62000000Y44000000D03*
X62000000Y45000000D03*
X81000000Y4500000D03*
X88500000Y68000000D03*
X97000000Y4500000D03*
X18000000Y52000000D03*
X86000000Y73000000D03*
X32000000Y27500000D03*
X46500000Y18500000D03*
X93000000Y73000000D03*
X88000000Y69000000D03*
X96000000Y2000000D03*
X77500000Y4500000D03*
X19000000Y95000000D03*
X89000000Y69000000D03*
X90000000Y67000000D03*
X97000000Y1500000D03*
X73000000Y104500000D03*
X30500000Y64000000D03*
X31500000Y47500000D03*
X18000000Y72500000D03*
X26000000Y86500000D03*
X89500000Y74000000D03*
X87000000Y71000000D03*
X93000000Y3500000D03*
X94500000Y106000000D03*
X41500000Y51000000D03*
X92500000Y72000000D03*
X17000000Y95000000D03*
X89000000Y67000000D03*
X69500000Y66000000D03*
X19000000Y52000000D03*
X30500000Y54000000D03*
X96000000Y4000000D03*
X96000000Y3000000D03*
X96000000Y5000000D03*
X88500000Y70000000D03*
X86500000Y72000000D03*
X78500000Y4500000D03*
X21000000Y52000000D03*
X16000000Y95000000D03*
X95500000Y105500000D03*
X69500000Y48000000D03*
X11000000Y95000000D03*
X42500000Y23000000D03*
X30500000Y56000000D03*
X18000000Y76000000D03*
X94500000Y107000000D03*
X95500000Y106500000D03*
X35500000Y47500000D03*
X28500000Y64000000D03*
X89500000Y75000000D03*
X89500000Y70000000D03*
X19000000Y76000000D03*
X68500000Y63000000D03*
X68500000Y48000000D03*
X45000000Y23000000D03*
X88000000Y73000000D03*
X69500000Y67000000D03*
X69500000Y72000000D03*
X93500000Y105500000D03*
X95500000Y104500000D03*
X94000000Y4000000D03*
X91500000Y70000000D03*
X69500000Y63000000D03*
X56000000Y49500000D03*
X69500000Y74000000D03*
X32000000Y29500000D03*
X29500000Y64000000D03*
X77000000Y104500000D03*
X43000000Y88500000D03*
X20000000Y76000000D03*
X90500000Y68000000D03*
X30500000Y53000000D03*
X96500000Y108000000D03*
X59000000Y88000000D03*
X42500000Y18500000D03*
X92500000Y106000000D03*
X91000000Y69000000D03*
X87500000Y70000000D03*
X31000000Y85000000D03*
X20000000Y52000000D03*
X20000000Y95000000D03*
X95000000Y4500000D03*
X18000000Y95000000D03*
X87000000Y73000000D03*
X32000000Y26500000D03*
X95000000Y2500000D03*
X32500000Y47500000D03*
X90000000Y69000000D03*
X26099978Y81500000D03*
X36500000Y88000000D03*
X30500000Y94599978D03*
X15000000Y49960000D03*
X26099978Y84500000D03*
X37000000Y29000000D03*
X51000000Y48000000D03*
X52500000Y21500000D03*
X18000000Y33500000D03*
X29000000Y33500000D03*
X49000000Y48000000D03*
X59000000Y48000000D03*
X55874500Y21374500D03*
X57000000Y48000000D03*
X83500000Y2200000D03*
X54500000Y24000000D03*
X28500000Y49500000D03*
X67000000Y89500000D03*
X15000000Y97500000D03*
X1500000Y107500000D03*
X2500000Y106500000D03*
X3500000Y105500000D03*
X41000000Y104000000D03*
X78434314Y70565686D03*
X52000000Y24000000D03*
X52000000Y31500000D03*
X53000000Y30350000D03*
X53000000Y24000000D03*
M02*
