G04 #@! TF.GenerationSoftware,KiCad,Pcbnew,8.0.9-8.0.9-0~ubuntu24.04.1*
G04 #@! TF.CreationDate,2025-05-23T06:35:07+00:00*
G04 #@! TF.ProjectId,stabiljr,73746162-696c-46a7-922e-6b696361645f,V1*
G04 #@! TF.SameCoordinates,PX3a2c940PY8e93060*
G04 #@! TF.FileFunction,Paste,Top*
G04 #@! TF.FilePolarity,Positive*
%FSLAX46Y46*%
G04 Gerber Fmt 4.6, Leading zero omitted, Abs format (unit mm)*
G04 Created by KiCad (PCBNEW 8.0.9-8.0.9-0~ubuntu24.04.1) date 2025-05-23 06:35:07*
%MOMM*%
%LPD*%
G01*
G04 APERTURE LIST*
G04 APERTURE END LIST*
G04 #@! TO.C,R1*
G36*
G01*
X31905000Y35150000D02*
X32685000Y35150000D01*
G75*
G02*
X32755000Y35080000I0J-70000D01*
G01*
X32755000Y34520000D01*
G75*
G02*
X32685000Y34450000I-70000J0D01*
G01*
X31905000Y34450000D01*
G75*
G02*
X31835000Y34520000I0J70000D01*
G01*
X31835000Y35080000D01*
G75*
G02*
X31905000Y35150000I70000J0D01*
G01*
G37*
G36*
G01*
X31905000Y33550000D02*
X32685000Y33550000D01*
G75*
G02*
X32755000Y33480000I0J-70000D01*
G01*
X32755000Y32920000D01*
G75*
G02*
X32685000Y32850000I-70000J0D01*
G01*
X31905000Y32850000D01*
G75*
G02*
X31835000Y32920000I0J70000D01*
G01*
X31835000Y33480000D01*
G75*
G02*
X31905000Y33550000I70000J0D01*
G01*
G37*
G04 #@! TD*
G04 #@! TO.C,R22*
G36*
G01*
X57890000Y33000000D02*
X57110000Y33000000D01*
G75*
G02*
X57040000Y33070000I0J70000D01*
G01*
X57040000Y33630000D01*
G75*
G02*
X57110000Y33700000I70000J0D01*
G01*
X57890000Y33700000D01*
G75*
G02*
X57960000Y33630000I0J-70000D01*
G01*
X57960000Y33070000D01*
G75*
G02*
X57890000Y33000000I-70000J0D01*
G01*
G37*
G36*
G01*
X57890000Y34600000D02*
X57110000Y34600000D01*
G75*
G02*
X57040000Y34670000I0J70000D01*
G01*
X57040000Y35230000D01*
G75*
G02*
X57110000Y35300000I70000J0D01*
G01*
X57890000Y35300000D01*
G75*
G02*
X57960000Y35230000I0J-70000D01*
G01*
X57960000Y34670000D01*
G75*
G02*
X57890000Y34600000I-70000J0D01*
G01*
G37*
G04 #@! TD*
G04 #@! TO.C,MAP1*
G36*
G01*
X16010000Y48943700D02*
X16010000Y48436300D01*
G75*
G02*
X15968700Y48395000I-41300J0D01*
G01*
X14031300Y48395000D01*
G75*
G02*
X13990000Y48436300I0J41300D01*
G01*
X13990000Y48943700D01*
G75*
G02*
X14031300Y48985000I41300J0D01*
G01*
X15968700Y48985000D01*
G75*
G02*
X16010000Y48943700I0J-41300D01*
G01*
G37*
G36*
G01*
X16010000Y50213700D02*
X16010000Y49706300D01*
G75*
G02*
X15968700Y49665000I-41300J0D01*
G01*
X14031300Y49665000D01*
G75*
G02*
X13990000Y49706300I0J41300D01*
G01*
X13990000Y50213700D01*
G75*
G02*
X14031300Y50255000I41300J0D01*
G01*
X15968700Y50255000D01*
G75*
G02*
X16010000Y50213700I0J-41300D01*
G01*
G37*
G36*
G01*
X16010000Y51483700D02*
X16010000Y50976300D01*
G75*
G02*
X15968700Y50935000I-41300J0D01*
G01*
X14031300Y50935000D01*
G75*
G02*
X13990000Y50976300I0J41300D01*
G01*
X13990000Y51483700D01*
G75*
G02*
X14031300Y51525000I41300J0D01*
G01*
X15968700Y51525000D01*
G75*
G02*
X16010000Y51483700I0J-41300D01*
G01*
G37*
G36*
G01*
X16010000Y52753700D02*
X16010000Y52246300D01*
G75*
G02*
X15968700Y52205000I-41300J0D01*
G01*
X14031300Y52205000D01*
G75*
G02*
X13990000Y52246300I0J41300D01*
G01*
X13990000Y52753700D01*
G75*
G02*
X14031300Y52795000I41300J0D01*
G01*
X15968700Y52795000D01*
G75*
G02*
X16010000Y52753700I0J-41300D01*
G01*
G37*
G36*
G01*
X6650000Y52753700D02*
X6650000Y52246300D01*
G75*
G02*
X6608700Y52205000I-41300J0D01*
G01*
X4671300Y52205000D01*
G75*
G02*
X4630000Y52246300I0J41300D01*
G01*
X4630000Y52753700D01*
G75*
G02*
X4671300Y52795000I41300J0D01*
G01*
X6608700Y52795000D01*
G75*
G02*
X6650000Y52753700I0J-41300D01*
G01*
G37*
G36*
G01*
X6650000Y51483700D02*
X6650000Y50976300D01*
G75*
G02*
X6608700Y50935000I-41300J0D01*
G01*
X4671300Y50935000D01*
G75*
G02*
X4630000Y50976300I0J41300D01*
G01*
X4630000Y51483700D01*
G75*
G02*
X4671300Y51525000I41300J0D01*
G01*
X6608700Y51525000D01*
G75*
G02*
X6650000Y51483700I0J-41300D01*
G01*
G37*
G36*
G01*
X6650000Y50213700D02*
X6650000Y49706300D01*
G75*
G02*
X6608700Y49665000I-41300J0D01*
G01*
X4671300Y49665000D01*
G75*
G02*
X4630000Y49706300I0J41300D01*
G01*
X4630000Y50213700D01*
G75*
G02*
X4671300Y50255000I41300J0D01*
G01*
X6608700Y50255000D01*
G75*
G02*
X6650000Y50213700I0J-41300D01*
G01*
G37*
G36*
G01*
X6650000Y48943700D02*
X6650000Y48436300D01*
G75*
G02*
X6608700Y48395000I-41300J0D01*
G01*
X4671300Y48395000D01*
G75*
G02*
X4630000Y48436300I0J41300D01*
G01*
X4630000Y48943700D01*
G75*
G02*
X4671300Y48985000I41300J0D01*
G01*
X6608700Y48985000D01*
G75*
G02*
X6650000Y48943700I0J-41300D01*
G01*
G37*
G04 #@! TD*
G04 #@! TO.C,R9*
G36*
G01*
X15599978Y36875000D02*
X15599978Y38125000D01*
G75*
G02*
X15699978Y38225000I100000J0D01*
G01*
X16499978Y38225000D01*
G75*
G02*
X16599978Y38125000I0J-100000D01*
G01*
X16599978Y36875000D01*
G75*
G02*
X16499978Y36775000I-100000J0D01*
G01*
X15699978Y36775000D01*
G75*
G02*
X15599978Y36875000I0J100000D01*
G01*
G37*
G36*
G01*
X17500000Y36875000D02*
X17500000Y38125000D01*
G75*
G02*
X17600000Y38225000I100000J0D01*
G01*
X18400000Y38225000D01*
G75*
G02*
X18500000Y38125000I0J-100000D01*
G01*
X18500000Y36875000D01*
G75*
G02*
X18400000Y36775000I-100000J0D01*
G01*
X17600000Y36775000D01*
G75*
G02*
X17500000Y36875000I0J100000D01*
G01*
G37*
G04 #@! TD*
G04 #@! TO.C,R11*
G36*
G01*
X41390000Y19850000D02*
X40610000Y19850000D01*
G75*
G02*
X40540000Y19920000I0J70000D01*
G01*
X40540000Y20480000D01*
G75*
G02*
X40610000Y20550000I70000J0D01*
G01*
X41390000Y20550000D01*
G75*
G02*
X41460000Y20480000I0J-70000D01*
G01*
X41460000Y19920000D01*
G75*
G02*
X41390000Y19850000I-70000J0D01*
G01*
G37*
G36*
G01*
X41390000Y21450000D02*
X40610000Y21450000D01*
G75*
G02*
X40540000Y21520000I0J70000D01*
G01*
X40540000Y22080000D01*
G75*
G02*
X40610000Y22150000I70000J0D01*
G01*
X41390000Y22150000D01*
G75*
G02*
X41460000Y22080000I0J-70000D01*
G01*
X41460000Y21520000D01*
G75*
G02*
X41390000Y21450000I-70000J0D01*
G01*
G37*
G04 #@! TD*
G04 #@! TO.C,R14*
G36*
G01*
X50890000Y19850000D02*
X50110000Y19850000D01*
G75*
G02*
X50040000Y19920000I0J70000D01*
G01*
X50040000Y20480000D01*
G75*
G02*
X50110000Y20550000I70000J0D01*
G01*
X50890000Y20550000D01*
G75*
G02*
X50960000Y20480000I0J-70000D01*
G01*
X50960000Y19920000D01*
G75*
G02*
X50890000Y19850000I-70000J0D01*
G01*
G37*
G36*
G01*
X50890000Y21450000D02*
X50110000Y21450000D01*
G75*
G02*
X50040000Y21520000I0J70000D01*
G01*
X50040000Y22080000D01*
G75*
G02*
X50110000Y22150000I70000J0D01*
G01*
X50890000Y22150000D01*
G75*
G02*
X50960000Y22080000I0J-70000D01*
G01*
X50960000Y21520000D01*
G75*
G02*
X50890000Y21450000I-70000J0D01*
G01*
G37*
G04 #@! TD*
G04 #@! TO.C,F11*
G36*
G01*
X41226250Y23562500D02*
X40713750Y23562500D01*
G75*
G02*
X40495000Y23781250I0J218750D01*
G01*
X40495000Y24218750D01*
G75*
G02*
X40713750Y24437500I218750J0D01*
G01*
X41226250Y24437500D01*
G75*
G02*
X41445000Y24218750I0J-218750D01*
G01*
X41445000Y23781250D01*
G75*
G02*
X41226250Y23562500I-218750J0D01*
G01*
G37*
G36*
G01*
X41226250Y25137500D02*
X40713750Y25137500D01*
G75*
G02*
X40495000Y25356250I0J218750D01*
G01*
X40495000Y25793750D01*
G75*
G02*
X40713750Y26012500I218750J0D01*
G01*
X41226250Y26012500D01*
G75*
G02*
X41445000Y25793750I0J-218750D01*
G01*
X41445000Y25356250D01*
G75*
G02*
X41226250Y25137500I-218750J0D01*
G01*
G37*
G04 #@! TD*
G04 #@! TO.C,U2*
G36*
G01*
X39935000Y39525000D02*
X39635000Y39525000D01*
G75*
G02*
X39485000Y39675000I0J150000D01*
G01*
X39485000Y41325000D01*
G75*
G02*
X39635000Y41475000I150000J0D01*
G01*
X39935000Y41475000D01*
G75*
G02*
X40085000Y41325000I0J-150000D01*
G01*
X40085000Y39675000D01*
G75*
G02*
X39935000Y39525000I-150000J0D01*
G01*
G37*
G36*
G01*
X41205000Y39525000D02*
X40905000Y39525000D01*
G75*
G02*
X40755000Y39675000I0J150000D01*
G01*
X40755000Y41325000D01*
G75*
G02*
X40905000Y41475000I150000J0D01*
G01*
X41205000Y41475000D01*
G75*
G02*
X41355000Y41325000I0J-150000D01*
G01*
X41355000Y39675000D01*
G75*
G02*
X41205000Y39525000I-150000J0D01*
G01*
G37*
G36*
G01*
X42475000Y39525000D02*
X42175000Y39525000D01*
G75*
G02*
X42025000Y39675000I0J150000D01*
G01*
X42025000Y41325000D01*
G75*
G02*
X42175000Y41475000I150000J0D01*
G01*
X42475000Y41475000D01*
G75*
G02*
X42625000Y41325000I0J-150000D01*
G01*
X42625000Y39675000D01*
G75*
G02*
X42475000Y39525000I-150000J0D01*
G01*
G37*
G36*
G01*
X43745000Y39525000D02*
X43445000Y39525000D01*
G75*
G02*
X43295000Y39675000I0J150000D01*
G01*
X43295000Y41325000D01*
G75*
G02*
X43445000Y41475000I150000J0D01*
G01*
X43745000Y41475000D01*
G75*
G02*
X43895000Y41325000I0J-150000D01*
G01*
X43895000Y39675000D01*
G75*
G02*
X43745000Y39525000I-150000J0D01*
G01*
G37*
G36*
G01*
X43745000Y44475000D02*
X43445000Y44475000D01*
G75*
G02*
X43295000Y44625000I0J150000D01*
G01*
X43295000Y46275000D01*
G75*
G02*
X43445000Y46425000I150000J0D01*
G01*
X43745000Y46425000D01*
G75*
G02*
X43895000Y46275000I0J-150000D01*
G01*
X43895000Y44625000D01*
G75*
G02*
X43745000Y44475000I-150000J0D01*
G01*
G37*
G36*
G01*
X42475000Y44475000D02*
X42175000Y44475000D01*
G75*
G02*
X42025000Y44625000I0J150000D01*
G01*
X42025000Y46275000D01*
G75*
G02*
X42175000Y46425000I150000J0D01*
G01*
X42475000Y46425000D01*
G75*
G02*
X42625000Y46275000I0J-150000D01*
G01*
X42625000Y44625000D01*
G75*
G02*
X42475000Y44475000I-150000J0D01*
G01*
G37*
G36*
G01*
X41205000Y44475000D02*
X40905000Y44475000D01*
G75*
G02*
X40755000Y44625000I0J150000D01*
G01*
X40755000Y46275000D01*
G75*
G02*
X40905000Y46425000I150000J0D01*
G01*
X41205000Y46425000D01*
G75*
G02*
X41355000Y46275000I0J-150000D01*
G01*
X41355000Y44625000D01*
G75*
G02*
X41205000Y44475000I-150000J0D01*
G01*
G37*
G36*
G01*
X39935000Y44475000D02*
X39635000Y44475000D01*
G75*
G02*
X39485000Y44625000I0J150000D01*
G01*
X39485000Y46275000D01*
G75*
G02*
X39635000Y46425000I150000J0D01*
G01*
X39935000Y46425000D01*
G75*
G02*
X40085000Y46275000I0J-150000D01*
G01*
X40085000Y44625000D01*
G75*
G02*
X39935000Y44475000I-150000J0D01*
G01*
G37*
G04 #@! TD*
G04 #@! TO.C,R32*
G36*
G01*
X26875000Y97000000D02*
X28125000Y97000000D01*
G75*
G02*
X28225000Y96900000I0J-100000D01*
G01*
X28225000Y96100000D01*
G75*
G02*
X28125000Y96000000I-100000J0D01*
G01*
X26875000Y96000000D01*
G75*
G02*
X26775000Y96100000I0J100000D01*
G01*
X26775000Y96900000D01*
G75*
G02*
X26875000Y97000000I100000J0D01*
G01*
G37*
G36*
G01*
X26875000Y95099978D02*
X28125000Y95099978D01*
G75*
G02*
X28225000Y94999978I0J-100000D01*
G01*
X28225000Y94199978D01*
G75*
G02*
X28125000Y94099978I-100000J0D01*
G01*
X26875000Y94099978D01*
G75*
G02*
X26775000Y94199978I0J100000D01*
G01*
X26775000Y94999978D01*
G75*
G02*
X26875000Y95099978I100000J0D01*
G01*
G37*
G04 #@! TD*
G04 #@! TO.C,R4*
G36*
G01*
X42905000Y35150000D02*
X43685000Y35150000D01*
G75*
G02*
X43755000Y35080000I0J-70000D01*
G01*
X43755000Y34520000D01*
G75*
G02*
X43685000Y34450000I-70000J0D01*
G01*
X42905000Y34450000D01*
G75*
G02*
X42835000Y34520000I0J70000D01*
G01*
X42835000Y35080000D01*
G75*
G02*
X42905000Y35150000I70000J0D01*
G01*
G37*
G36*
G01*
X42905000Y33550000D02*
X43685000Y33550000D01*
G75*
G02*
X43755000Y33480000I0J-70000D01*
G01*
X43755000Y32920000D01*
G75*
G02*
X43685000Y32850000I-70000J0D01*
G01*
X42905000Y32850000D01*
G75*
G02*
X42835000Y32920000I0J70000D01*
G01*
X42835000Y33480000D01*
G75*
G02*
X42905000Y33550000I70000J0D01*
G01*
G37*
G04 #@! TD*
G04 #@! TO.C,R24*
G36*
G01*
X49390000Y33050000D02*
X48610000Y33050000D01*
G75*
G02*
X48540000Y33120000I0J70000D01*
G01*
X48540000Y33680000D01*
G75*
G02*
X48610000Y33750000I70000J0D01*
G01*
X49390000Y33750000D01*
G75*
G02*
X49460000Y33680000I0J-70000D01*
G01*
X49460000Y33120000D01*
G75*
G02*
X49390000Y33050000I-70000J0D01*
G01*
G37*
G36*
G01*
X49390000Y34650000D02*
X48610000Y34650000D01*
G75*
G02*
X48540000Y34720000I0J70000D01*
G01*
X48540000Y35280000D01*
G75*
G02*
X48610000Y35350000I70000J0D01*
G01*
X49390000Y35350000D01*
G75*
G02*
X49460000Y35280000I0J-70000D01*
G01*
X49460000Y34720000D01*
G75*
G02*
X49390000Y34650000I-70000J0D01*
G01*
G37*
G04 #@! TD*
G04 #@! TO.C,R3*
G36*
G01*
X40405000Y35150000D02*
X41185000Y35150000D01*
G75*
G02*
X41255000Y35080000I0J-70000D01*
G01*
X41255000Y34520000D01*
G75*
G02*
X41185000Y34450000I-70000J0D01*
G01*
X40405000Y34450000D01*
G75*
G02*
X40335000Y34520000I0J70000D01*
G01*
X40335000Y35080000D01*
G75*
G02*
X40405000Y35150000I70000J0D01*
G01*
G37*
G36*
G01*
X40405000Y33550000D02*
X41185000Y33550000D01*
G75*
G02*
X41255000Y33480000I0J-70000D01*
G01*
X41255000Y32920000D01*
G75*
G02*
X41185000Y32850000I-70000J0D01*
G01*
X40405000Y32850000D01*
G75*
G02*
X40335000Y32920000I0J70000D01*
G01*
X40335000Y33480000D01*
G75*
G02*
X40405000Y33550000I70000J0D01*
G01*
G37*
G04 #@! TD*
G04 #@! TO.C,R5*
G36*
G01*
X67610000Y35350000D02*
X68390000Y35350000D01*
G75*
G02*
X68460000Y35280000I0J-70000D01*
G01*
X68460000Y34720000D01*
G75*
G02*
X68390000Y34650000I-70000J0D01*
G01*
X67610000Y34650000D01*
G75*
G02*
X67540000Y34720000I0J70000D01*
G01*
X67540000Y35280000D01*
G75*
G02*
X67610000Y35350000I70000J0D01*
G01*
G37*
G36*
G01*
X67610000Y33750000D02*
X68390000Y33750000D01*
G75*
G02*
X68460000Y33680000I0J-70000D01*
G01*
X68460000Y33120000D01*
G75*
G02*
X68390000Y33050000I-70000J0D01*
G01*
X67610000Y33050000D01*
G75*
G02*
X67540000Y33120000I0J70000D01*
G01*
X67540000Y33680000D01*
G75*
G02*
X67610000Y33750000I70000J0D01*
G01*
G37*
G04 #@! TD*
G04 #@! TO.C,R31*
G36*
G01*
X23875000Y97000000D02*
X25125000Y97000000D01*
G75*
G02*
X25225000Y96900000I0J-100000D01*
G01*
X25225000Y96100000D01*
G75*
G02*
X25125000Y96000000I-100000J0D01*
G01*
X23875000Y96000000D01*
G75*
G02*
X23775000Y96100000I0J100000D01*
G01*
X23775000Y96900000D01*
G75*
G02*
X23875000Y97000000I100000J0D01*
G01*
G37*
G36*
G01*
X23875000Y95099978D02*
X25125000Y95099978D01*
G75*
G02*
X25225000Y94999978I0J-100000D01*
G01*
X25225000Y94199978D01*
G75*
G02*
X25125000Y94099978I-100000J0D01*
G01*
X23875000Y94099978D01*
G75*
G02*
X23775000Y94199978I0J100000D01*
G01*
X23775000Y94999978D01*
G75*
G02*
X23875000Y95099978I100000J0D01*
G01*
G37*
G04 #@! TD*
G04 #@! TO.C,R41*
G36*
G01*
X25599978Y80875000D02*
X25599978Y82125000D01*
G75*
G02*
X25699978Y82225000I100000J0D01*
G01*
X26499978Y82225000D01*
G75*
G02*
X26599978Y82125000I0J-100000D01*
G01*
X26599978Y80875000D01*
G75*
G02*
X26499978Y80775000I-100000J0D01*
G01*
X25699978Y80775000D01*
G75*
G02*
X25599978Y80875000I0J100000D01*
G01*
G37*
G36*
G01*
X27500000Y80875000D02*
X27500000Y82125000D01*
G75*
G02*
X27600000Y82225000I100000J0D01*
G01*
X28400000Y82225000D01*
G75*
G02*
X28500000Y82125000I0J-100000D01*
G01*
X28500000Y80875000D01*
G75*
G02*
X28400000Y80775000I-100000J0D01*
G01*
X27600000Y80775000D01*
G75*
G02*
X27500000Y80875000I0J100000D01*
G01*
G37*
G04 #@! TD*
G04 #@! TO.C,R12*
G36*
G01*
X44390000Y19850000D02*
X43610000Y19850000D01*
G75*
G02*
X43540000Y19920000I0J70000D01*
G01*
X43540000Y20480000D01*
G75*
G02*
X43610000Y20550000I70000J0D01*
G01*
X44390000Y20550000D01*
G75*
G02*
X44460000Y20480000I0J-70000D01*
G01*
X44460000Y19920000D01*
G75*
G02*
X44390000Y19850000I-70000J0D01*
G01*
G37*
G36*
G01*
X44390000Y21450000D02*
X43610000Y21450000D01*
G75*
G02*
X43540000Y21520000I0J70000D01*
G01*
X43540000Y22080000D01*
G75*
G02*
X43610000Y22150000I70000J0D01*
G01*
X44390000Y22150000D01*
G75*
G02*
X44460000Y22080000I0J-70000D01*
G01*
X44460000Y21520000D01*
G75*
G02*
X44390000Y21450000I-70000J0D01*
G01*
G37*
G04 #@! TD*
G04 #@! TO.C,R42*
G36*
G01*
X25599978Y83875000D02*
X25599978Y85125000D01*
G75*
G02*
X25699978Y85225000I100000J0D01*
G01*
X26499978Y85225000D01*
G75*
G02*
X26599978Y85125000I0J-100000D01*
G01*
X26599978Y83875000D01*
G75*
G02*
X26499978Y83775000I-100000J0D01*
G01*
X25699978Y83775000D01*
G75*
G02*
X25599978Y83875000I0J100000D01*
G01*
G37*
G36*
G01*
X27500000Y83875000D02*
X27500000Y85125000D01*
G75*
G02*
X27600000Y85225000I100000J0D01*
G01*
X28400000Y85225000D01*
G75*
G02*
X28500000Y85125000I0J-100000D01*
G01*
X28500000Y83875000D01*
G75*
G02*
X28400000Y83775000I-100000J0D01*
G01*
X27600000Y83775000D01*
G75*
G02*
X27500000Y83875000I0J100000D01*
G01*
G37*
G04 #@! TD*
G04 #@! TO.C,U9*
G36*
G01*
X56840000Y39525000D02*
X56540000Y39525000D01*
G75*
G02*
X56390000Y39675000I0J150000D01*
G01*
X56390000Y41325000D01*
G75*
G02*
X56540000Y41475000I150000J0D01*
G01*
X56840000Y41475000D01*
G75*
G02*
X56990000Y41325000I0J-150000D01*
G01*
X56990000Y39675000D01*
G75*
G02*
X56840000Y39525000I-150000J0D01*
G01*
G37*
G36*
G01*
X58110000Y39525000D02*
X57810000Y39525000D01*
G75*
G02*
X57660000Y39675000I0J150000D01*
G01*
X57660000Y41325000D01*
G75*
G02*
X57810000Y41475000I150000J0D01*
G01*
X58110000Y41475000D01*
G75*
G02*
X58260000Y41325000I0J-150000D01*
G01*
X58260000Y39675000D01*
G75*
G02*
X58110000Y39525000I-150000J0D01*
G01*
G37*
G36*
G01*
X59380000Y39525000D02*
X59080000Y39525000D01*
G75*
G02*
X58930000Y39675000I0J150000D01*
G01*
X58930000Y41325000D01*
G75*
G02*
X59080000Y41475000I150000J0D01*
G01*
X59380000Y41475000D01*
G75*
G02*
X59530000Y41325000I0J-150000D01*
G01*
X59530000Y39675000D01*
G75*
G02*
X59380000Y39525000I-150000J0D01*
G01*
G37*
G36*
G01*
X60650000Y39525000D02*
X60350000Y39525000D01*
G75*
G02*
X60200000Y39675000I0J150000D01*
G01*
X60200000Y41325000D01*
G75*
G02*
X60350000Y41475000I150000J0D01*
G01*
X60650000Y41475000D01*
G75*
G02*
X60800000Y41325000I0J-150000D01*
G01*
X60800000Y39675000D01*
G75*
G02*
X60650000Y39525000I-150000J0D01*
G01*
G37*
G36*
G01*
X60650000Y44475000D02*
X60350000Y44475000D01*
G75*
G02*
X60200000Y44625000I0J150000D01*
G01*
X60200000Y46275000D01*
G75*
G02*
X60350000Y46425000I150000J0D01*
G01*
X60650000Y46425000D01*
G75*
G02*
X60800000Y46275000I0J-150000D01*
G01*
X60800000Y44625000D01*
G75*
G02*
X60650000Y44475000I-150000J0D01*
G01*
G37*
G36*
G01*
X59380000Y44475000D02*
X59080000Y44475000D01*
G75*
G02*
X58930000Y44625000I0J150000D01*
G01*
X58930000Y46275000D01*
G75*
G02*
X59080000Y46425000I150000J0D01*
G01*
X59380000Y46425000D01*
G75*
G02*
X59530000Y46275000I0J-150000D01*
G01*
X59530000Y44625000D01*
G75*
G02*
X59380000Y44475000I-150000J0D01*
G01*
G37*
G36*
G01*
X58110000Y44475000D02*
X57810000Y44475000D01*
G75*
G02*
X57660000Y44625000I0J150000D01*
G01*
X57660000Y46275000D01*
G75*
G02*
X57810000Y46425000I150000J0D01*
G01*
X58110000Y46425000D01*
G75*
G02*
X58260000Y46275000I0J-150000D01*
G01*
X58260000Y44625000D01*
G75*
G02*
X58110000Y44475000I-150000J0D01*
G01*
G37*
G36*
G01*
X56840000Y44475000D02*
X56540000Y44475000D01*
G75*
G02*
X56390000Y44625000I0J150000D01*
G01*
X56390000Y46275000D01*
G75*
G02*
X56540000Y46425000I150000J0D01*
G01*
X56840000Y46425000D01*
G75*
G02*
X56990000Y46275000I0J-150000D01*
G01*
X56990000Y44625000D01*
G75*
G02*
X56840000Y44475000I-150000J0D01*
G01*
G37*
G04 #@! TD*
G04 #@! TO.C,R43*
G36*
G01*
X15599978Y32875000D02*
X15599978Y34125000D01*
G75*
G02*
X15699978Y34225000I100000J0D01*
G01*
X16499978Y34225000D01*
G75*
G02*
X16599978Y34125000I0J-100000D01*
G01*
X16599978Y32875000D01*
G75*
G02*
X16499978Y32775000I-100000J0D01*
G01*
X15699978Y32775000D01*
G75*
G02*
X15599978Y32875000I0J100000D01*
G01*
G37*
G36*
G01*
X17500000Y32875000D02*
X17500000Y34125000D01*
G75*
G02*
X17600000Y34225000I100000J0D01*
G01*
X18400000Y34225000D01*
G75*
G02*
X18500000Y34125000I0J-100000D01*
G01*
X18500000Y32875000D01*
G75*
G02*
X18400000Y32775000I-100000J0D01*
G01*
X17600000Y32775000D01*
G75*
G02*
X17500000Y32875000I0J100000D01*
G01*
G37*
G04 #@! TD*
G04 #@! TO.C,F14*
G36*
G01*
X50756250Y23562500D02*
X50243750Y23562500D01*
G75*
G02*
X50025000Y23781250I0J218750D01*
G01*
X50025000Y24218750D01*
G75*
G02*
X50243750Y24437500I218750J0D01*
G01*
X50756250Y24437500D01*
G75*
G02*
X50975000Y24218750I0J-218750D01*
G01*
X50975000Y23781250D01*
G75*
G02*
X50756250Y23562500I-218750J0D01*
G01*
G37*
G36*
G01*
X50756250Y25137500D02*
X50243750Y25137500D01*
G75*
G02*
X50025000Y25356250I0J218750D01*
G01*
X50025000Y25793750D01*
G75*
G02*
X50243750Y26012500I218750J0D01*
G01*
X50756250Y26012500D01*
G75*
G02*
X50975000Y25793750I0J-218750D01*
G01*
X50975000Y25356250D01*
G75*
G02*
X50756250Y25137500I-218750J0D01*
G01*
G37*
G04 #@! TD*
G04 #@! TO.C,F2*
G36*
G01*
X9605010Y30900000D02*
X10295010Y30900000D01*
G75*
G02*
X10525010Y30670000I0J-230000D01*
G01*
X10525010Y29330000D01*
G75*
G02*
X10295010Y29100000I-230000J0D01*
G01*
X9605010Y29100000D01*
G75*
G02*
X9375010Y29330000I0J230000D01*
G01*
X9375010Y30670000D01*
G75*
G02*
X9605010Y30900000I230000J0D01*
G01*
G37*
G36*
G01*
X6704990Y30900000D02*
X7394990Y30900000D01*
G75*
G02*
X7624990Y30670000I0J-230000D01*
G01*
X7624990Y29330000D01*
G75*
G02*
X7394990Y29100000I-230000J0D01*
G01*
X6704990Y29100000D01*
G75*
G02*
X6474990Y29330000I0J230000D01*
G01*
X6474990Y30670000D01*
G75*
G02*
X6704990Y30900000I230000J0D01*
G01*
G37*
G04 #@! TD*
G04 #@! TO.C,R23*
G36*
G01*
X52390000Y33050000D02*
X51610000Y33050000D01*
G75*
G02*
X51540000Y33120000I0J70000D01*
G01*
X51540000Y33680000D01*
G75*
G02*
X51610000Y33750000I70000J0D01*
G01*
X52390000Y33750000D01*
G75*
G02*
X52460000Y33680000I0J-70000D01*
G01*
X52460000Y33120000D01*
G75*
G02*
X52390000Y33050000I-70000J0D01*
G01*
G37*
G36*
G01*
X52390000Y34650000D02*
X51610000Y34650000D01*
G75*
G02*
X51540000Y34720000I0J70000D01*
G01*
X51540000Y35280000D01*
G75*
G02*
X51610000Y35350000I70000J0D01*
G01*
X52390000Y35350000D01*
G75*
G02*
X52460000Y35280000I0J-70000D01*
G01*
X52460000Y34720000D01*
G75*
G02*
X52390000Y34650000I-70000J0D01*
G01*
G37*
G04 #@! TD*
G04 #@! TO.C,R8*
G36*
G01*
X15850000Y30390000D02*
X15850000Y29610000D01*
G75*
G02*
X15780000Y29540000I-70000J0D01*
G01*
X15220000Y29540000D01*
G75*
G02*
X15150000Y29610000I0J70000D01*
G01*
X15150000Y30390000D01*
G75*
G02*
X15220000Y30460000I70000J0D01*
G01*
X15780000Y30460000D01*
G75*
G02*
X15850000Y30390000I0J-70000D01*
G01*
G37*
G36*
G01*
X14250000Y30390000D02*
X14250000Y29610000D01*
G75*
G02*
X14180000Y29540000I-70000J0D01*
G01*
X13620000Y29540000D01*
G75*
G02*
X13550000Y29610000I0J70000D01*
G01*
X13550000Y30390000D01*
G75*
G02*
X13620000Y30460000I70000J0D01*
G01*
X14180000Y30460000D01*
G75*
G02*
X14250000Y30390000I0J-70000D01*
G01*
G37*
G04 #@! TD*
G04 #@! TO.C,R33*
G36*
G01*
X29875000Y97000000D02*
X31125000Y97000000D01*
G75*
G02*
X31225000Y96900000I0J-100000D01*
G01*
X31225000Y96100000D01*
G75*
G02*
X31125000Y96000000I-100000J0D01*
G01*
X29875000Y96000000D01*
G75*
G02*
X29775000Y96100000I0J100000D01*
G01*
X29775000Y96900000D01*
G75*
G02*
X29875000Y97000000I100000J0D01*
G01*
G37*
G36*
G01*
X29875000Y95099978D02*
X31125000Y95099978D01*
G75*
G02*
X31225000Y94999978I0J-100000D01*
G01*
X31225000Y94199978D01*
G75*
G02*
X31125000Y94099978I-100000J0D01*
G01*
X29875000Y94099978D01*
G75*
G02*
X29775000Y94199978I0J100000D01*
G01*
X29775000Y94999978D01*
G75*
G02*
X29875000Y95099978I100000J0D01*
G01*
G37*
G04 #@! TD*
G04 #@! TO.C,U1*
G36*
G01*
X31635000Y39400000D02*
X31335000Y39400000D01*
G75*
G02*
X31185000Y39550000I0J150000D01*
G01*
X31185000Y41200000D01*
G75*
G02*
X31335000Y41350000I150000J0D01*
G01*
X31635000Y41350000D01*
G75*
G02*
X31785000Y41200000I0J-150000D01*
G01*
X31785000Y39550000D01*
G75*
G02*
X31635000Y39400000I-150000J0D01*
G01*
G37*
G36*
G01*
X32905000Y39400000D02*
X32605000Y39400000D01*
G75*
G02*
X32455000Y39550000I0J150000D01*
G01*
X32455000Y41200000D01*
G75*
G02*
X32605000Y41350000I150000J0D01*
G01*
X32905000Y41350000D01*
G75*
G02*
X33055000Y41200000I0J-150000D01*
G01*
X33055000Y39550000D01*
G75*
G02*
X32905000Y39400000I-150000J0D01*
G01*
G37*
G36*
G01*
X34175000Y39400000D02*
X33875000Y39400000D01*
G75*
G02*
X33725000Y39550000I0J150000D01*
G01*
X33725000Y41200000D01*
G75*
G02*
X33875000Y41350000I150000J0D01*
G01*
X34175000Y41350000D01*
G75*
G02*
X34325000Y41200000I0J-150000D01*
G01*
X34325000Y39550000D01*
G75*
G02*
X34175000Y39400000I-150000J0D01*
G01*
G37*
G36*
G01*
X35445000Y39400000D02*
X35145000Y39400000D01*
G75*
G02*
X34995000Y39550000I0J150000D01*
G01*
X34995000Y41200000D01*
G75*
G02*
X35145000Y41350000I150000J0D01*
G01*
X35445000Y41350000D01*
G75*
G02*
X35595000Y41200000I0J-150000D01*
G01*
X35595000Y39550000D01*
G75*
G02*
X35445000Y39400000I-150000J0D01*
G01*
G37*
G36*
G01*
X35445000Y44350000D02*
X35145000Y44350000D01*
G75*
G02*
X34995000Y44500000I0J150000D01*
G01*
X34995000Y46150000D01*
G75*
G02*
X35145000Y46300000I150000J0D01*
G01*
X35445000Y46300000D01*
G75*
G02*
X35595000Y46150000I0J-150000D01*
G01*
X35595000Y44500000D01*
G75*
G02*
X35445000Y44350000I-150000J0D01*
G01*
G37*
G36*
G01*
X34175000Y44350000D02*
X33875000Y44350000D01*
G75*
G02*
X33725000Y44500000I0J150000D01*
G01*
X33725000Y46150000D01*
G75*
G02*
X33875000Y46300000I150000J0D01*
G01*
X34175000Y46300000D01*
G75*
G02*
X34325000Y46150000I0J-150000D01*
G01*
X34325000Y44500000D01*
G75*
G02*
X34175000Y44350000I-150000J0D01*
G01*
G37*
G36*
G01*
X32905000Y44350000D02*
X32605000Y44350000D01*
G75*
G02*
X32455000Y44500000I0J150000D01*
G01*
X32455000Y46150000D01*
G75*
G02*
X32605000Y46300000I150000J0D01*
G01*
X32905000Y46300000D01*
G75*
G02*
X33055000Y46150000I0J-150000D01*
G01*
X33055000Y44500000D01*
G75*
G02*
X32905000Y44350000I-150000J0D01*
G01*
G37*
G36*
G01*
X31635000Y44350000D02*
X31335000Y44350000D01*
G75*
G02*
X31185000Y44500000I0J150000D01*
G01*
X31185000Y46150000D01*
G75*
G02*
X31335000Y46300000I150000J0D01*
G01*
X31635000Y46300000D01*
G75*
G02*
X31785000Y46150000I0J-150000D01*
G01*
X31785000Y44500000D01*
G75*
G02*
X31635000Y44350000I-150000J0D01*
G01*
G37*
G04 #@! TD*
G04 #@! TO.C,R13*
G36*
G01*
X47890000Y19850000D02*
X47110000Y19850000D01*
G75*
G02*
X47040000Y19920000I0J70000D01*
G01*
X47040000Y20480000D01*
G75*
G02*
X47110000Y20550000I70000J0D01*
G01*
X47890000Y20550000D01*
G75*
G02*
X47960000Y20480000I0J-70000D01*
G01*
X47960000Y19920000D01*
G75*
G02*
X47890000Y19850000I-70000J0D01*
G01*
G37*
G36*
G01*
X47890000Y21450000D02*
X47110000Y21450000D01*
G75*
G02*
X47040000Y21520000I0J70000D01*
G01*
X47040000Y22080000D01*
G75*
G02*
X47110000Y22150000I70000J0D01*
G01*
X47890000Y22150000D01*
G75*
G02*
X47960000Y22080000I0J-70000D01*
G01*
X47960000Y21520000D01*
G75*
G02*
X47890000Y21450000I-70000J0D01*
G01*
G37*
G04 #@! TD*
G04 #@! TO.C,R7*
G36*
G01*
X19850000Y30390000D02*
X19850000Y29610000D01*
G75*
G02*
X19780000Y29540000I-70000J0D01*
G01*
X19220000Y29540000D01*
G75*
G02*
X19150000Y29610000I0J70000D01*
G01*
X19150000Y30390000D01*
G75*
G02*
X19220000Y30460000I70000J0D01*
G01*
X19780000Y30460000D01*
G75*
G02*
X19850000Y30390000I0J-70000D01*
G01*
G37*
G36*
G01*
X18250000Y30390000D02*
X18250000Y29610000D01*
G75*
G02*
X18180000Y29540000I-70000J0D01*
G01*
X17620000Y29540000D01*
G75*
G02*
X17550000Y29610000I0J70000D01*
G01*
X17550000Y30390000D01*
G75*
G02*
X17620000Y30460000I70000J0D01*
G01*
X18180000Y30460000D01*
G75*
G02*
X18250000Y30390000I0J-70000D01*
G01*
G37*
G04 #@! TD*
G04 #@! TO.C,R21*
G36*
G01*
X60390000Y33000000D02*
X59610000Y33000000D01*
G75*
G02*
X59540000Y33070000I0J70000D01*
G01*
X59540000Y33630000D01*
G75*
G02*
X59610000Y33700000I70000J0D01*
G01*
X60390000Y33700000D01*
G75*
G02*
X60460000Y33630000I0J-70000D01*
G01*
X60460000Y33070000D01*
G75*
G02*
X60390000Y33000000I-70000J0D01*
G01*
G37*
G36*
G01*
X60390000Y34600000D02*
X59610000Y34600000D01*
G75*
G02*
X59540000Y34670000I0J70000D01*
G01*
X59540000Y35230000D01*
G75*
G02*
X59610000Y35300000I70000J0D01*
G01*
X60390000Y35300000D01*
G75*
G02*
X60460000Y35230000I0J-70000D01*
G01*
X60460000Y34670000D01*
G75*
G02*
X60390000Y34600000I-70000J0D01*
G01*
G37*
G04 #@! TD*
G04 #@! TO.C,F12*
G36*
G01*
X44256250Y23562500D02*
X43743750Y23562500D01*
G75*
G02*
X43525000Y23781250I0J218750D01*
G01*
X43525000Y24218750D01*
G75*
G02*
X43743750Y24437500I218750J0D01*
G01*
X44256250Y24437500D01*
G75*
G02*
X44475000Y24218750I0J-218750D01*
G01*
X44475000Y23781250D01*
G75*
G02*
X44256250Y23562500I-218750J0D01*
G01*
G37*
G36*
G01*
X44256250Y25137500D02*
X43743750Y25137500D01*
G75*
G02*
X43525000Y25356250I0J218750D01*
G01*
X43525000Y25793750D01*
G75*
G02*
X43743750Y26012500I218750J0D01*
G01*
X44256250Y26012500D01*
G75*
G02*
X44475000Y25793750I0J-218750D01*
G01*
X44475000Y25356250D01*
G75*
G02*
X44256250Y25137500I-218750J0D01*
G01*
G37*
G04 #@! TD*
G04 #@! TO.C,R6*
G36*
G01*
X65110000Y35350000D02*
X65890000Y35350000D01*
G75*
G02*
X65960000Y35280000I0J-70000D01*
G01*
X65960000Y34720000D01*
G75*
G02*
X65890000Y34650000I-70000J0D01*
G01*
X65110000Y34650000D01*
G75*
G02*
X65040000Y34720000I0J70000D01*
G01*
X65040000Y35280000D01*
G75*
G02*
X65110000Y35350000I70000J0D01*
G01*
G37*
G36*
G01*
X65110000Y33750000D02*
X65890000Y33750000D01*
G75*
G02*
X65960000Y33680000I0J-70000D01*
G01*
X65960000Y33120000D01*
G75*
G02*
X65890000Y33050000I-70000J0D01*
G01*
X65110000Y33050000D01*
G75*
G02*
X65040000Y33120000I0J70000D01*
G01*
X65040000Y33680000D01*
G75*
G02*
X65110000Y33750000I70000J0D01*
G01*
G37*
G04 #@! TD*
G04 #@! TO.C,U3*
G36*
G01*
X64840000Y39525000D02*
X64540000Y39525000D01*
G75*
G02*
X64390000Y39675000I0J150000D01*
G01*
X64390000Y41325000D01*
G75*
G02*
X64540000Y41475000I150000J0D01*
G01*
X64840000Y41475000D01*
G75*
G02*
X64990000Y41325000I0J-150000D01*
G01*
X64990000Y39675000D01*
G75*
G02*
X64840000Y39525000I-150000J0D01*
G01*
G37*
G36*
G01*
X66110000Y39525000D02*
X65810000Y39525000D01*
G75*
G02*
X65660000Y39675000I0J150000D01*
G01*
X65660000Y41325000D01*
G75*
G02*
X65810000Y41475000I150000J0D01*
G01*
X66110000Y41475000D01*
G75*
G02*
X66260000Y41325000I0J-150000D01*
G01*
X66260000Y39675000D01*
G75*
G02*
X66110000Y39525000I-150000J0D01*
G01*
G37*
G36*
G01*
X67380000Y39525000D02*
X67080000Y39525000D01*
G75*
G02*
X66930000Y39675000I0J150000D01*
G01*
X66930000Y41325000D01*
G75*
G02*
X67080000Y41475000I150000J0D01*
G01*
X67380000Y41475000D01*
G75*
G02*
X67530000Y41325000I0J-150000D01*
G01*
X67530000Y39675000D01*
G75*
G02*
X67380000Y39525000I-150000J0D01*
G01*
G37*
G36*
G01*
X68650000Y39525000D02*
X68350000Y39525000D01*
G75*
G02*
X68200000Y39675000I0J150000D01*
G01*
X68200000Y41325000D01*
G75*
G02*
X68350000Y41475000I150000J0D01*
G01*
X68650000Y41475000D01*
G75*
G02*
X68800000Y41325000I0J-150000D01*
G01*
X68800000Y39675000D01*
G75*
G02*
X68650000Y39525000I-150000J0D01*
G01*
G37*
G36*
G01*
X68650000Y44475000D02*
X68350000Y44475000D01*
G75*
G02*
X68200000Y44625000I0J150000D01*
G01*
X68200000Y46275000D01*
G75*
G02*
X68350000Y46425000I150000J0D01*
G01*
X68650000Y46425000D01*
G75*
G02*
X68800000Y46275000I0J-150000D01*
G01*
X68800000Y44625000D01*
G75*
G02*
X68650000Y44475000I-150000J0D01*
G01*
G37*
G36*
G01*
X67380000Y44475000D02*
X67080000Y44475000D01*
G75*
G02*
X66930000Y44625000I0J150000D01*
G01*
X66930000Y46275000D01*
G75*
G02*
X67080000Y46425000I150000J0D01*
G01*
X67380000Y46425000D01*
G75*
G02*
X67530000Y46275000I0J-150000D01*
G01*
X67530000Y44625000D01*
G75*
G02*
X67380000Y44475000I-150000J0D01*
G01*
G37*
G36*
G01*
X66110000Y44475000D02*
X65810000Y44475000D01*
G75*
G02*
X65660000Y44625000I0J150000D01*
G01*
X65660000Y46275000D01*
G75*
G02*
X65810000Y46425000I150000J0D01*
G01*
X66110000Y46425000D01*
G75*
G02*
X66260000Y46275000I0J-150000D01*
G01*
X66260000Y44625000D01*
G75*
G02*
X66110000Y44475000I-150000J0D01*
G01*
G37*
G36*
G01*
X64840000Y44475000D02*
X64540000Y44475000D01*
G75*
G02*
X64390000Y44625000I0J150000D01*
G01*
X64390000Y46275000D01*
G75*
G02*
X64540000Y46425000I150000J0D01*
G01*
X64840000Y46425000D01*
G75*
G02*
X64990000Y46275000I0J-150000D01*
G01*
X64990000Y44625000D01*
G75*
G02*
X64840000Y44475000I-150000J0D01*
G01*
G37*
G04 #@! TD*
G04 #@! TO.C,F13*
G36*
G01*
X47756250Y23562500D02*
X47243750Y23562500D01*
G75*
G02*
X47025000Y23781250I0J218750D01*
G01*
X47025000Y24218750D01*
G75*
G02*
X47243750Y24437500I218750J0D01*
G01*
X47756250Y24437500D01*
G75*
G02*
X47975000Y24218750I0J-218750D01*
G01*
X47975000Y23781250D01*
G75*
G02*
X47756250Y23562500I-218750J0D01*
G01*
G37*
G36*
G01*
X47756250Y25137500D02*
X47243750Y25137500D01*
G75*
G02*
X47025000Y25356250I0J218750D01*
G01*
X47025000Y25793750D01*
G75*
G02*
X47243750Y26012500I218750J0D01*
G01*
X47756250Y26012500D01*
G75*
G02*
X47975000Y25793750I0J-218750D01*
G01*
X47975000Y25356250D01*
G75*
G02*
X47756250Y25137500I-218750J0D01*
G01*
G37*
G04 #@! TD*
G04 #@! TO.C,U10*
G36*
G01*
X48340000Y39525000D02*
X48040000Y39525000D01*
G75*
G02*
X47890000Y39675000I0J150000D01*
G01*
X47890000Y41325000D01*
G75*
G02*
X48040000Y41475000I150000J0D01*
G01*
X48340000Y41475000D01*
G75*
G02*
X48490000Y41325000I0J-150000D01*
G01*
X48490000Y39675000D01*
G75*
G02*
X48340000Y39525000I-150000J0D01*
G01*
G37*
G36*
G01*
X49610000Y39525000D02*
X49310000Y39525000D01*
G75*
G02*
X49160000Y39675000I0J150000D01*
G01*
X49160000Y41325000D01*
G75*
G02*
X49310000Y41475000I150000J0D01*
G01*
X49610000Y41475000D01*
G75*
G02*
X49760000Y41325000I0J-150000D01*
G01*
X49760000Y39675000D01*
G75*
G02*
X49610000Y39525000I-150000J0D01*
G01*
G37*
G36*
G01*
X50880000Y39525000D02*
X50580000Y39525000D01*
G75*
G02*
X50430000Y39675000I0J150000D01*
G01*
X50430000Y41325000D01*
G75*
G02*
X50580000Y41475000I150000J0D01*
G01*
X50880000Y41475000D01*
G75*
G02*
X51030000Y41325000I0J-150000D01*
G01*
X51030000Y39675000D01*
G75*
G02*
X50880000Y39525000I-150000J0D01*
G01*
G37*
G36*
G01*
X52150000Y39525000D02*
X51850000Y39525000D01*
G75*
G02*
X51700000Y39675000I0J150000D01*
G01*
X51700000Y41325000D01*
G75*
G02*
X51850000Y41475000I150000J0D01*
G01*
X52150000Y41475000D01*
G75*
G02*
X52300000Y41325000I0J-150000D01*
G01*
X52300000Y39675000D01*
G75*
G02*
X52150000Y39525000I-150000J0D01*
G01*
G37*
G36*
G01*
X52150000Y44475000D02*
X51850000Y44475000D01*
G75*
G02*
X51700000Y44625000I0J150000D01*
G01*
X51700000Y46275000D01*
G75*
G02*
X51850000Y46425000I150000J0D01*
G01*
X52150000Y46425000D01*
G75*
G02*
X52300000Y46275000I0J-150000D01*
G01*
X52300000Y44625000D01*
G75*
G02*
X52150000Y44475000I-150000J0D01*
G01*
G37*
G36*
G01*
X50880000Y44475000D02*
X50580000Y44475000D01*
G75*
G02*
X50430000Y44625000I0J150000D01*
G01*
X50430000Y46275000D01*
G75*
G02*
X50580000Y46425000I150000J0D01*
G01*
X50880000Y46425000D01*
G75*
G02*
X51030000Y46275000I0J-150000D01*
G01*
X51030000Y44625000D01*
G75*
G02*
X50880000Y44475000I-150000J0D01*
G01*
G37*
G36*
G01*
X49610000Y44475000D02*
X49310000Y44475000D01*
G75*
G02*
X49160000Y44625000I0J150000D01*
G01*
X49160000Y46275000D01*
G75*
G02*
X49310000Y46425000I150000J0D01*
G01*
X49610000Y46425000D01*
G75*
G02*
X49760000Y46275000I0J-150000D01*
G01*
X49760000Y44625000D01*
G75*
G02*
X49610000Y44475000I-150000J0D01*
G01*
G37*
G36*
G01*
X48340000Y44475000D02*
X48040000Y44475000D01*
G75*
G02*
X47890000Y44625000I0J150000D01*
G01*
X47890000Y46275000D01*
G75*
G02*
X48040000Y46425000I150000J0D01*
G01*
X48340000Y46425000D01*
G75*
G02*
X48490000Y46275000I0J-150000D01*
G01*
X48490000Y44625000D01*
G75*
G02*
X48340000Y44475000I-150000J0D01*
G01*
G37*
G04 #@! TD*
G04 #@! TO.C,C1*
G36*
G01*
X8994998Y43660000D02*
X8994998Y44340000D01*
G75*
G02*
X9079998Y44425000I85000J0D01*
G01*
X9759998Y44425000D01*
G75*
G02*
X9844998Y44340000I0J-85000D01*
G01*
X9844998Y43660000D01*
G75*
G02*
X9759998Y43575000I-85000J0D01*
G01*
X9079998Y43575000D01*
G75*
G02*
X8994998Y43660000I0J85000D01*
G01*
G37*
G36*
G01*
X10575000Y43660000D02*
X10575000Y44340000D01*
G75*
G02*
X10660000Y44425000I85000J0D01*
G01*
X11340000Y44425000D01*
G75*
G02*
X11425000Y44340000I0J-85000D01*
G01*
X11425000Y43660000D01*
G75*
G02*
X11340000Y43575000I-85000J0D01*
G01*
X10660000Y43575000D01*
G75*
G02*
X10575000Y43660000I0J85000D01*
G01*
G37*
G04 #@! TD*
G04 #@! TO.C,R2*
G36*
G01*
X34605000Y35150000D02*
X35385000Y35150000D01*
G75*
G02*
X35455000Y35080000I0J-70000D01*
G01*
X35455000Y34520000D01*
G75*
G02*
X35385000Y34450000I-70000J0D01*
G01*
X34605000Y34450000D01*
G75*
G02*
X34535000Y34520000I0J70000D01*
G01*
X34535000Y35080000D01*
G75*
G02*
X34605000Y35150000I70000J0D01*
G01*
G37*
G36*
G01*
X34605000Y33550000D02*
X35385000Y33550000D01*
G75*
G02*
X35455000Y33480000I0J-70000D01*
G01*
X35455000Y32920000D01*
G75*
G02*
X35385000Y32850000I-70000J0D01*
G01*
X34605000Y32850000D01*
G75*
G02*
X34535000Y32920000I0J70000D01*
G01*
X34535000Y33480000D01*
G75*
G02*
X34605000Y33550000I70000J0D01*
G01*
G37*
G04 #@! TD*
M02*
