G04 #@! TF.GenerationSoftware,KiCad,Pcbnew,8.0.9-8.0.9-0~ubuntu24.04.1*
G04 #@! TF.CreationDate,2025-04-19T20:04:40+00:00*
G04 #@! TF.ProjectId,stabiljr,73746162-696c-46a7-922e-6b696361645f,V1*
G04 #@! TF.SameCoordinates,PX3a2c940PY8e93060*
G04 #@! TF.FileFunction,Profile,NP*
%FSLAX46Y46*%
G04 Gerber Fmt 4.6, Leading zero omitted, Abs format (unit mm)*
G04 Created by KiCad (PCBNEW 8.0.9-8.0.9-0~ubuntu24.04.1) date 2025-04-19 20:04:40*
%MOMM*%
%LPD*%
G01*
G04 APERTURE LIST*
G04 #@! TA.AperFunction,Profile*
%ADD10C,0.500000*%
G04 #@! TD*
G04 #@! TA.AperFunction,Profile*
%ADD11C,0.100000*%
G04 #@! TD*
G04 APERTURE END LIST*
D10*
X0Y109000000D02*
G75*
G02*
X1000000Y110000000I1000000J0D01*
G01*
X97500000Y110000000D02*
G75*
G02*
X98500000Y109000000I0J-1000000D01*
G01*
X1000000Y0D02*
G75*
G02*
X0Y1000000I0J1000000D01*
G01*
X0Y109000000D02*
X0Y1000000D01*
X98500000Y1000000D02*
G75*
G02*
X97500000Y0I-1000000J0D01*
G01*
X34500000Y0D02*
X64000000Y0D01*
X34500000Y0D02*
X34500000Y2000000D01*
X34500000Y2000000D02*
X32500000Y2000000D01*
X64000000Y2000000D02*
X66500000Y2000000D01*
X98500000Y1000000D02*
X98500000Y109000000D01*
X1000000Y0D02*
X32000000Y0D01*
X64000000Y0D02*
X64000000Y2000000D01*
X32500000Y2000000D02*
X32500000Y0D01*
X97500000Y0D02*
X66500000Y0D01*
X97500000Y110000000D02*
X1000000Y110000000D01*
X66500000Y2000000D02*
X66500000Y0D01*
X32500000Y0D02*
X32000000Y0D01*
D11*
G04 #@! TO.C,J1*
X29876000Y6487000D02*
X27717000Y6487000D01*
X27717000Y8519000D01*
X27717000Y11694000D01*
X29876000Y11694000D01*
X29876000Y6487000D01*
X70770000Y9281000D02*
X70770000Y6614000D01*
X68751000Y6614000D01*
X68738000Y11948000D01*
X70008000Y11948000D01*
X70770000Y11948000D01*
X70770000Y9281000D01*
G04 #@! TD*
M02*
